SplineFontDB: 3.0
FontName: RopaSans-Italic
FullName: Ropa Sans Italic
FamilyName: Ropa Sans
Weight: Book
Copyright: Copyright (c) 2011, Botjo Nikoltchev (post@carrois.com www.carrois.com), with Reserved Font Name "Ropa Sans Italic"
Version: 1.002
ItalicAngle: 0
UnderlinePosition: -50
UnderlineWidth: 50
Ascent: 800
Descent: 200
sfntRevision: 0x00010042
LayerCount: 2
Layer: 0 1 "Back"  1
Layer: 1 1 "Fore"  0
XUID: [1021 472 663295107 13852823]
FSType: 0
OS2Version: 4
OS2_WeightWidthSlopeOnly: 1
OS2_UseTypoMetrics: 1
CreationTime: 1323942848
ModificationTime: 1327090720
PfmFamily: 17
TTFWeight: 400
TTFWidth: 5
LineGap: 0
VLineGap: 0
Panose: 2 0 0 0 0 0 0 0 0 0
OS2TypoAscent: 41
OS2TypoAOffset: 1
OS2TypoDescent: -31
OS2TypoDOffset: 1
OS2TypoLinegap: 0
OS2WinAscent: 0
OS2WinAOffset: 1
OS2WinDescent: 5
OS2WinDOffset: 1
HheadAscent: 0
HheadAOffset: 1
HheadDescent: -5
HheadDOffset: 1
OS2SubXSize: 700
OS2SubYSize: 650
OS2SubXOff: 0
OS2SubYOff: 140
OS2SupXSize: 700
OS2SupYSize: 650
OS2SupXOff: 0
OS2SupYOff: 477
OS2StrikeYSize: 50
OS2StrikeYPos: 250
OS2Vendor: 'PYRS'
OS2CodePages: 00000001.00000000
OS2UnicodeRanges: 8000006f.10000002.00000000.00000000
Lookup: 258 0 0 "'kern' Horizontal Kerning in Latin lookup 0"  {"'kern' Horizontal Kerning in Latin lookup 0 subtable"  } ['kern' ('DFLT' <'dflt' > 'latn' <'dflt' > ) ]
DEI: 91125
TtTable: prep
PUSHB_1
 0
CALL
SVTCA[y-axis]
PUSHB_3
 0
 3
 2
CALL
SVTCA[y-axis]
PUSHB_8
 0
 79
 63
 49
 35
 21
 0
 8
CALL
PUSHB_8
 1
 74
 63
 49
 35
 21
 0
 8
CALL
SVTCA[y-axis]
PUSHB_3
 2
 5
 7
CALL
MPPEM
PUSHB_1
 96
GT
IF
PUSHB_1
 1
ELSE
PUSHB_1
 0
EIF
PUSHB_1
 1
INSTCTRL
EndTTInstrs
TtTable: fpgm
PUSHB_1
 0
FDEF
MPPEM
PUSHB_1
 9
LT
IF
PUSHB_2
 1
 1
INSTCTRL
EIF
PUSHW_1
 511
SCANCTRL
PUSHB_1
 68
SCVTCI
PUSHB_2
 9
 3
SDS
SDB
ENDF
PUSHB_1
 1
FDEF
DUP
DUP
RCVT
ROUND[Black]
WCVTP
PUSHB_1
 1
ADD
ENDF
PUSHB_1
 2
FDEF
PUSHB_1
 1
LOOPCALL
POP
ENDF
PUSHB_1
 3
FDEF
DUP
GC[cur]
PUSHB_1
 3
CINDEX
GC[cur]
GT
IF
SWAP
EIF
DUP
ROLL
DUP
ROLL
MD[grid]
ABS
ROLL
DUP

StartChar: .notdef
Encoding: 65536 -1 0
Width: 548
Flags: W
LayerCount: 2
Fore
SplineSet
80 683 m 1,0,-1
 468 683 l 1,1,-1
 468 0 l 1,2,-1
 80 0 l 1,3,-1
 80 683 l 1,0,-1
400 68 m 1,4,-1
 400 615 l 1,5,-1
 148 615 l 1,6,-1
 148 68 l 1,7,-1
 400 68 l 1,4,-1
EndSplineSet
EndChar

StartChar: exclam
Encoding: 33 33 23
Width: 211
Flags: W
LayerCount: 2
Fore
SplineSet
53 200 m 1,0,-1
 115 695 l 1,1,-1
 210 695 l 1,2,-1
 134 200 l 1,3,-1
 53 200 l 1,0,-1
125 30 m 2,4,5
 122 10 122 10 108.5 -1 c 128,-1,6
 95 -12 95 -12 66 -12 c 0,7,8
 38 -12 38 -12 24.5 2 c 128,-1,9
 11 16 11 16 14 36 c 2,10,-1
 17 59 l 2,11,12
 20 85 20 85 33.5 96.5 c 128,-1,13
 47 108 47 108 76 108 c 0,14,15
 104 108 104 108 118 94.5 c 128,-1,16
 132 81 132 81 129 59 c 2,17,-1
 125 30 l 2,4,5
EndSplineSet
EndChar

StartChar: quotedbl
Encoding: 34 34 24
Width: 375
Flags: W
LayerCount: 2
Fore
SplineSet
130 683 m 1,0,-1
 215 683 l 1,1,-1
 180 429 l 1,2,-1
 95 429 l 1,3,-1
 130 683 l 1,0,-1
270 683 m 1,4,-1
 355 683 l 1,5,-1
 320 429 l 1,6,-1
 235 429 l 1,7,-1
 270 683 l 1,4,-1
EndSplineSet
EndChar

StartChar: numbersign
Encoding: 35 35 25
Width: 520
Flags: W
LayerCount: 2
Fore
SplineSet
400 125 m 1,0,-1
 383 0 l 1,1,-1
 298 0 l 1,2,-1
 315 125 l 1,3,-1
 159 125 l 1,4,-1
 142 0 l 1,5,-1
 57 0 l 1,6,-1
 74 125 l 1,7,-1
 -6 125 l 1,8,-1
 4 195 l 1,9,-1
 84 195 l 1,10,-1
 115 418 l 1,11,-1
 35 418 l 1,12,-1
 45 488 l 1,13,-1
 125 488 l 1,14,-1
 143 613 l 1,15,-1
 228 613 l 1,16,-1
 210 488 l 1,17,-1
 366 488 l 1,18,-1
 384 613 l 1,19,-1
 469 613 l 1,20,-1
 451 488 l 1,21,-1
 531 488 l 1,22,-1
 521 418 l 1,23,-1
 441 418 l 1,24,-1
 410 195 l 1,25,-1
 490 195 l 1,26,-1
 480 125 l 1,27,-1
 400 125 l 1,0,-1
356 418 m 1,28,-1
 200 418 l 1,29,-1
 169 195 l 1,30,-1
 325 195 l 1,31,-1
 356 418 l 1,28,-1
EndSplineSet
EndChar

StartChar: dollar
Encoding: 36 36 26
Width: 520
Flags: W
LayerCount: 2
Fore
SplineSet
172 -94 m 1,0,-1
 183 -11 l 1,1,2
 153 -8 153 -8 119.5 0 c 128,-1,3
 86 8 86 8 60 19 c 1,4,-1
 71 97 l 1,5,6
 100 85 100 85 132.5 76 c 128,-1,7
 165 67 165 67 192 62 c 0,8,9
 198 61 198 61 203 61 c 2,10,-1
 214 61 l 2,11,12
 281 61 281 61 310 80.5 c 128,-1,13
 339 100 339 100 342 139 c 0,14,15
 343 152 343 152 343 156 c 2,16,-1
 343 162 l 2,17,18
 343 193 343 193 326 214 c 128,-1,19
 309 235 309 235 267 250 c 2,20,-1
 211 270 l 2,21,22
 146 293 146 293 118.5 330 c 128,-1,23
 91 367 91 367 91 421 c 0,24,25
 91 445 91 445 95 468 c 2,26,-1
 96 474 l 2,27,28
 106 538 106 538 146.5 572.5 c 128,-1,29
 187 607 187 607 271 612 c 1,30,-1
 283 695 l 1,31,-1
 358 695 l 1,32,-1
 346 609 l 1,33,34
 373 606 373 606 399.5 599.5 c 128,-1,35
 426 593 426 593 449 585 c 1,36,-1
 436 509 l 1,37,38
 407 518 407 518 378.5 526 c 128,-1,39
 350 534 350 534 324 539 c 0,40,41
 317 540 317 540 308 540 c 2,42,-1
 294 540 l 2,43,44
 240 540 240 540 213.5 519.5 c 128,-1,45
 187 499 187 499 181 463 c 2,46,-1
 180 457 l 2,47,48
 179 450 179 450 178.5 444.5 c 128,-1,49
 178 439 178 439 178 433 c 0,50,51
 178 370 178 370 244 348 c 1,52,-1
 304 327 l 2,53,54
 370 304 370 304 400.5 265.5 c 128,-1,55
 431 227 431 227 431 174 c 0,56,57
 431 158 431 158 428 142 c 2,58,-1
 427 135 l 2,59,60
 422 103 422 103 411 78 c 128,-1,61
 400 53 400 53 380.5 35 c 128,-1,62
 361 17 361 17 331 6 c 128,-1,63
 301 -5 301 -5 258 -9 c 1,64,-1
 247 -94 l 1,65,-1
 172 -94 l 1,0,-1
EndSplineSet
EndChar

StartChar: percent
Encoding: 37 37 27
Width: 922
Flags: W
LayerCount: 2
Fore
SplineSet
399 419 m 2,0,1
 378 263 378 263 225 263 c 0,2,3
 156 263 156 263 118.5 299.5 c 128,-1,4
 81 336 81 336 81 398 c 0,5,6
 81 414 81 414 84 434 c 2,7,-1
 89 464 l 2,8,9
 102 541 102 541 143 577 c 128,-1,10
 184 613 184 613 263 613 c 0,11,12
 333 613 333 613 369 579 c 128,-1,13
 405 545 405 545 405 482 c 2,14,-1
 405 465 l 2,15,16
 405 457 405 457 403 449 c 2,17,-1
 399 419 l 2,0,1
839 144 m 2,18,19
 818 -12 818 -12 665 -12 c 0,20,21
 596 -12 596 -12 558.5 24.5 c 128,-1,22
 521 61 521 61 521 123 c 0,23,24
 521 139 521 139 524 159 c 2,25,-1
 529 189 l 2,26,27
 542 266 542 266 583 302 c 128,-1,28
 624 338 624 338 703 338 c 0,29,30
 773 338 773 338 809 304 c 128,-1,31
 845 270 845 270 845 207 c 2,32,-1
 845 190 l 2,33,34
 845 182 845 182 843 174 c 2,35,-1
 839 144 l 2,18,19
303 0 m 1,36,-1
 212 0 l 1,37,-1
 633 613 l 1,38,-1
 724 613 l 1,39,-1
 303 0 l 1,36,-1
318 451 m 2,40,41
 319 457 319 457 319.5 463 c 128,-1,42
 320 469 320 469 320 474 c 0,43,44
 320 508 320 508 303.5 523 c 128,-1,45
 287 538 287 538 255 538 c 0,46,47
 219 538 219 538 199 519 c 128,-1,48
 179 500 179 500 173 456 c 2,49,-1
 169 426 l 2,50,51
 168 420 168 420 167.5 414 c 128,-1,52
 167 408 167 408 167 403 c 0,53,54
 167 338 167 338 233 338 c 0,55,56
 269 338 269 338 288.5 357 c 128,-1,57
 308 376 308 376 314 421 c 2,58,-1
 318 451 l 2,40,41
758 176 m 2,59,60
 759 182 759 182 759.5 188 c 128,-1,61
 760 194 760 194 760 199 c 0,62,63
 760 233 760 233 743.5 248 c 128,-1,64
 727 263 727 263 695 263 c 0,65,66
 659 263 659 263 639 244 c 128,-1,67
 619 225 619 225 613 181 c 2,68,-1
 609 151 l 2,69,70
 608 145 608 145 607.5 139 c 128,-1,71
 607 133 607 133 607 128 c 0,72,73
 607 63 607 63 673 63 c 0,74,75
 709 63 709 63 728.5 82 c 128,-1,76
 748 101 748 101 754 146 c 2,77,-1
 758 176 l 2,59,60
EndSplineSet
EndChar

StartChar: ampersand
Encoding: 38 38 28
Width: 530
Flags: W
LayerCount: 2
Fore
SplineSet
283 597 m 0,0,1
 232 597 232 597 205 573.5 c 128,-1,2
 178 550 178 550 173 505 c 0,3,4
 170 479 170 479 170 471 c 0,5,6
 170 426 170 426 200.5 396.5 c 128,-1,7
 231 367 231 367 289 367 c 2,8,-1
 380 367 l 1,9,-1
 390 440 l 1,10,-1
 472 440 l 1,11,-1
 462 367 l 1,12,-1
 536 367 l 1,13,-1
 526 298 l 1,14,-1
 452 298 l 1,15,-1
 414 23 l 1,16,17
 381 14 381 14 355 7 c 128,-1,18
 329 0 329 0 306 -4 c 128,-1,19
 283 -8 283 -8 261.5 -10 c 128,-1,20
 240 -12 240 -12 216 -12 c 0,21,22
 114 -12 114 -12 64 31.5 c 128,-1,23
 14 75 14 75 14 143 c 0,24,25
 14 152 14 152 15 161.5 c 128,-1,26
 16 171 16 171 18 181 c 2,27,-1
 21 198 l 2,28,29
 30 249 30 249 70 286.5 c 128,-1,30
 110 324 110 324 182 340 c 1,31,32
 134 360 134 360 110.5 396.5 c 128,-1,33
 87 433 87 433 87 478 c 2,34,-1
 87 489 l 2,35,36
 87 495 87 495 88 500 c 2,37,-1
 91 522 l 2,38,39
 100 586 100 586 150 626.5 c 128,-1,40
 200 667 200 667 289 667 c 0,41,42
 317 667 317 667 350 662.5 c 128,-1,43
 383 658 383 658 415 651 c 1,44,-1
 403 577 l 1,45,46
 378 585 378 585 346.5 591 c 128,-1,47
 315 597 315 597 283 597 c 0,0,1
370 298 m 1,48,-1
 273 298 l 2,49,50
 198 298 198 298 155.5 267.5 c 128,-1,51
 113 237 113 237 105 186 c 2,52,-1
 103 172 l 2,53,54
 96 123 96 123 128.5 92 c 128,-1,55
 161 61 161 61 233 61 c 0,56,57
 285 61 285 61 339 75 c 1,58,-1
 370 298 l 1,48,-1
EndSplineSet
EndChar

StartChar: quotesingle
Encoding: 39 39 29
Width: 235
Flags: W
LayerCount: 2
Fore
SplineSet
130 683 m 1,0,-1
 215 683 l 1,1,-1
 180 429 l 1,2,-1
 95 429 l 1,3,-1
 130 683 l 1,0,-1
EndSplineSet
EndChar

StartChar: parenleft
Encoding: 40 40 30
Width: 520
Flags: W
LayerCount: 2
Fore
SplineSet
209 616 m 2,0,1
 216 664 216 664 225 696.5 c 128,-1,2
 234 729 234 729 249 749 c 128,-1,3
 264 769 264 769 286.5 777.5 c 128,-1,4
 309 786 309 786 342 786 c 0,5,6
 356 786 356 786 371.5 784.5 c 128,-1,7
 387 783 387 783 404 781 c 1,8,-1
 394 709 l 1,9,10
 382 711 382 711 371.5 712 c 128,-1,11
 361 713 361 713 353 713 c 0,12,13
 339 713 339 713 330 709.5 c 128,-1,14
 321 706 321 706 314.5 697 c 128,-1,15
 308 688 308 688 304 673 c 128,-1,16
 300 658 300 658 297 635 c 2,17,-1
 214 46 l 2,18,19
 210 23 210 23 210 3 c 0,20,21
 210 -26 210 -26 226.5 -36 c 128,-1,22
 243 -46 243 -46 287 -47 c 1,23,-1
 277 -119 l 1,24,25
 234 -119 234 -119 205 -114 c 128,-1,26
 176 -109 176 -109 158 -97 c 128,-1,27
 140 -85 140 -85 132.5 -64 c 128,-1,28
 125 -43 125 -43 125 -11 c 0,29,30
 125 5 125 5 127 24 c 128,-1,31
 129 43 129 43 132 65 c 2,32,-1
 209 616 l 2,0,1
EndSplineSet
EndChar

StartChar: parenright
Encoding: 41 41 31
Width: 520
Flags: W
LayerCount: 2
Fore
SplineSet
323 52 m 2,0,1
 316 4 316 4 307 -28.5 c 128,-1,2
 298 -61 298 -61 283 -81 c 128,-1,3
 268 -101 268 -101 245.5 -109.5 c 128,-1,4
 223 -118 223 -118 190 -118 c 0,5,6
 176 -118 176 -118 160.5 -116.5 c 128,-1,7
 145 -115 145 -115 128 -113 c 1,8,-1
 138 -41 l 1,9,10
 150 -43 150 -43 160.5 -44 c 128,-1,11
 171 -45 171 -45 179 -45 c 0,12,13
 193 -45 193 -45 202 -41.5 c 128,-1,14
 211 -38 211 -38 217.5 -29 c 128,-1,15
 224 -20 224 -20 228 -5 c 128,-1,16
 232 10 232 10 235 33 c 2,17,-1
 318 622 l 2,18,19
 322 645 322 645 322 665 c 0,20,21
 322 694 322 694 305.5 703.5 c 128,-1,22
 289 713 289 713 245 715 c 1,23,-1
 255 787 l 1,24,25
 298 787 298 787 327 782 c 128,-1,26
 356 777 356 777 374 765 c 128,-1,27
 392 753 392 753 399.5 732 c 128,-1,28
 407 711 407 711 407 679 c 0,29,30
 407 663 407 663 405 644 c 128,-1,31
 403 625 403 625 400 603 c 2,32,-1
 323 52 l 2,0,1
EndSplineSet
EndChar

StartChar: asterisk
Encoding: 42 42 32
Width: 410
Flags: W
LayerCount: 2
Fore
SplineSet
266 583 m 1,0,-1
 369 627 l 1,1,-1
 392 561 l 1,2,-1
 281 536 l 1,3,-1
 355 452 l 1,4,-1
 298 411 l 1,5,-1
 241 507 l 1,6,-1
 184 410 l 1,7,-1
 128 452 l 1,8,-1
 202 537 l 1,9,-1
 92 561 l 1,10,-1
 115 627 l 1,11,-1
 217 584 l 1,12,-1
 207 695 l 1,13,-1
 276 695 l 1,14,-1
 266 583 l 1,0,-1
EndSplineSet
EndChar

StartChar: plus
Encoding: 43 43 33
Width: 520
Flags: W
LayerCount: 2
Fore
SplineSet
295 265 m 1,0,-1
 273 113 l 1,1,-1
 197 113 l 1,2,-1
 219 265 l 1,3,-1
 79 265 l 1,4,-1
 89 336 l 1,5,-1
 229 336 l 1,6,-1
 250 488 l 1,7,-1
 326 488 l 1,8,-1
 305 336 l 1,9,-1
 445 336 l 1,10,-1
 435 265 l 1,11,-1
 295 265 l 1,0,-1
EndSplineSet
EndChar

StartChar: comma
Encoding: 44 44 34
Width: 220
Flags: W
LayerCount: 2
Fore
SplineSet
130 30 m 0,0,1
 128 15 128 15 124.5 4 c 128,-1,2
 121 -7 121 -7 116 -19 c 2,3,-1
 52 -161 l 1,4,-1
 -8 -161 l 1,5,-1
 49 -9 l 1,6,7
 34 -6 34 -6 26.5 5 c 128,-1,8
 19 16 19 16 19 30 c 0,9,10
 19 32 19 32 19.5 37.5 c 128,-1,11
 20 43 20 43 23 66 c 0,12,13
 29 108 29 108 81 108 c 0,14,15
 106 108 106 108 120 97.5 c 128,-1,16
 134 87 134 87 134 68 c 0,17,18
 134 66 134 66 133.5 60.5 c 128,-1,19
 133 55 133 55 130 30 c 0,0,1
EndSplineSet
EndChar

StartChar: hyphen
Encoding: 45 45 35
Width: 350
Flags: W
LayerCount: 2
Fore
SplineSet
61 263 m 1,0,-1
 71 328 l 1,1,-1
 291 328 l 1,2,-1
 281 263 l 1,3,-1
 61 263 l 1,0,-1
EndSplineSet
EndChar

StartChar: period
Encoding: 46 46 36
Width: 221
Flags: W
LayerCount: 2
Fore
SplineSet
130 30 m 2,0,1
 127 10 127 10 113.5 -1 c 128,-1,2
 100 -12 100 -12 71 -12 c 0,3,4
 43 -12 43 -12 29.5 2 c 128,-1,5
 16 16 16 16 19 36 c 2,6,-1
 22 59 l 2,7,8
 25 85 25 85 38.5 96.5 c 128,-1,9
 52 108 52 108 81 108 c 0,10,11
 109 108 109 108 123 94.5 c 128,-1,12
 137 81 137 81 134 59 c 2,13,-1
 130 30 l 2,0,1
EndSplineSet
EndChar

StartChar: slash
Encoding: 47 47 37
Width: 520
Flags: W
LayerCount: 2
Fore
SplineSet
115 0 m 1,0,-1
 320 683 l 1,1,-1
 405 683 l 1,2,-1
 200 0 l 1,3,-1
 115 0 l 1,0,-1
EndSplineSet
EndChar

StartChar: zero
Encoding: 48 48 38
Width: 520
Flags: W
LayerCount: 2
Fore
SplineSet
432 190 m 2,0,1
 418 86 418 86 365.5 37 c 128,-1,2
 313 -12 313 -12 224 -12 c 0,3,4
 143 -12 143 -12 100.5 29.5 c 128,-1,5
 58 71 58 71 58 149 c 0,6,7
 58 160 58 160 59 171.5 c 128,-1,8
 60 183 60 183 62 196 c 2,9,-1
 92 411 l 2,10,11
 106 515 106 515 158.5 564 c 128,-1,12
 211 613 211 613 300 613 c 0,13,14
 378 613 378 613 422 573 c 128,-1,15
 466 533 466 533 466 452 c 0,16,17
 466 441 466 441 465 429.5 c 128,-1,18
 464 418 464 418 462 405 c 2,19,-1
 432 190 l 2,0,1
378 413 m 2,20,21
 380 422 380 422 380 430 c 2,22,-1
 380 446 l 2,23,24
 380 496 380 496 357 518.5 c 128,-1,25
 334 541 334 541 293 541 c 0,26,27
 245 541 245 541 216 512.5 c 128,-1,28
 187 484 187 484 178 419 c 2,29,-1
 146 188 l 2,30,31
 144 179 144 179 144 171 c 2,32,-1
 144 155 l 2,33,34
 144 107 144 107 166.5 83.5 c 128,-1,35
 189 60 189 60 231 60 c 0,36,37
 279 60 279 60 308 88.5 c 128,-1,38
 337 117 337 117 346 182 c 2,39,-1
 378 413 l 2,20,21
EndSplineSet
EndChar

StartChar: one
Encoding: 49 49 39
Width: 520
Flags: W
LayerCount: 2
Fore
SplineSet
76 0 m 1,0,-1
 85 70 l 1,1,-1
 206 70 l 1,2,-1
 269 517 l 1,3,-1
 267 517 l 1,4,-1
 126 462 l 1,5,-1
 120 535 l 1,6,-1
 293 601 l 1,7,-1
 366 601 l 1,8,-1
 291 70 l 1,9,-1
 403 70 l 1,10,-1
 394 0 l 1,11,-1
 76 0 l 1,0,-1
EndSplineSet
EndChar

StartChar: two
Encoding: 50 50 40
Width: 520
Flags: W
LayerCount: 2
Fore
SplineSet
275 543 m 0,0,1
 246 543 246 543 210.5 534 c 128,-1,2
 175 525 175 525 143 511 c 1,3,-1
 153 588 l 1,4,5
 187 599 187 599 225 606 c 128,-1,6
 263 613 263 613 289 613 c 0,7,8
 368 613 368 613 409.5 579.5 c 128,-1,9
 451 546 451 546 451 484 c 0,10,11
 451 477 451 477 450.5 470 c 128,-1,12
 450 463 450 463 449 455 c 2,13,-1
 446 433 l 2,14,15
 443 412 443 412 436.5 391.5 c 128,-1,16
 430 371 430 371 417 349 c 128,-1,17
 404 327 404 327 384.5 302.5 c 128,-1,18
 365 278 365 278 336 248 c 2,19,-1
 165 71 l 1,20,-1
 391 71 l 1,21,-1
 382 0 l 1,22,-1
 55 0 l 1,23,-1
 64 62 l 1,24,-1
 299 318 l 2,25,26
 327 349 327 349 341 376 c 128,-1,27
 355 403 355 403 360 432 c 2,28,-1
 363 452 l 2,29,30
 364 458 364 458 364.5 464 c 128,-1,31
 365 470 365 470 365 475 c 0,32,33
 365 511 365 511 342.5 527 c 128,-1,34
 320 543 320 543 275 543 c 0,0,1
EndSplineSet
EndChar

StartChar: three
Encoding: 51 51 41
Width: 520
Flags: W
LayerCount: 2
Fore
SplineSet
265 548 m 0,0,1
 236 548 236 548 200 541 c 128,-1,2
 164 534 164 534 137 527 c 1,3,-1
 147 596 l 1,4,5
 181 604 181 604 215 608.5 c 128,-1,6
 249 613 249 613 275 613 c 0,7,8
 347 613 347 613 388.5 576.5 c 128,-1,9
 430 540 430 540 430 480 c 0,10,11
 430 474 430 474 429.5 467.5 c 128,-1,12
 429 461 429 461 428 455 c 2,13,-1
 427 448 l 2,14,15
 412 345 412 345 323 313 c 1,16,17
 358 297 358 297 380 263 c 128,-1,18
 402 229 402 229 402 184 c 2,19,-1
 402 175 l 2,20,21
 402 171 402 171 401 166 c 2,22,-1
 400 156 l 2,23,24
 392 79 392 79 341.5 33.5 c 128,-1,25
 291 -12 291 -12 199 -12 c 0,26,27
 173 -12 173 -12 134 -5 c 128,-1,28
 95 2 95 2 63 14 c 1,29,-1
 72 85 l 1,30,31
 97 74 97 74 133.5 65 c 128,-1,32
 170 56 170 56 199 56 c 0,33,34
 247 56 247 56 276.5 80 c 128,-1,35
 306 104 306 104 313 150 c 2,36,-1
 316 172 l 2,37,38
 317 177 317 177 317 182 c 2,39,-1
 317 193 l 2,40,41
 317 277 317 277 225 277 c 2,42,-1
 136 277 l 1,43,-1
 146 343 l 1,44,-1
 235 343 l 2,45,46
 284 343 284 343 309.5 369 c 128,-1,47
 335 395 335 395 343 448 c 2,48,-1
 344 455 l 2,49,50
 345 460 345 460 345.5 465 c 128,-1,51
 346 470 346 470 346 475 c 0,52,53
 346 511 346 511 324.5 529.5 c 128,-1,54
 303 548 303 548 265 548 c 0,0,1
EndSplineSet
EndChar

StartChar: four
Encoding: 52 52 42
Width: 520
Flags: W
LayerCount: 2
Fore
SplineSet
314 601 m 1,0,-1
 131 199 l 1,1,-1
 300 199 l 1,2,-1
 329 401 l 1,3,-1
 411 401 l 1,4,-1
 382 199 l 1,5,-1
 456 199 l 1,6,-1
 447 129 l 1,7,-1
 373 129 l 1,8,-1
 355 0 l 1,9,-1
 272 0 l 1,10,-1
 290 129 l 1,11,-1
 51 129 l 1,12,-1
 35 174 l 1,13,-1
 231 601 l 1,14,-1
 314 601 l 1,0,-1
EndSplineSet
EndChar

StartChar: five
Encoding: 53 53 43
Width: 520
Flags: W
LayerCount: 2
Fore
SplineSet
422 175 m 1,0,1
 409 81 409 81 357.5 34.5 c 128,-1,2
 306 -12 306 -12 209 -12 c 0,3,4
 171 -12 171 -12 128 -3.5 c 128,-1,5
 85 5 85 5 53 16 c 1,6,-1
 63 90 l 1,7,8
 79 84 79 84 100 79 c 128,-1,9
 121 74 121 74 141.5 69.5 c 128,-1,10
 162 65 162 65 180.5 62.5 c 128,-1,11
 199 60 199 60 212 60 c 0,12,13
 269 60 269 60 299 89.5 c 128,-1,14
 329 119 329 119 337 175 c 2,15,-1
 341 202 l 2,16,17
 344 220 344 220 344 234 c 0,18,19
 344 275 344 275 326.5 293 c 128,-1,20
 309 311 309 311 278 311 c 0,21,22
 241 311 241 311 209 296 c 128,-1,23
 177 281 177 281 141 246 c 1,24,-1
 76 246 l 1,25,-1
 126 604 l 1,26,-1
 434 604 l 1,27,-1
 424 532 l 1,28,-1
 201 532 l 1,29,-1
 173 338 l 1,30,31
 205 360 205 360 237.5 371 c 128,-1,32
 270 382 270 382 300 382 c 0,33,34
 361 382 361 382 394.5 350 c 128,-1,35
 428 318 428 318 428 245 c 0,36,37
 428 224 428 224 425 199 c 2,38,-1
 422 175 l 1,0,1
EndSplineSet
EndChar

StartChar: six
Encoding: 54 54 44
Width: 520
Flags: W
LayerCount: 2
Fore
SplineSet
91 396 m 2,0,1
 107 509 107 509 160 560.5 c 128,-1,2
 213 612 213 612 312 612 c 0,3,4
 328 612 328 612 348 610.5 c 128,-1,5
 368 609 368 609 387 606 c 128,-1,6
 406 603 406 603 423 600 c 128,-1,7
 440 597 440 597 451 594 c 1,8,-1
 441 520 l 1,9,10
 431 523 431 523 414 527 c 128,-1,11
 397 531 397 531 378 534 c 128,-1,12
 359 537 359 537 340.5 539.5 c 128,-1,13
 322 542 322 542 310 542 c 0,14,15
 249 542 249 542 217.5 507.5 c 128,-1,16
 186 473 186 473 176 399 c 2,17,-1
 165 322 l 1,18,19
 204 359 204 359 239.5 374 c 128,-1,20
 275 389 275 389 304 389 c 0,21,22
 367 389 367 389 402 354 c 128,-1,23
 437 319 437 319 437 250 c 0,24,25
 437 229 437 229 434 207 c 2,26,-1
 429 173 l 2,27,28
 416 82 416 82 368.5 35 c 128,-1,29
 321 -12 321 -12 230 -12 c 0,30,31
 143 -12 143 -12 101.5 31.5 c 128,-1,32
 60 75 60 75 60 153 c 0,33,34
 60 174 60 174 63 198 c 2,35,-1
 91 396 l 2,0,1
146 183 m 2,36,37
 145 177 145 177 144.5 170 c 128,-1,38
 144 163 144 163 144 155 c 0,39,40
 144 110 144 110 166.5 85 c 128,-1,41
 189 60 189 60 232 60 c 0,42,43
 282 60 282 60 308 86.5 c 128,-1,44
 334 113 334 113 343 168 c 2,45,-1
 350 210 l 2,46,47
 352 217 352 217 352 223 c 2,48,-1
 352 236 l 2,49,50
 352 274 352 274 333 294.5 c 128,-1,51
 314 315 314 315 283 315 c 0,52,53
 254 315 254 315 220.5 298 c 128,-1,54
 187 281 187 281 155 250 c 1,55,-1
 146 183 l 2,36,37
EndSplineSet
EndChar

StartChar: seven
Encoding: 55 55 45
Width: 520
Flags: W
LayerCount: 2
Fore
SplineSet
484 600 m 1,0,-1
 476 539 l 1,1,-1
 176 0 l 1,2,-1
 87 0 l 1,3,-1
 384 525 l 1,4,-1
 384 527 l 1,5,-1
 113 527 l 1,6,-1
 123 600 l 1,7,-1
 484 600 l 1,0,-1
EndSplineSet
EndChar

StartChar: eight
Encoding: 56 56 46
Width: 520
Flags: W
LayerCount: 2
Fore
SplineSet
365 319 m 1,0,1
 403 301 403 301 422 268.5 c 128,-1,2
 441 236 441 236 441 194 c 2,3,-1
 441 182 l 2,4,5
 441 176 441 176 440 170 c 2,6,-1
 438 154 l 2,7,8
 428 76 428 76 375.5 32 c 128,-1,9
 323 -12 323 -12 229 -12 c 0,10,11
 141 -12 141 -12 93 29.5 c 128,-1,12
 45 71 45 71 45 140 c 0,13,14
 45 147 45 147 45.5 153.5 c 128,-1,15
 46 160 46 160 47 167 c 2,16,-1
 49 182 l 2,17,18
 56 233 56 233 84 268.5 c 128,-1,19
 112 304 112 304 166 324 c 1,20,21
 139 340 139 340 124.5 369 c 128,-1,22
 110 398 110 398 110 433 c 0,23,24
 110 441 110 441 111 449 c 128,-1,25
 112 457 112 457 114 469 c 0,26,27
 126 542 126 542 169.5 577.5 c 128,-1,28
 213 613 213 613 293 613 c 0,29,30
 368 613 368 613 411 574 c 128,-1,31
 454 535 454 535 454 474 c 0,32,33
 454 467 454 467 453.5 459 c 128,-1,34
 453 451 453 451 451 439 c 0,35,36
 443 396 443 396 423 367 c 128,-1,37
 403 338 403 338 365 319 c 1,0,1
354 175 m 2,38,39
 355 181 355 181 355.5 186.5 c 128,-1,40
 356 192 356 192 356 197 c 0,41,42
 356 239 356 239 330.5 263 c 128,-1,43
 305 287 305 287 256 287 c 0,44,45
 201 287 201 287 172 257.5 c 128,-1,46
 143 228 143 228 135 180 c 0,47,48
 134 175 134 175 133 169 c 128,-1,49
 132 163 132 163 132 151 c 0,50,51
 132 109 132 109 158.5 84 c 128,-1,52
 185 59 185 59 232 59 c 0,53,54
 286 59 286 59 315 84 c 128,-1,55
 344 109 344 109 351 155 c 2,56,-1
 354 175 l 2,38,39
370 458 m 2,57,58
 371 463 371 463 371.5 468 c 128,-1,59
 372 473 372 473 372 478 c 0,60,61
 372 511 372 511 351.5 529 c 128,-1,62
 331 547 331 547 290 547 c 0,63,64
 248 547 248 547 226.5 527 c 128,-1,65
 205 507 205 507 198 462 c 2,66,-1
 196 448 l 2,67,68
 195 441 195 441 194.5 435 c 128,-1,69
 194 429 194 429 194 423 c 0,70,71
 194 353 194 353 271 353 c 0,72,73
 295 353 295 353 311.5 357.5 c 128,-1,74
 328 362 328 362 339 372 c 128,-1,75
 350 382 350 382 356.5 398.5 c 128,-1,76
 363 415 363 415 367 439 c 2,77,-1
 370 458 l 2,57,58
EndSplineSet
EndChar

StartChar: nine
Encoding: 57 57 47
Width: 520
Flags: W
LayerCount: 2
Fore
SplineSet
434 202 m 2,0,1
 426 144 426 144 409 103.5 c 128,-1,2
 392 63 392 63 365 37.5 c 128,-1,3
 338 12 338 12 300 0 c 128,-1,4
 262 -12 262 -12 212 -12 c 0,5,6
 195 -12 195 -12 176 -9.5 c 128,-1,7
 157 -7 157 -7 139 -3.5 c 128,-1,8
 121 0 121 0 105.5 4 c 128,-1,9
 90 8 90 8 81 11 c 1,10,-1
 91 86 l 1,11,12
 103 81 103 81 119.5 76.5 c 128,-1,13
 136 72 136 72 153.5 68 c 128,-1,14
 171 64 171 64 187 62 c 128,-1,15
 203 60 203 60 214 60 c 0,16,17
 243 60 243 60 265.5 67.5 c 128,-1,18
 288 75 288 75 304.5 91.5 c 128,-1,19
 321 108 321 108 331.5 135 c 128,-1,20
 342 162 342 162 348 202 c 2,21,-1
 359 278 l 1,22,23
 278 211 278 211 213 211 c 0,24,25
 156 211 156 211 122 247 c 128,-1,26
 88 283 88 283 88 358 c 0,27,28
 88 378 88 378 91 404 c 2,29,-1
 95 435 l 2,30,31
 107 525 107 525 155 568.5 c 128,-1,32
 203 612 203 612 296 612 c 0,33,34
 377 612 377 612 421 569.5 c 128,-1,35
 465 527 465 527 465 449 c 0,36,37
 465 429 465 429 462 408 c 2,38,-1
 434 202 l 2,0,1
380 423 m 2,39,40
 381 429 381 429 381.5 435 c 128,-1,41
 382 441 382 441 382 447 c 0,42,43
 382 493 382 493 357.5 516.5 c 128,-1,44
 333 540 333 540 289 540 c 0,45,46
 238 540 238 540 213 515.5 c 128,-1,47
 188 491 188 491 180 440 c 2,48,-1
 174 401 l 2,49,50
 172 393 172 393 172 385 c 2,51,-1
 172 371 l 2,52,53
 172 328 172 328 191.5 306.5 c 128,-1,54
 211 285 211 285 241 285 c 0,55,56
 270 285 270 285 303.5 304.5 c 128,-1,57
 337 324 337 324 369 350 c 1,58,-1
 380 423 l 2,39,40
EndSplineSet
EndChar

StartChar: less
Encoding: 60 60 50
Width: 520
Flags: W
LayerCount: 2
Fore
SplineSet
76 259 m 1,0,-1
 86 334 l 1,1,-1
 469 494 l 1,2,-1
 457 411 l 1,3,-1
 165 297 l 1,4,-1
 425 182 l 1,5,-1
 413 99 l 1,6,-1
 76 259 l 1,0,-1
EndSplineSet
EndChar

StartChar: equal
Encoding: 61 61 51
Width: 520
Flags: W
LayerCount: 2
Fore
SplineSet
68 180 m 1,0,-1
 78 250 l 1,1,-1
 432 250 l 1,2,-1
 422 180 l 1,3,-1
 68 180 l 1,0,-1
92 351 m 1,4,-1
 102 421 l 1,5,-1
 456 421 l 1,6,-1
 446 351 l 1,7,-1
 92 351 l 1,4,-1
EndSplineSet
EndChar

StartChar: greater
Encoding: 62 62 52
Width: 520
Flags: W
LayerCount: 2
Fore
SplineSet
53 99 m 1,0,-1
 65 182 l 1,1,-1
 357 297 l 1,2,-1
 97 411 l 1,3,-1
 109 494 l 1,4,-1
 446 334 l 1,5,-1
 436 259 l 1,6,-1
 53 99 l 1,0,-1
EndSplineSet
EndChar

StartChar: question
Encoding: 63 63 53
Width: 395
Flags: W
LayerCount: 2
Fore
SplineSet
197 627 m 0,0,1
 169 627 169 627 133 618.5 c 128,-1,2
 97 610 97 610 70 599 c 1,3,-1
 80 672 l 1,4,5
 114 683 114 683 149.5 689 c 128,-1,6
 185 695 185 695 211 695 c 0,7,8
 256 695 256 695 287.5 685.5 c 128,-1,9
 319 676 319 676 339 659 c 128,-1,10
 359 642 359 642 368 619 c 128,-1,11
 377 596 377 596 377 569 c 0,12,13
 377 562 377 562 376.5 555.5 c 128,-1,14
 376 549 376 549 375 542 c 2,15,-1
 373 527 l 2,16,17
 370 504 370 504 363 484 c 128,-1,18
 356 464 356 464 343.5 444 c 128,-1,19
 331 424 331 424 311.5 403 c 128,-1,20
 292 382 292 382 265 357 c 2,21,-1
 225 321 l 2,22,23
 209 307 209 307 199.5 288 c 128,-1,24
 190 269 190 269 183 227 c 2,25,-1
 179 200 l 1,26,-1
 103 200 l 1,27,-1
 107 228 l 2,28,29
 114 275 114 275 128.5 306 c 128,-1,30
 143 337 143 337 172 365 c 2,31,-1
 231 422 l 2,32,33
 248 438 248 438 258.5 451.5 c 128,-1,34
 269 465 269 465 276 477.5 c 128,-1,35
 283 490 283 490 286 504 c 128,-1,36
 289 518 289 518 291 535 c 2,37,-1
 292 545 l 2,38,39
 294 563 294 563 290.5 578 c 128,-1,40
 287 593 287 593 276.5 604 c 128,-1,41
 266 615 266 615 246.5 621 c 128,-1,42
 227 627 227 627 197 627 c 0,0,1
174 30 m 2,43,44
 171 10 171 10 157.5 -1 c 128,-1,45
 144 -12 144 -12 115 -12 c 0,46,47
 87 -12 87 -12 73.5 2 c 128,-1,48
 60 16 60 16 63 36 c 2,49,-1
 66 59 l 2,50,51
 69 85 69 85 82.5 96.5 c 128,-1,52
 96 108 96 108 125 108 c 0,53,54
 153 108 153 108 167 94.5 c 128,-1,55
 181 81 181 81 178 59 c 2,56,-1
 174 30 l 2,43,44
EndSplineSet
EndChar

StartChar: at
Encoding: 64 64 54
Width: 960
Flags: W
LayerCount: 2
Fore
SplineSet
299 320 m 2,0,1
 310 402 310 402 352.5 445 c 128,-1,2
 395 488 395 488 462 488 c 0,3,4
 478 488 478 488 495 483 c 128,-1,5
 512 478 512 478 527 470 c 128,-1,6
 542 462 542 462 555.5 452.5 c 128,-1,7
 569 443 569 443 579 434 c 1,8,-1
 584 475 l 1,9,-1
 664 475 l 1,10,-1
 623 155 l 2,11,12
 622 150 622 150 622 146 c 2,13,-1
 622 138 l 2,14,15
 622 115 622 115 633 102.5 c 128,-1,16
 644 90 644 90 673 90 c 0,17,18
 699 90 699 90 722 103 c 128,-1,19
 745 116 745 116 762.5 140 c 128,-1,20
 780 164 780 164 790 196.5 c 128,-1,21
 800 229 800 229 800 268 c 2,22,-1
 800 318 l 2,23,24
 800 467 800 467 718 543 c 128,-1,25
 636 619 636 619 470 619 c 0,26,27
 323 619 323 619 241.5 534 c 128,-1,28
 160 449 160 449 160 288 c 2,29,-1
 160 188 l 2,30,31
 160 42 160 42 237.5 -33.5 c 128,-1,32
 315 -109 315 -109 470 -109 c 2,33,-1
 605 -109 l 1,34,-1
 605 -185 l 1,35,-1
 470 -185 l 2,36,37
 267 -185 267 -185 171 -89.5 c 128,-1,38
 75 6 75 6 75 188 c 2,39,-1
 75 288 l 2,40,41
 75 378 75 378 98.5 452.5 c 128,-1,42
 122 527 122 527 170.5 581 c 128,-1,43
 219 635 219 635 293.5 665 c 128,-1,44
 368 695 368 695 470 695 c 0,45,46
 682 695 682 695 783.5 599.5 c 128,-1,47
 885 504 885 504 885 318 c 2,48,-1
 885 268 l 2,49,50
 885 213 885 213 870.5 166.5 c 128,-1,51
 856 120 856 120 828.5 86.5 c 128,-1,52
 801 53 801 53 761.5 34 c 128,-1,53
 722 15 722 15 672 15 c 0,54,55
 615 15 615 15 583.5 39.5 c 128,-1,56
 552 64 552 64 546 109 c 1,57,58
 511 66 511 66 470.5 40.5 c 128,-1,59
 430 15 430 15 392 15 c 0,60,61
 336 15 336 15 307 48 c 128,-1,62
 278 81 278 81 278 143 c 0,63,64
 278 161 278 161 281 182 c 2,65,-1
 299 320 l 2,0,1
418 91 m 0,66,67
 447 91 447 91 480 114 c 128,-1,68
 513 137 513 137 542 182 c 1,69,-1
 564 363 l 1,70,71
 546 385 546 385 519.5 398.5 c 128,-1,72
 493 412 493 412 470 412 c 0,73,74
 436 412 436 412 413 387.5 c 128,-1,75
 390 363 390 363 382 308 c 2,76,-1
 367 193 l 2,77,78
 365 184 365 184 365 176 c 2,79,-1
 365 161 l 2,80,81
 365 123 365 123 379 107 c 128,-1,82
 393 91 393 91 418 91 c 0,66,67
EndSplineSet
EndChar

StartChar: A
Encoding: 65 65 55
Width: 536
Flags: W
LayerCount: 2
Fore
SplineSet
394 0 m 1,0,-1
 372 152 l 1,1,-1
 133 152 l 1,2,3
 117 114 117 114 101.5 76 c 128,-1,4
 86 38 86 38 69 0 c 1,5,-1
 -21 0 l 1,6,-1
 259 655 l 1,7,-1
 364 655 l 1,8,-1
 485 0 l 1,9,-1
 394 0 l 1,0,-1
301 576 m 1,10,11
 268 488 268 488 234 401.5 c 128,-1,12
 200 315 200 315 165 228 c 1,13,-1
 360 228 l 1,14,15
 346 316 346 316 331.5 402.5 c 128,-1,16
 317 489 317 489 301 576 c 1,10,11
EndSplineSet
EndChar

StartChar: B
Encoding: 66 66 56
Width: 528
Flags: W
LayerCount: 2
Fore
SplineSet
120 662 m 1,0,1
 136 663 136 663 156.5 663.5 c 128,-1,2
 177 664 177 664 198.5 665 c 128,-1,3
 220 666 220 666 242 666.5 c 128,-1,4
 264 667 264 667 284 667 c 0,5,6
 338 667 338 667 378.5 654.5 c 128,-1,7
 419 642 419 642 445 620.5 c 128,-1,8
 471 599 471 599 483 569 c 128,-1,9
 495 539 495 539 492 503 c 2,10,-1
 491 492 l 2,11,12
 486 435 486 435 457.5 396.5 c 128,-1,13
 429 358 429 358 373 340 c 1,14,15
 421 327 421 327 450.5 290.5 c 128,-1,16
 480 254 480 254 480 202 c 0,17,18
 480 196 480 196 479.5 190 c 128,-1,19
 479 184 479 184 478 178 c 2,20,-1
 476 163 l 2,21,22
 465 80 465 80 406 34 c 128,-1,23
 347 -12 347 -12 232 -12 c 0,24,25
 211 -12 211 -12 191 -11.5 c 128,-1,26
 171 -11 171 -11 148.5 -10 c 128,-1,27
 126 -9 126 -9 99 -7.5 c 128,-1,28
 72 -6 72 -6 38 -3 c 1,29,-1
 120 662 l 1,0,1
131 68 m 1,30,31
 169 64 169 64 189.5 63 c 128,-1,32
 210 62 210 62 230 62 c 0,33,34
 310 62 310 62 347.5 90.5 c 128,-1,35
 385 119 385 119 393 173 c 2,36,-1
 395 186 l 2,37,38
 396 191 396 191 396.5 196 c 128,-1,39
 397 201 397 201 397 206 c 0,40,41
 397 250 397 250 364 274 c 128,-1,42
 331 298 331 298 263 298 c 2,43,-1
 159 298 l 1,44,-1
 131 68 l 1,30,31
168 367 m 1,45,-1
 271 367 l 2,46,47
 331 367 331 367 364.5 397 c 128,-1,48
 398 427 398 427 404 480 c 2,49,-1
 405 489 l 2,50,51
 411 542 411 542 380.5 568 c 128,-1,52
 350 594 350 594 273 594 c 0,53,54
 239 594 239 594 196 591 c 1,55,-1
 168 367 l 1,45,-1
EndSplineSet
EndChar

StartChar: C
Encoding: 67 67 57
Width: 462
Flags: W
LayerCount: 2
Fore
SplineSet
301 667 m 0,0,1
 334 667 334 667 374.5 660.5 c 128,-1,2
 415 654 415 654 450 643 c 1,3,-1
 439 563 l 1,4,5
 404 577 404 577 366.5 585 c 128,-1,6
 329 593 329 593 299 593 c 0,7,8
 245 593 245 593 213.5 563.5 c 128,-1,9
 182 534 182 534 174 469 c 2,10,-1
 141 194 l 2,11,12
 140 185 140 185 139.5 176.5 c 128,-1,13
 139 168 139 168 139 160 c 0,14,15
 139 108 139 108 163.5 87 c 128,-1,16
 188 66 188 66 239 66 c 0,17,18
 274 66 274 66 310.5 75.5 c 128,-1,19
 347 85 347 85 389 104 c 1,20,-1
 381 24 l 1,21,22
 365 16 365 16 345 9.5 c 128,-1,23
 325 3 325 3 304 -2 c 128,-1,24
 283 -7 283 -7 263 -9.5 c 128,-1,25
 243 -12 243 -12 226 -12 c 0,26,27
 140 -12 140 -12 97 29 c 128,-1,28
 54 70 54 70 54 157 c 0,29,30
 54 180 54 180 57 207 c 2,31,-1
 88 463 l 2,32,33
 101 569 101 569 154.5 618 c 128,-1,34
 208 667 208 667 301 667 c 0,0,1
EndSplineSet
EndChar

StartChar: D
Encoding: 68 68 58
Width: 571
Flags: W
LayerCount: 2
Fore
SplineSet
131 68 m 1,0,1
 160 64 160 64 182 62.5 c 128,-1,2
 204 61 204 61 223 61 c 0,3,4
 300 61 300 61 350.5 104 c 128,-1,5
 401 147 401 147 411 227 c 2,6,-1
 433 402 l 2,7,8
 436 423 436 423 436 442 c 0,9,10
 436 519 436 519 396 557 c 128,-1,11
 356 595 356 595 284 595 c 0,12,13
 269 595 269 595 242.5 594.5 c 128,-1,14
 216 594 216 594 196 593 c 1,15,-1
 131 68 l 1,0,1
120 662 m 1,16,17
 152 664 152 664 196.5 665.5 c 128,-1,18
 241 667 241 667 290 667 c 0,19,20
 403 667 403 667 461.5 608 c 128,-1,21
 520 549 520 549 520 445 c 0,22,23
 520 420 520 420 517 395 c 2,24,-1
 496 229 l 2,25,26
 481 112 481 112 413.5 50 c 128,-1,27
 346 -12 346 -12 215 -12 c 0,28,29
 165 -12 165 -12 124.5 -10 c 128,-1,30
 84 -8 84 -8 38 -3 c 1,31,-1
 120 662 l 1,16,17
EndSplineSet
EndChar

StartChar: E
Encoding: 69 69 59
Width: 485
Flags: W
LayerCount: 2
Fore
SplineSet
39 0 m 1,0,-1
 119 655 l 1,1,-1
 464 655 l 1,2,-1
 454 578 l 1,3,-1
 194 578 l 1,4,-1
 169 371 l 1,5,-1
 409 371 l 1,6,-1
 399 295 l 1,7,-1
 159 295 l 1,8,-1
 132 77 l 1,9,-1
 392 77 l 1,10,-1
 384 0 l 1,11,-1
 39 0 l 1,0,-1
EndSplineSet
EndChar

StartChar: F
Encoding: 70 70 60
Width: 485
Flags: W
LayerCount: 2
Fore
SplineSet
194 578 m 1,0,-1
 169 371 l 1,1,-1
 365 371 l 1,2,-1
 355 295 l 1,3,-1
 159 295 l 1,4,-1
 124 0 l 1,5,-1
 39 0 l 1,6,-1
 119 655 l 1,7,-1
 464 655 l 1,8,-1
 454 578 l 1,9,-1
 194 578 l 1,0,-1
EndSplineSet
EndChar

StartChar: G
Encoding: 71 71 61
Width: 557
Flags: W
LayerCount: 2
Fore
SplineSet
250 -12 m 0,0,1
 151 -12 151 -12 102 35 c 128,-1,2
 53 82 53 82 53 167 c 0,3,4
 53 187 53 187 56 208 c 2,5,-1
 87 465 l 2,6,7
 99 566 99 566 152 616.5 c 128,-1,8
 205 667 205 667 313 667 c 0,9,10
 334 667 334 667 358 664.5 c 128,-1,11
 382 662 382 662 406.5 658 c 128,-1,12
 431 654 431 654 453.5 649 c 128,-1,13
 476 644 476 644 494 638 c 1,14,-1
 484 560 l 1,15,16
 443 575 443 575 396 584.5 c 128,-1,17
 349 594 349 594 309 594 c 0,18,19
 246 594 246 594 213 565.5 c 128,-1,20
 180 537 180 537 172 471 c 2,21,-1
 138 193 l 2,22,23
 137 186 137 186 136.5 180 c 128,-1,24
 136 174 136 174 136 168 c 0,25,26
 136 63 136 63 253 63 c 0,27,28
 286 63 286 63 315.5 68.5 c 128,-1,29
 345 74 345 74 371 85 c 1,30,-1
 397 298 l 1,31,-1
 271 298 l 1,32,-1
 282 378 l 1,33,-1
 492 378 l 1,34,-1
 451 45 l 1,35,36
 408 22 408 22 353.5 5 c 128,-1,37
 299 -12 299 -12 250 -12 c 0,0,1
EndSplineSet
EndChar

StartChar: H
Encoding: 72 72 62
Width: 580
Flags: W
LayerCount: 2
Fore
SplineSet
384 0 m 1,0,-1
 420 300 l 1,1,-1
 160 300 l 1,2,-1
 124 0 l 1,3,-1
 39 0 l 1,4,-1
 119 655 l 1,5,-1
 204 655 l 1,6,-1
 169 376 l 1,7,-1
 429 376 l 1,8,-1
 464 655 l 1,9,-1
 549 655 l 1,10,-1
 469 0 l 1,11,-1
 384 0 l 1,0,-1
EndSplineSet
EndChar

StartChar: I
Encoding: 73 73 63
Width: 235
Flags: W
LayerCount: 2
Fore
SplineSet
39 0 m 1,0,-1
 119 655 l 1,1,-1
 204 655 l 1,2,-1
 124 0 l 1,3,-1
 39 0 l 1,0,-1
EndSplineSet
EndChar

StartChar: J
Encoding: 74 74 64
Width: 312
Flags: W
LayerCount: 2
Fore
SplineSet
281 655 m 1,0,-1
 217 137 l 2,1,2
 207 56 207 56 174 22 c 128,-1,3
 141 -12 141 -12 75 -12 c 0,4,5
 65 -12 65 -12 52.5 -10.5 c 128,-1,6
 40 -9 40 -9 27 -7 c 128,-1,7
 14 -5 14 -5 2 -2.5 c 128,-1,8
 -10 0 -10 0 -17 2 c 1,9,-1
 -8 75 l 1,10,11
 9 69 9 69 30 65 c 128,-1,12
 51 61 51 61 68 61 c 0,13,14
 97 61 97 61 112 76.5 c 128,-1,15
 127 92 127 92 132 134 c 2,16,-1
 196 655 l 1,17,-1
 281 655 l 1,0,-1
EndSplineSet
EndChar

StartChar: K
Encoding: 75 75 65
Width: 550
Flags: W
LayerCount: 2
Fore
SplineSet
39 0 m 1,0,-1
 119 655 l 1,1,-1
 204 655 l 1,2,-1
 167 352 l 1,3,4
 246 433 246 433 314 508 c 128,-1,5
 382 583 382 583 439 655 c 1,6,-1
 543 655 l 1,7,-1
 255 338 l 1,8,-1
 489 0 l 1,9,-1
 381 0 l 1,10,11
 352 47 352 47 325.5 89 c 128,-1,12
 299 131 299 131 273 170 c 128,-1,13
 247 209 247 209 220.5 247 c 128,-1,14
 194 285 194 285 164 325 c 1,15,-1
 124 0 l 1,16,-1
 39 0 l 1,0,-1
EndSplineSet
EndChar

StartChar: L
Encoding: 76 76 66
Width: 445
Flags: W
LayerCount: 2
Fore
SplineSet
39 0 m 1,0,-1
 119 655 l 1,1,-1
 204 655 l 1,2,-1
 132 75 l 1,3,-1
 392 75 l 1,4,-1
 384 0 l 1,5,-1
 39 0 l 1,0,-1
EndSplineSet
EndChar

StartChar: M
Encoding: 77 77 67
Width: 699
Flags: W
LayerCount: 2
Fore
SplineSet
509 0 m 1,0,-1
 568 535 l 1,1,-1
 371 68 l 1,2,-1
 267 68 l 1,3,-1
 187 533 l 1,4,-1
 118 0 l 1,5,-1
 34 0 l 1,6,-1
 120 655 l 1,7,-1
 241 655 l 1,8,9
 267 527 267 527 288.5 401 c 128,-1,10
 310 275 310 275 325 146 c 1,11,12
 385 277 385 277 436 403 c 128,-1,13
 487 529 487 529 534 655 c 1,14,-1
 667 655 l 1,15,-1
 593 0 l 1,16,-1
 509 0 l 1,0,-1
EndSplineSet
EndChar

StartChar: N
Encoding: 78 78 68
Width: 582
Flags: W
LayerCount: 2
Fore
SplineSet
346 0 m 1,0,-1
 190 556 l 1,1,-1
 123 0 l 1,2,-1
 39 0 l 1,3,-1
 119 655 l 1,4,-1
 244 655 l 1,5,6
 287 516 287 516 325.5 379.5 c 128,-1,7
 364 243 364 243 399 100 c 1,8,-1
 467 655 l 1,9,-1
 551 655 l 1,10,-1
 471 0 l 1,11,-1
 346 0 l 1,0,-1
EndSplineSet
EndChar

StartChar: O
Encoding: 79 79 69
Width: 576
Flags: W
LayerCount: 2
Fore
SplineSet
89 457 m 2,0,1
 103 565 103 565 159 616 c 128,-1,2
 215 667 215 667 327 667 c 0,3,4
 424 667 424 667 475.5 619 c 128,-1,5
 527 571 527 571 527 485 c 2,6,-1
 527 466 l 2,7,8
 527 457 527 457 525 447 c 2,9,-1
 494 198 l 2,10,11
 481 94 481 94 423 41 c 128,-1,12
 365 -12 365 -12 256 -12 c 0,13,14
 156 -12 156 -12 105.5 35.5 c 128,-1,15
 55 83 55 83 55 168 c 0,16,17
 55 187 55 187 58 208 c 2,18,-1
 89 457 l 2,0,1
142 197 m 2,19,20
 141 190 141 190 140.5 183.5 c 128,-1,21
 140 177 140 177 140 171 c 0,22,23
 140 117 140 117 171 90 c 128,-1,24
 202 63 202 63 261 63 c 0,25,26
 392 63 392 63 408 191 c 2,27,-1
 441 458 l 2,28,29
 442 465 442 465 442.5 471.5 c 128,-1,30
 443 478 443 478 443 484 c 0,31,32
 443 540 443 540 411.5 566 c 128,-1,33
 380 592 380 592 321 592 c 0,34,35
 189 592 189 592 174 465 c 2,36,-1
 142 197 l 2,19,20
EndSplineSet
EndChar

StartChar: P
Encoding: 80 80 70
Width: 501
Flags: W
LayerCount: 2
Fore
SplineSet
39 0 m 1,0,-1
 120 662 l 1,1,2
 133 663 133 663 154 663.5 c 128,-1,3
 175 664 175 664 198 665 c 128,-1,4
 221 666 221 666 243 666.5 c 128,-1,5
 265 667 265 667 282 667 c 0,6,7
 389 667 389 667 445.5 622 c 128,-1,8
 502 577 502 577 502 499 c 0,9,10
 502 483 502 483 499 465 c 2,11,-1
 497 451 l 2,12,13
 484 363 484 363 424.5 315 c 128,-1,14
 365 267 365 267 259 267 c 0,15,16
 245 267 245 267 218.5 269.5 c 128,-1,17
 192 272 192 272 157 279 c 1,18,-1
 124 0 l 1,19,-1
 39 0 l 1,0,-1
165 347 m 1,20,21
 194 342 194 342 216.5 339.5 c 128,-1,22
 239 337 239 337 257 337 c 0,23,24
 328 337 328 337 364.5 366.5 c 128,-1,25
 401 396 401 396 412 456 c 2,26,-1
 414 467 l 2,27,28
 417 480 417 480 417 494 c 0,29,30
 417 542 417 542 381.5 569 c 128,-1,31
 346 596 346 596 279 596 c 0,32,33
 250 596 250 596 231 595.5 c 128,-1,34
 212 595 212 595 196 594 c 1,35,-1
 165 347 l 1,20,21
EndSplineSet
EndChar

StartChar: Q
Encoding: 81 81 71
Width: 576
Flags: W
LayerCount: 2
Fore
SplineSet
93 445 m 2,0,1
 107 553 107 553 163 604 c 128,-1,2
 219 655 219 655 331 655 c 0,3,4
 428 655 428 655 479.5 607 c 128,-1,5
 531 559 531 559 531 473 c 2,6,-1
 531 454 l 2,7,8
 531 445 531 445 529 435 c 2,9,-1
 498 186 l 2,10,11
 483 61 483 61 401 10 c 1,12,13
 430 2 430 2 489 -6 c 1,14,-1
 481 -85 l 1,15,-1
 462 -85 l 1,16,-1
 302 -22 l 1,17,18
 291 -23 291 -23 281 -23.5 c 128,-1,19
 271 -24 271 -24 260 -24 c 0,20,21
 160 -24 160 -24 109.5 23.5 c 128,-1,22
 59 71 59 71 59 156 c 0,23,24
 59 175 59 175 62 196 c 2,25,-1
 93 445 l 2,0,1
146 185 m 2,26,27
 145 178 145 178 144.5 171.5 c 128,-1,28
 144 165 144 165 144 159 c 0,29,30
 144 105 144 105 175 78 c 128,-1,31
 206 51 206 51 265 51 c 0,32,33
 396 51 396 51 412 179 c 2,34,-1
 445 446 l 2,35,36
 446 453 446 453 446.5 459.5 c 128,-1,37
 447 466 447 466 447 472 c 0,38,39
 447 528 447 528 415.5 554 c 128,-1,40
 384 580 384 580 325 580 c 0,41,42
 193 580 193 580 178 453 c 2,43,-1
 146 185 l 2,26,27
EndSplineSet
EndChar

StartChar: R
Encoding: 82 82 72
Width: 546
Flags: W
LayerCount: 2
Fore
SplineSet
289 667 m 0,0,1
 345 667 345 667 387 652.5 c 128,-1,2
 429 638 429 638 456 612.5 c 128,-1,3
 483 587 483 587 494 552 c 128,-1,4
 505 517 505 517 499 477 c 2,5,-1
 496 457 l 2,6,7
 488 400 488 400 450 357.5 c 128,-1,8
 412 315 412 315 352 296 c 1,9,-1
 489 0 l 1,10,-1
 392 0 l 1,11,12
 369 57 369 57 352 98.5 c 128,-1,13
 335 140 335 140 320.5 172.5 c 128,-1,14
 306 205 306 205 293 231.5 c 128,-1,15
 280 258 280 258 265 285 c 1,16,-1
 251 285 l 2,17,18
 234 285 234 285 212 286.5 c 128,-1,19
 190 288 190 288 159 293 c 1,20,-1
 124 0 l 1,21,-1
 39 0 l 1,22,-1
 120 662 l 1,23,24
 162 664 162 664 206.5 665.5 c 128,-1,25
 251 667 251 667 289 667 c 0,0,1
282 596 m 0,26,27
 267 596 267 596 241.5 595.5 c 128,-1,28
 216 595 216 595 196 594 c 1,29,-1
 167 358 l 1,30,31
 200 354 200 354 219 353 c 128,-1,32
 238 352 238 352 255 352 c 0,33,34
 327 352 327 352 365 381.5 c 128,-1,35
 403 411 403 411 412 465 c 2,36,-1
 413 471 l 2,37,38
 414 478 414 478 414.5 484.5 c 128,-1,39
 415 491 415 491 415 497 c 0,40,41
 415 545 415 545 382 570.5 c 128,-1,42
 349 596 349 596 282 596 c 0,26,27
EndSplineSet
EndChar

StartChar: S
Encoding: 83 83 73
Width: 448
Flags: W
LayerCount: 2
Fore
SplineSet
298 354 m 2,0,1
 354 331 354 331 381.5 293.5 c 128,-1,2
 409 256 409 256 409 199 c 0,3,4
 409 180 409 180 406 158 c 2,5,-1
 404 145 l 2,6,7
 392 67 392 67 343.5 27.5 c 128,-1,8
 295 -12 295 -12 204 -12 c 0,9,10
 182 -12 182 -12 157.5 -8.5 c 128,-1,11
 133 -5 133 -5 109 1 c 128,-1,12
 85 7 85 7 63 14.5 c 128,-1,13
 41 22 41 22 24 30 c 1,14,-1
 34 115 l 1,15,16
 103 80 103 80 161 66 c 1,17,18
 176 64 176 64 185 64 c 2,19,-1
 204 64 l 2,20,21
 257 64 257 64 283.5 85.5 c 128,-1,22
 310 107 310 107 318 152 c 2,23,-1
 320 163 l 2,24,25
 323 179 323 179 323 193 c 0,26,27
 323 225 323 225 306 245.5 c 128,-1,28
 289 266 289 266 253 281 c 2,29,-1
 164 317 l 2,30,31
 110 338 110 338 82.5 379.5 c 128,-1,32
 55 421 55 421 55 475 c 0,33,34
 55 500 55 500 61 527 c 2,35,-1
 63 536 l 2,36,37
 77 600 77 600 125.5 633.5 c 128,-1,38
 174 667 174 667 264 667 c 0,39,40
 280 667 280 667 299.5 665 c 128,-1,41
 319 663 319 663 339 660 c 128,-1,42
 359 657 359 657 378.5 653 c 128,-1,43
 398 649 398 649 415 645 c 1,44,-1
 404 564 l 1,45,46
 378 572 378 572 350.5 578.5 c 128,-1,47
 323 585 323 585 295 590 c 0,48,49
 284 591 284 591 276 591 c 2,50,-1
 260 591 l 2,51,52
 208 591 208 591 181 572 c 128,-1,53
 154 553 154 553 148 516 c 2,54,-1
 146 504 l 2,55,56
 145 498 145 498 144.5 492 c 128,-1,57
 144 486 144 486 144 480 c 0,58,59
 144 417 144 417 215 388 c 2,60,-1
 298 354 l 2,0,1
EndSplineSet
EndChar

StartChar: T
Encoding: 84 84 74
Width: 515
Flags: W
LayerCount: 2
Fore
SplineSet
59 578 m 1,0,-1
 69 655 l 1,1,-1
 534 655 l 1,2,-1
 524 578 l 1,3,-1
 334 578 l 1,4,-1
 264 0 l 1,5,-1
 179 0 l 1,6,-1
 249 578 l 1,7,-1
 59 578 l 1,0,-1
EndSplineSet
EndChar

StartChar: U
Encoding: 85 85 75
Width: 576
Flags: W
LayerCount: 2
Fore
SplineSet
545 655 m 1,0,-1
 489 201 l 2,1,2
 475 92 475 92 420 40 c 128,-1,3
 365 -12 365 -12 261 -12 c 0,4,5
 161 -12 161 -12 110.5 34 c 128,-1,6
 60 80 60 80 60 165 c 0,7,8
 60 183 60 183 63 204 c 2,9,-1
 119 655 l 1,10,-1
 204 655 l 1,11,-1
 147 197 l 2,12,13
 139 133 139 133 170.5 99 c 128,-1,14
 202 65 202 65 267 65 c 0,15,16
 327 65 327 65 361 95.5 c 128,-1,17
 395 126 395 126 403 194 c 2,18,-1
 460 655 l 1,19,-1
 545 655 l 1,0,-1
EndSplineSet
EndChar

StartChar: V
Encoding: 86 86 76
Width: 530
Flags: W
LayerCount: 2
Fore
SplineSet
285 0 m 1,0,-1
 173 0 l 1,1,-1
 59 655 l 1,2,-1
 144 655 l 1,3,4
 170 510 170 510 193 367.5 c 128,-1,5
 216 225 216 225 233 82 c 1,6,7
 362 368 362 368 464 655 c 1,8,-1
 559 655 l 1,9,-1
 285 0 l 1,0,-1
EndSplineSet
EndChar

StartChar: W
Encoding: 87 87 77
Width: 848
Flags: W
LayerCount: 2
Fore
SplineSet
638 0 m 1,0,-1
 524 0 l 1,1,-1
 456 558 l 1,2,-1
 253 0 l 1,3,-1
 139 0 l 1,4,-1
 69 655 l 1,5,-1
 156 655 l 1,6,7
 189 377 189 377 207 93 c 1,8,9
 263 233 263 233 312.5 373 c 128,-1,10
 362 513 362 513 407 655 c 1,11,-1
 521 655 l 1,12,13
 541 514 541 514 558 374 c 128,-1,14
 575 234 575 234 587 93 c 1,15,16
 640 234 640 234 686 374 c 128,-1,17
 732 514 732 514 774 655 c 1,18,-1
 867 655 l 1,19,-1
 638 0 l 1,0,-1
EndSplineSet
EndChar

StartChar: X
Encoding: 88 88 78
Width: 523
Flags: W
LayerCount: 2
Fore
SplineSet
258 268 m 1,0,1
 213 201 213 201 169 134 c 128,-1,2
 125 67 125 67 78 0 c 1,3,-1
 -21 0 l 1,4,-1
 212 341 l 1,5,-1
 71 655 l 1,6,-1
 167 655 l 1,7,8
 194 592 194 592 220 530 c 128,-1,9
 246 468 246 468 272 405 c 1,10,11
 320 471 320 471 361 531.5 c 128,-1,12
 402 592 402 592 441 655 c 1,13,-1
 541 655 l 1,14,-1
 321 335 l 1,15,-1
 472 0 l 1,16,-1
 372 0 l 1,17,18
 346 69 346 69 319 132 c 128,-1,19
 292 195 292 195 258 268 c 1,0,1
EndSplineSet
EndChar

StartChar: Y
Encoding: 89 89 79
Width: 495
Flags: W
LayerCount: 2
Fore
SplineSet
281 225 m 1,0,-1
 254 0 l 1,1,-1
 169 0 l 1,2,-1
 196 225 l 1,3,-1
 59 655 l 1,4,-1
 152 655 l 1,5,6
 178 570 178 570 201.5 485 c 128,-1,7
 225 400 225 400 246 315 c 1,8,9
 296 400 296 400 340 485 c 128,-1,10
 384 570 384 570 425 655 c 1,11,-1
 524 655 l 1,12,-1
 281 225 l 1,0,-1
EndSplineSet
EndChar

StartChar: Z
Encoding: 90 90 80
Width: 495
Flags: W
LayerCount: 2
Fore
SplineSet
9 0 m 1,0,-1
 16 67 l 1,1,-1
 370 578 l 1,2,-1
 85 578 l 1,3,-1
 95 655 l 1,4,-1
 484 655 l 1,5,-1
 475 588 l 1,6,7
 381 463 381 463 293 336 c 128,-1,8
 205 209 205 209 120 77 c 1,9,-1
 412 77 l 1,10,-1
 404 0 l 1,11,-1
 9 0 l 1,0,-1
EndSplineSet
EndChar

StartChar: bracketleft
Encoding: 91 91 81
Width: 520
Flags: W
LayerCount: 2
Fore
SplineSet
100 -116 m 1,0,-1
 227 784 l 1,1,-1
 432 784 l 1,2,-1
 422 714 l 1,3,-1
 302 714 l 1,4,-1
 195 -46 l 1,5,-1
 315 -46 l 1,6,-1
 305 -116 l 1,7,-1
 100 -116 l 1,0,-1
EndSplineSet
EndChar

StartChar: backslash
Encoding: 92 92 82
Width: 520
Flags: W
LayerCount: 2
Fore
SplineSet
320 0 m 1,0,-1
 115 683 l 1,1,-1
 200 683 l 1,2,-1
 405 0 l 1,3,-1
 320 0 l 1,0,-1
EndSplineSet
EndChar

StartChar: bracketright
Encoding: 93 93 83
Width: 520
Flags: W
LayerCount: 2
Fore
SplineSet
100 -116 m 1,0,-1
 110 -46 l 1,1,-1
 230 -46 l 1,2,-1
 337 714 l 1,3,-1
 217 714 l 1,4,-1
 227 784 l 1,5,-1
 432 784 l 1,6,-1
 305 -116 l 1,7,-1
 100 -116 l 1,0,-1
EndSplineSet
EndChar

StartChar: asciicircum
Encoding: 94 94 84
Width: 495
Flags: W
LayerCount: 2
Fore
SplineSet
366 403 m 1,0,-1
 294 604 l 1,1,-1
 167 403 l 1,2,-1
 81 403 l 1,3,-1
 265 683 l 1,4,-1
 340 683 l 1,5,-1
 446 403 l 1,6,-1
 366 403 l 1,0,-1
EndSplineSet
EndChar

StartChar: underscore
Encoding: 95 95 85
Width: 610
Flags: W
LayerCount: 2
Fore
SplineSet
-2 -185 m 1,0,-1
 8 -120 l 1,1,-1
 488 -120 l 1,2,-1
 478 -185 l 1,3,-1
 -2 -185 l 1,0,-1
EndSplineSet
EndChar

StartChar: grave
Encoding: 96 96 86
Width: 385
Flags: W
LayerCount: 2
Fore
SplineSet
125 685 m 1,0,-1
 215 685 l 1,1,-1
 305 546 l 1,2,-1
 234 546 l 1,3,-1
 125 685 l 1,0,-1
EndSplineSet
EndChar

StartChar: a
Encoding: 97 97 87
Width: 490
Flags: W
LayerCount: 2
Fore
SplineSet
75 327 m 2,0,1
 89 415 89 415 133 457.5 c 128,-1,2
 177 500 177 500 237 500 c 0,3,4
 272 500 272 500 302.5 483.5 c 128,-1,5
 333 467 333 467 357 438 c 1,6,-1
 364 488 l 1,7,-1
 444 488 l 1,8,-1
 376 0 l 1,9,-1
 295 0 l 1,10,-1
 304 65 l 1,11,-1
 345 190 l 1,12,-1
 343 192 l 1,13,-1
 340 191 l 1,14,15
 304 83 304 83 257 35.5 c 128,-1,16
 210 -12 210 -12 156 -12 c 0,17,18
 108 -12 108 -12 76.5 21 c 128,-1,19
 45 54 45 54 45 118 c 0,20,21
 45 129 45 129 46 140.5 c 128,-1,22
 47 152 47 152 49 164 c 2,23,-1
 75 327 l 2,0,1
180 64 m 0,24,25
 210 64 210 64 235.5 86 c 128,-1,26
 261 108 261 108 280.5 141 c 128,-1,27
 300 174 300 174 313.5 213 c 128,-1,28
 327 252 327 252 332 287 c 2,29,-1
 344 373 l 1,30,31
 324 398 324 398 299 412.5 c 128,-1,32
 274 427 274 427 248 427 c 0,33,34
 215 427 215 427 192 402.5 c 128,-1,35
 169 378 169 378 160 322 c 2,36,-1
 136 175 l 2,37,38
 134 161 134 161 132.5 149 c 128,-1,39
 131 137 131 137 131 127 c 0,40,41
 131 92 131 92 144 78 c 128,-1,42
 157 64 157 64 180 64 c 0,24,25
EndSplineSet
EndChar

StartChar: b
Encoding: 98 98 88
Width: 491
Flags: W
LayerCount: 2
Fore
SplineSet
129 253 m 1,0,-1
 131 251 l 1,1,-1
 134 253 l 1,2,3
 169 373 169 373 214.5 436.5 c 128,-1,4
 260 500 260 500 322 500 c 0,5,6
 373 500 373 500 404 466.5 c 128,-1,7
 435 433 435 433 435 365 c 0,8,9
 435 350 435 350 433.5 333 c 128,-1,10
 432 316 432 316 428 297 c 2,11,-1
 404 177 l 2,12,13
 393 126 393 126 377.5 90 c 128,-1,14
 362 54 362 54 339.5 31.5 c 128,-1,15
 317 9 317 9 287 -1.5 c 128,-1,16
 257 -12 257 -12 218 -12 c 0,17,18
 139 -12 139 -12 98 27.5 c 128,-1,19
 57 67 57 67 57 141 c 0,20,21
 57 162 57 162 60 185 c 2,22,-1
 99 458 l 2,23,24
 109 528 109 528 113 580.5 c 128,-1,25
 117 633 117 633 119 683 c 1,26,-1
 204 683 l 1,27,28
 203 645 203 645 200.5 601 c 128,-1,29
 198 557 198 557 192 514 c 2,30,-1
 188 485 l 1,31,-1
 129 253 l 1,0,-1
302 424 m 0,32,33
 276 424 276 424 250.5 399 c 128,-1,34
 225 374 225 374 204 333.5 c 128,-1,35
 183 293 183 293 167 242.5 c 128,-1,36
 151 192 151 192 143 141 c 1,37,38
 142 101 142 101 162.5 80 c 128,-1,39
 183 59 183 59 218 59 c 0,40,41
 257 59 257 59 281 82 c 128,-1,42
 305 105 305 105 316 162 c 2,43,-1
 343 292 l 2,44,45
 347 309 347 309 348.5 324 c 128,-1,46
 350 339 350 339 350 351 c 0,47,48
 350 390 350 390 336 407 c 128,-1,49
 322 424 322 424 302 424 c 0,32,33
EndSplineSet
EndChar

StartChar: c
Encoding: 99 99 89
Width: 399
Flags: W
LayerCount: 2
Fore
SplineSet
196 -12 m 0,0,1
 126 -12 126 -12 88 25 c 128,-1,2
 50 62 50 62 50 132 c 0,3,4
 50 152 50 152 53 173 c 2,5,-1
 74 321 l 2,6,7
 88 415 88 415 134 457.5 c 128,-1,8
 180 500 180 500 258 500 c 0,9,10
 284 500 284 500 311 496 c 128,-1,11
 338 492 338 492 372 482 c 1,12,-1
 360 406 l 1,13,14
 301 428 301 428 257 428 c 0,15,16
 218 428 218 428 193 403.5 c 128,-1,17
 168 379 168 379 160 328 c 1,18,-1
 139 174 l 2,19,20
 137 165 137 165 137 157 c 2,21,-1
 137 142 l 2,22,23
 137 98 137 98 156 80.5 c 128,-1,24
 175 63 175 63 208 63 c 0,25,26
 236 63 236 63 266.5 71 c 128,-1,27
 297 79 297 79 326 96 c 1,28,-1
 317 19 l 1,29,30
 285 4 285 4 253.5 -4 c 128,-1,31
 222 -12 222 -12 196 -12 c 0,0,1
EndSplineSet
EndChar

StartChar: d
Encoding: 100 100 90
Width: 493
Flags: W
LayerCount: 2
Fore
SplineSet
78 331 m 2,0,1
 92 418 92 418 135 459 c 128,-1,2
 178 500 178 500 237 500 c 0,3,4
 270 500 270 500 300.5 484.5 c 128,-1,5
 331 469 331 469 355 443 c 1,6,-1
 388 683 l 1,7,-1
 473 683 l 1,8,-1
 378 0 l 1,9,-1
 297 0 l 1,10,-1
 306 65 l 1,11,-1
 347 190 l 1,12,-1
 345 192 l 1,13,-1
 342 191 l 1,14,15
 306 83 306 83 259 35.5 c 128,-1,16
 212 -12 212 -12 158 -12 c 0,17,18
 110 -12 110 -12 78.5 21 c 128,-1,19
 47 54 47 54 47 118 c 0,20,21
 47 129 47 129 48 140.5 c 128,-1,22
 49 152 49 152 51 164 c 2,23,-1
 78 331 l 2,0,1
182 64 m 0,24,25
 212 64 212 64 237.5 85.5 c 128,-1,26
 263 107 263 107 283 140 c 128,-1,27
 303 173 303 173 315.5 211.5 c 128,-1,28
 328 250 328 250 333 284 c 2,29,-1
 345 374 l 1,30,31
 325 398 325 398 300.5 411 c 128,-1,32
 276 424 276 424 250 424 c 0,33,34
 216 424 216 424 193.5 401 c 128,-1,35
 171 378 171 378 162 322 c 2,36,-1
 138 175 l 2,37,38
 136 161 136 161 134.5 149 c 128,-1,39
 133 137 133 137 133 127 c 0,40,41
 133 92 133 92 146 78 c 128,-1,42
 159 64 159 64 182 64 c 0,24,25
EndSplineSet
EndChar

StartChar: e
Encoding: 101 101 91
Width: 467
Flags: W
LayerCount: 2
Fore
SplineSet
414 375 m 0,0,1
 414 338 414 338 398.5 304.5 c 128,-1,2
 383 271 383 271 349.5 244 c 128,-1,3
 316 217 316 217 263.5 198 c 128,-1,4
 211 179 211 179 136 173 c 1,5,-1
 134 159 l 2,6,7
 131 142 131 142 131 130 c 0,8,9
 131 93 131 93 151 78 c 128,-1,10
 171 63 171 63 211 63 c 0,11,12
 240 63 240 63 277.5 73.5 c 128,-1,13
 315 84 315 84 349 101 c 1,14,-1
 334 23 l 1,15,16
 300 7 300 7 261.5 -2.5 c 128,-1,17
 223 -12 223 -12 193 -12 c 0,18,19
 121 -12 121 -12 85.5 27 c 128,-1,20
 50 66 50 66 50 135 c 0,21,22
 50 155 50 155 53 179 c 2,23,-1
 66 268 l 2,24,25
 75 326 75 326 93.5 369.5 c 128,-1,26
 112 413 112 413 139 442 c 128,-1,27
 166 471 166 471 200 485.5 c 128,-1,28
 234 500 234 500 272 500 c 0,29,30
 341 500 341 500 378 466.5 c 128,-1,31
 415 433 415 433 414 375 c 0,0,1
145 227 m 1,32,33
 211 237 211 237 253 254 c 1,34,35
 294 282 294 282 312 309 c 128,-1,36
 330 336 330 336 330 367 c 0,37,38
 330 397 330 397 313 413 c 128,-1,39
 296 429 296 429 269 429 c 0,40,41
 231 429 231 429 197.5 390.5 c 128,-1,42
 164 352 164 352 152 272 c 2,43,-1
 145 227 l 1,32,33
EndSplineSet
EndChar

StartChar: f
Encoding: 102 102 92
Width: 333
Flags: W
LayerCount: 2
Fore
SplineSet
123 418 m 1,0,-1
 49 418 l 1,1,-1
 56 468 l 1,2,-1
 132 482 l 1,3,-1
 140 539 l 2,4,5
 151 620 151 620 192 657.5 c 128,-1,6
 233 695 233 695 302 695 c 0,7,8
 319 695 319 695 341 692 c 128,-1,9
 363 689 363 689 379 684 c 1,10,-1
 370 614 l 1,11,12
 351 619 351 619 331 622.5 c 128,-1,13
 311 626 311 626 297 626 c 0,14,15
 268 626 268 626 250.5 608.5 c 128,-1,16
 233 591 233 591 226 544 c 2,17,-1
 218 488 l 1,18,-1
 308 488 l 1,19,-1
 298 418 l 1,20,-1
 208 418 l 1,21,-1
 146 -32 l 2,22,23
 134 -120 134 -120 99.5 -158.5 c 128,-1,24
 65 -197 65 -197 0 -197 c 0,25,26
 -20 -197 -20 -197 -45.5 -192.5 c 128,-1,27
 -71 -188 -71 -188 -88 -183 c 1,28,-1
 -78 -112 l 1,29,30
 -41 -125 -41 -125 -6 -125 c 0,31,32
 22 -125 22 -125 37.5 -106.5 c 128,-1,33
 53 -88 53 -88 60 -37 c 2,34,-1
 123 418 l 1,0,-1
EndSplineSet
EndChar

StartChar: g
Encoding: 103 103 93
Width: 502
Flags: W
LayerCount: 2
Fore
SplineSet
79 327 m 2,0,1
 93 415 93 415 137 457.5 c 128,-1,2
 181 500 181 500 241 500 c 0,3,4
 276 500 276 500 307 483.5 c 128,-1,5
 338 467 338 467 362 438 c 1,6,-1
 369 488 l 1,7,-1
 449 488 l 1,8,-1
 375 -36 l 2,9,10
 363 -121 363 -121 320 -159 c 128,-1,11
 277 -197 277 -197 190 -197 c 0,12,13
 159 -197 159 -197 119.5 -191 c 128,-1,14
 80 -185 80 -185 47 -175 c 1,15,-1
 57 -100 l 1,16,17
 90 -111 90 -111 127 -117.5 c 128,-1,18
 164 -124 164 -124 193 -124 c 0,19,20
 240 -124 240 -124 261 -104.5 c 128,-1,21
 282 -85 282 -85 289 -43 c 2,22,-1
 300 28 l 1,23,-1
 350 190 l 1,24,-1
 348 192 l 1,25,-1
 345 191 l 1,26,27
 308 83 308 83 261.5 35.5 c 128,-1,28
 215 -12 215 -12 160 -12 c 0,29,30
 112 -12 112 -12 80.5 21 c 128,-1,31
 49 54 49 54 49 118 c 0,32,33
 49 129 49 129 50 140.5 c 128,-1,34
 51 152 51 152 53 164 c 2,35,-1
 79 327 l 2,0,1
184 64 m 0,36,37
 216 64 216 64 242.5 88.5 c 128,-1,38
 269 113 269 113 288.5 150 c 128,-1,39
 308 187 308 187 321 228.5 c 128,-1,40
 334 270 334 270 339 305 c 2,41,-1
 349 372 l 1,42,43
 329 398 329 398 303.5 412.5 c 128,-1,44
 278 427 278 427 252 427 c 0,45,46
 219 427 219 427 196 402.5 c 128,-1,47
 173 378 173 378 164 322 c 2,48,-1
 140 175 l 2,49,50
 138 161 138 161 136.5 149 c 128,-1,51
 135 137 135 137 135 127 c 0,52,53
 135 92 135 92 148 78 c 128,-1,54
 161 64 161 64 184 64 c 0,36,37
EndSplineSet
EndChar

StartChar: h
Encoding: 104 104 94
Width: 495
Flags: W
LayerCount: 2
Fore
SplineSet
99 458 m 2,0,1
 109 528 109 528 113 580.5 c 128,-1,2
 117 633 117 633 119 683 c 1,3,-1
 204 683 l 1,4,5
 203 645 203 645 200.5 601 c 128,-1,6
 198 557 198 557 192 514 c 2,7,-1
 188 485 l 1,8,-1
 127 240 l 1,9,-1
 130 238 l 1,10,-1
 133 240 l 1,11,12
 168 370 168 370 220 435 c 128,-1,13
 272 500 272 500 332 500 c 0,14,15
 381 500 381 500 407.5 472.5 c 128,-1,16
 434 445 434 445 434 379 c 0,17,18
 434 365 434 365 433 349.5 c 128,-1,19
 432 334 432 334 429 316 c 2,20,-1
 381 0 l 1,21,-1
 296 0 l 1,22,-1
 346 318 l 2,23,24
 348 332 348 332 349 343 c 128,-1,25
 350 354 350 354 350 364 c 0,26,27
 350 396 350 396 339 408.5 c 128,-1,28
 328 421 328 421 309 421 c 0,29,30
 283 421 283 421 255 393.5 c 128,-1,31
 227 366 227 366 202 315.5 c 128,-1,32
 177 265 177 265 156.5 192.5 c 128,-1,33
 136 120 136 120 124 30 c 2,34,-1
 120 0 l 1,35,-1
 35 0 l 1,36,-1
 99 458 l 2,0,1
EndSplineSet
EndChar

StartChar: i
Encoding: 105 105 95
Width: 245
Flags: W
LayerCount: 2
Fore
SplineSet
40 0 m 1,0,-1
 108 488 l 1,1,-1
 193 488 l 1,2,-1
 125 0 l 1,3,-1
 40 0 l 1,0,-1
225 617 m 2,4,5
 219 575 219 575 167 575 c 0,6,7
 141 575 141 575 126 588 c 128,-1,8
 111 601 111 601 114 623 c 2,9,-1
 118 652 l 2,10,11
 124 695 124 695 176 695 c 0,12,13
 203 695 203 695 217.5 682 c 128,-1,14
 232 669 232 669 229 646 c 2,15,-1
 225 617 l 2,4,5
EndSplineSet
EndChar

StartChar: j
Encoding: 106 106 96
Width: 235
Flags: W
LayerCount: 2
Fore
SplineSet
112 -51 m 2,0,1
 101 -128 101 -128 66 -162.5 c 128,-1,2
 31 -197 31 -197 -38 -197 c 0,3,4
 -58 -197 -58 -197 -81.5 -193.5 c 128,-1,5
 -105 -190 -105 -190 -119 -185 c 1,6,-1
 -109 -112 l 1,7,8
 -97 -117 -97 -117 -76.5 -120.5 c 128,-1,9
 -56 -124 -56 -124 -37 -124 c 0,10,11
 -7 -124 -7 -124 7 -110 c 128,-1,12
 21 -96 21 -96 26 -59 c 2,13,-1
 103 488 l 1,14,-1
 188 488 l 1,15,-1
 112 -51 l 2,0,1
220 617 m 2,16,17
 214 575 214 575 162 575 c 0,18,19
 136 575 136 575 121 588 c 128,-1,20
 106 601 106 601 109 623 c 2,21,-1
 113 652 l 2,22,23
 119 695 119 695 171 695 c 0,24,25
 198 695 198 695 212.5 682 c 128,-1,26
 227 669 227 669 224 646 c 2,27,-1
 220 617 l 2,16,17
EndSplineSet
EndChar

StartChar: k
Encoding: 107 107 97
Width: 464
Flags: W
LayerCount: 2
Fore
SplineSet
127 240 m 1,0,-1
 130 238 l 1,1,-1
 132 239 l 1,2,3
 145 289 145 289 163.5 336 c 128,-1,4
 182 383 182 383 205.5 419.5 c 128,-1,5
 229 456 229 456 258.5 478 c 128,-1,6
 288 500 288 500 324 500 c 0,7,8
 367 500 367 500 395.5 470.5 c 128,-1,9
 424 441 424 441 423 392 c 0,10,11
 422 334 422 334 385.5 285.5 c 128,-1,12
 349 237 349 237 273 209 c 1,13,-1
 383 0 l 1,14,-1
 289 0 l 1,15,16
 260 65 260 65 234 118.5 c 128,-1,17
 208 172 208 172 179 229 c 1,18,19
 222 236 222 236 252.5 252 c 128,-1,20
 283 268 283 268 302.5 289 c 128,-1,21
 322 310 322 310 330.5 334 c 128,-1,22
 339 358 339 358 339 381 c 256,23,24
 339 404 339 404 328 416.5 c 128,-1,25
 317 429 317 429 299 429 c 0,26,27
 272 429 272 429 245.5 397 c 128,-1,28
 219 365 219 365 196.5 315.5 c 128,-1,29
 174 266 174 266 157 207 c 128,-1,30
 140 148 140 148 133 94 c 2,31,-1
 120 0 l 1,32,-1
 35 0 l 1,33,-1
 99 458 l 2,34,35
 109 528 109 528 113 580.5 c 128,-1,36
 117 633 117 633 119 683 c 1,37,-1
 204 683 l 1,38,39
 203 645 203 645 200.5 601 c 128,-1,40
 198 557 198 557 192 514 c 2,41,-1
 188 485 l 1,42,-1
 127 240 l 1,0,-1
EndSplineSet
EndChar

StartChar: l
Encoding: 108 108 98
Width: 235
Flags: W
LayerCount: 2
Fore
SplineSet
99 458 m 2,0,1
 109 528 109 528 113 580.5 c 128,-1,2
 117 633 117 633 119 683 c 1,3,-1
 204 683 l 1,4,5
 203 645 203 645 199.5 592 c 128,-1,6
 196 539 196 539 185 464 c 2,7,-1
 120 0 l 1,8,-1
 35 0 l 1,9,-1
 99 458 l 2,0,1
EndSplineSet
EndChar

StartChar: m
Encoding: 109 109 99
Width: 746
Flags: W
LayerCount: 2
Fore
SplineSet
35 0 m 1,0,-1
 103 488 l 1,1,-1
 183 488 l 1,2,-1
 172 409 l 1,3,-1
 127 240 l 1,4,-1
 130 238 l 1,5,-1
 133 240 l 1,6,7
 168 370 168 370 219 435 c 128,-1,8
 270 500 270 500 327 500 c 0,9,10
 373 500 373 500 399 474.5 c 128,-1,11
 425 449 425 449 427 392 c 1,12,-1
 383 240 l 1,13,-1
 386 238 l 1,14,-1
 389 240 l 1,15,16
 424 370 424 370 475 435 c 128,-1,17
 526 500 526 500 583 500 c 0,18,19
 632 500 632 500 658.5 472.5 c 128,-1,20
 685 445 685 445 685 379 c 0,21,22
 685 365 685 365 684 349.5 c 128,-1,23
 683 334 683 334 680 316 c 2,24,-1
 632 0 l 1,25,-1
 547 0 l 1,26,-1
 596 313 l 2,27,28
 598 330 598 330 599.5 342.5 c 128,-1,29
 601 355 601 355 601 366 c 0,30,31
 601 398 601 398 590.5 409.5 c 128,-1,32
 580 421 580 421 561 421 c 0,33,34
 538 421 538 421 511.5 395 c 128,-1,35
 485 369 485 369 460 319.5 c 128,-1,36
 435 270 435 270 414 196.5 c 128,-1,37
 393 123 393 123 380 29 c 2,38,-1
 376 0 l 1,39,-1
 291 0 l 1,40,-1
 340 313 l 2,41,42
 342 330 342 330 343.5 342.5 c 128,-1,43
 345 355 345 355 345 366 c 0,44,45
 345 398 345 398 334.5 409.5 c 128,-1,46
 324 421 324 421 305 421 c 0,47,48
 280 421 280 421 253 393.5 c 128,-1,49
 226 366 226 366 201.5 315.5 c 128,-1,50
 177 265 177 265 156.5 192.5 c 128,-1,51
 136 120 136 120 124 30 c 2,52,-1
 120 0 l 1,53,-1
 35 0 l 1,0,-1
EndSplineSet
EndChar

StartChar: n
Encoding: 110 110 100
Width: 495
Flags: W
LayerCount: 2
Fore
SplineSet
35 0 m 1,0,-1
 103 488 l 1,1,-1
 183 488 l 1,2,-1
 172 409 l 1,3,-1
 127 240 l 1,4,-1
 130 238 l 1,5,-1
 133 240 l 1,6,7
 168 370 168 370 220 435 c 128,-1,8
 272 500 272 500 332 500 c 0,9,10
 381 500 381 500 407.5 472.5 c 128,-1,11
 434 445 434 445 434 379 c 0,12,13
 434 365 434 365 433 349.5 c 128,-1,14
 432 334 432 334 429 316 c 2,15,-1
 381 0 l 1,16,-1
 296 0 l 1,17,-1
 346 318 l 2,18,19
 348 332 348 332 349 343 c 128,-1,20
 350 354 350 354 350 364 c 0,21,22
 350 396 350 396 339 408.5 c 128,-1,23
 328 421 328 421 309 421 c 0,24,25
 283 421 283 421 255 393.5 c 128,-1,26
 227 366 227 366 202 315.5 c 128,-1,27
 177 265 177 265 156.5 192.5 c 128,-1,28
 136 120 136 120 124 30 c 2,29,-1
 120 0 l 1,30,-1
 35 0 l 1,0,-1
EndSplineSet
EndChar

StartChar: o
Encoding: 111 111 101
Width: 492
Flags: W
LayerCount: 2
Fore
SplineSet
342 322 m 2,0,1
 343 328 343 328 343.5 334 c 128,-1,2
 344 340 344 340 344 345 c 0,3,4
 344 386 344 386 322 407.5 c 128,-1,5
 300 429 300 429 262 429 c 0,6,7
 220 429 220 429 194 405 c 128,-1,8
 168 381 168 381 160 327 c 2,9,-1
 137 165 l 2,10,11
 136 159 136 159 135.5 153.5 c 128,-1,12
 135 148 135 148 135 143 c 0,13,14
 135 102 135 102 157.5 80.5 c 128,-1,15
 180 59 180 59 218 59 c 0,16,17
 262 59 262 59 286.5 83.5 c 128,-1,18
 311 108 311 108 319 161 c 2,19,-1
 342 322 l 2,0,1
407 176 m 2,20,21
 395 87 395 87 346 37.5 c 128,-1,22
 297 -12 297 -12 215 -12 c 0,23,24
 131 -12 131 -12 90.5 26.5 c 128,-1,25
 50 65 50 65 50 134 c 0,26,27
 50 152 50 152 53 172 c 2,28,-1
 73 316 l 2,29,30
 85 405 85 405 135 452.5 c 128,-1,31
 185 500 185 500 266 500 c 0,32,33
 348 500 348 500 388.5 461 c 128,-1,34
 429 422 429 422 429 353 c 0,35,36
 429 334 429 334 426 315 c 2,37,-1
 407 176 l 2,20,21
EndSplineSet
EndChar

StartChar: p
Encoding: 112 112 102
Width: 489
Flags: W
LayerCount: 2
Fore
SplineSet
399 148 m 2,0,1
 369 -12 369 -12 242 -12 c 0,2,3
 212 -12 212 -12 180 1.5 c 128,-1,4
 148 15 148 15 124 38 c 1,5,6
 113 -25 113 -25 101 -82.5 c 128,-1,7
 89 -140 89 -140 77 -185 c 1,8,-1
 -7 -185 l 1,9,10
 7 -129 7 -129 21.5 -55 c 128,-1,11
 36 19 36 19 47 97 c 2,12,-1
 103 488 l 1,13,-1
 183 488 l 1,14,-1
 175 430 l 1,15,-1
 129 254 l 1,16,-1
 131 252 l 1,17,-1
 134 254 l 1,18,19
 169 374 169 374 214 437 c 128,-1,20
 259 500 259 500 321 500 c 0,21,22
 372 500 372 500 403 466 c 128,-1,23
 434 432 434 432 434 363 c 0,24,25
 434 348 434 348 432 331.5 c 128,-1,26
 430 315 430 315 427 297 c 2,27,-1
 399 148 l 2,0,1
301 424 m 0,28,29
 275 424 275 424 249.5 399 c 128,-1,30
 224 374 224 374 202 334 c 128,-1,31
 180 294 180 294 163.5 244 c 128,-1,32
 147 194 147 194 140 145 c 2,33,-1
 133 99 l 1,34,35
 153 82 153 82 177 72.5 c 128,-1,36
 201 63 201 63 221 63 c 0,37,38
 258 63 258 63 281.5 85.5 c 128,-1,39
 305 108 305 108 316 160 c 2,40,-1
 342 292 l 2,41,42
 348 325 348 325 348 349 c 0,43,44
 348 389 348 389 334.5 406.5 c 128,-1,45
 321 424 321 424 301 424 c 0,28,29
EndSplineSet
EndChar

StartChar: q
Encoding: 113 113 103
Width: 492
Flags: W
LayerCount: 2
Fore
SplineSet
77 327 m 2,0,1
 91 415 91 415 135 457.5 c 128,-1,2
 179 500 179 500 239 500 c 0,3,4
 274 500 274 500 304.5 483.5 c 128,-1,5
 335 467 335 467 359 439 c 1,6,-1
 366 488 l 1,7,-1
 446 488 l 1,8,-1
 351 -185 l 1,9,-1
 266 -185 l 1,10,-1
 297 28 l 1,11,-1
 347 190 l 1,12,-1
 345 192 l 1,13,-1
 342 191 l 1,14,15
 306 83 306 83 259 35.5 c 128,-1,16
 212 -12 212 -12 158 -12 c 0,17,18
 110 -12 110 -12 78.5 21 c 128,-1,19
 47 54 47 54 47 118 c 0,20,21
 47 129 47 129 48 140.5 c 128,-1,22
 49 152 49 152 51 164 c 2,23,-1
 77 327 l 2,0,1
182 64 m 0,24,25
 212 64 212 64 237.5 86 c 128,-1,26
 263 108 263 108 282.5 141 c 128,-1,27
 302 174 302 174 315 213 c 128,-1,28
 328 252 328 252 333 286 c 2,29,-1
 346 373 l 1,30,31
 326 399 326 399 301 413 c 128,-1,32
 276 427 276 427 250 427 c 0,33,34
 217 427 217 427 194 402.5 c 128,-1,35
 171 378 171 378 162 322 c 2,36,-1
 138 175 l 2,37,38
 136 161 136 161 134.5 149 c 128,-1,39
 133 137 133 137 133 127 c 0,40,41
 133 92 133 92 146 78 c 128,-1,42
 159 64 159 64 182 64 c 0,24,25
EndSplineSet
EndChar

StartChar: r
Encoding: 114 114 104
Width: 345
Flags: W
LayerCount: 2
Fore
SplineSet
35 0 m 1,0,-1
 103 488 l 1,1,-1
 183 488 l 1,2,-1
 172 409 l 1,3,-1
 127 240 l 1,4,-1
 130 238 l 1,5,-1
 133 240 l 1,6,7
 168 370 168 370 218 435 c 128,-1,8
 268 500 268 500 323 500 c 0,9,10
 331 500 331 500 339 498 c 1,11,-1
 323 391 l 1,12,13
 311 394 311 394 297 394 c 0,14,15
 267 394 267 394 240 368 c 128,-1,16
 213 342 213 342 191 294.5 c 128,-1,17
 169 247 169 247 152 179.5 c 128,-1,18
 135 112 135 112 124 30 c 2,19,-1
 120 0 l 1,20,-1
 35 0 l 1,0,-1
EndSplineSet
EndChar

StartChar: s
Encoding: 115 115 105
Width: 378
Flags: W
LayerCount: 2
Fore
SplineSet
128 236 m 2,0,1
 88 255 88 255 69 285 c 128,-1,2
 50 315 50 315 50 352 c 0,3,4
 50 366 50 366 53 381 c 2,5,-1
 56 397 l 2,6,7
 65 447 65 447 103 473.5 c 128,-1,8
 141 500 141 500 214 500 c 0,9,10
 239 500 239 500 270.5 494.5 c 128,-1,11
 302 489 302 489 334 480 c 1,12,-1
 322 403 l 1,13,14
 302 411 302 411 281 418 c 128,-1,15
 260 425 260 425 243 429 c 0,16,17
 235 430 235 430 224.5 430.5 c 128,-1,18
 214 431 214 431 207 431 c 0,19,20
 175 431 175 431 156.5 417.5 c 128,-1,21
 138 404 138 404 134 380 c 2,22,-1
 133 374 l 2,23,24
 132 370 132 370 132 362 c 0,25,26
 132 344 132 344 141.5 329 c 128,-1,27
 151 314 151 314 171 305 c 2,28,-1
 253 267 l 2,29,30
 291 250 291 250 309.5 220.5 c 128,-1,31
 328 191 328 191 328 153 c 2,32,-1
 328 143 l 2,33,34
 328 138 328 138 327 133 c 2,35,-1
 325 117 l 2,36,37
 318 60 318 60 277 24 c 128,-1,38
 236 -12 236 -12 164 -12 c 0,39,40
 129 -12 129 -12 88.5 -1.5 c 128,-1,41
 48 9 48 9 16 26 c 1,42,-1
 29 103 l 1,43,44
 49 92 49 92 77 80.5 c 128,-1,45
 105 69 105 69 125 63 c 1,46,47
 149 60 149 60 164 60 c 0,48,49
 233 60 233 60 243 124 c 2,50,-1
 244 130 l 2,51,52
 245 134 245 134 245 142 c 0,53,54
 245 159 245 159 236 174.5 c 128,-1,55
 227 190 227 190 208 199 c 2,56,-1
 128 236 l 2,0,1
EndSplineSet
EndChar

StartChar: t
Encoding: 116 116 106
Width: 343
Flags: W
LayerCount: 2
Fore
SplineSet
104 418 m 1,0,-1
 33 418 l 1,1,-1
 40 468 l 1,2,-1
 120 483 l 1,3,-1
 166 618 l 1,4,-1
 216 618 l 1,5,-1
 198 488 l 1,6,-1
 328 488 l 1,7,-1
 318 418 l 1,8,-1
 188 418 l 1,9,-1
 148 132 l 2,10,11
 147 127 147 127 147 122 c 2,12,-1
 147 112 l 2,13,14
 147 85 147 85 159.5 73 c 128,-1,15
 172 61 172 61 197 61 c 0,16,17
 217 61 217 61 243.5 68 c 128,-1,18
 270 75 270 75 287 83 c 1,19,-1
 277 10 l 1,20,21
 260 2 260 2 233 -5 c 128,-1,22
 206 -12 206 -12 185 -12 c 0,23,24
 123 -12 123 -12 92 13.5 c 128,-1,25
 61 39 61 39 61 99 c 0,26,27
 61 118 61 118 64 139 c 2,28,-1
 104 418 l 1,0,-1
EndSplineSet
EndChar

StartChar: u
Encoding: 117 117 107
Width: 498
Flags: W
LayerCount: 2
Fore
SplineSet
189 488 m 1,0,-1
 143 175 l 2,1,2
 141 161 141 161 140 149.5 c 128,-1,3
 139 138 139 138 139 128 c 0,4,5
 139 92 139 92 151.5 78 c 128,-1,6
 164 64 164 64 187 64 c 0,7,8
 215 64 215 64 240 84 c 128,-1,9
 265 104 265 104 285 139.5 c 128,-1,10
 305 175 305 175 319.5 224.5 c 128,-1,11
 334 274 334 274 343 334 c 2,12,-1
 365 488 l 1,13,-1
 451 488 l 1,14,-1
 382 0 l 1,15,-1
 302 0 l 1,16,-1
 306 28 l 1,17,-1
 352 190 l 1,18,-1
 350 192 l 1,19,-1
 347 191 l 1,20,21
 311 83 311 83 264 35.5 c 128,-1,22
 217 -12 217 -12 163 -12 c 0,23,24
 112 -12 112 -12 82.5 21 c 128,-1,25
 53 54 53 54 53 119 c 0,26,27
 53 130 53 130 54 141 c 128,-1,28
 55 152 55 152 57 165 c 2,29,-1
 104 488 l 1,30,-1
 189 488 l 1,0,-1
EndSplineSet
EndChar

StartChar: v
Encoding: 118 118 108
Width: 442
Flags: W
LayerCount: 2
Fore
SplineSet
184 65 m 1,0,-1
 187 67 l 1,1,2
 217 131 217 131 238.5 179.5 c 128,-1,3
 260 228 260 228 279 274 c 128,-1,4
 298 320 298 320 317.5 370 c 128,-1,5
 337 420 337 420 362 488 c 1,6,-1
 455 488 l 1,7,-1
 235 0 l 1,8,-1
 126 0 l 1,9,-1
 43 488 l 1,10,-1
 126 488 l 1,11,12
 145 375 145 375 158.5 273.5 c 128,-1,13
 172 172 172 172 182 67 c 1,14,-1
 184 65 l 1,0,-1
EndSplineSet
EndChar

StartChar: w
Encoding: 119 119 109
Width: 688
Flags: W
LayerCount: 2
Fore
SplineSet
467 73 m 1,0,-1
 470 75 l 1,1,2
 508 178 508 178 540 280.5 c 128,-1,3
 572 383 572 383 601 488 c 1,4,-1
 691 488 l 1,5,-1
 513 0 l 1,6,-1
 404 0 l 1,7,-1
 362 414 l 1,8,-1
 202 0 l 1,9,-1
 94 0 l 1,10,-1
 53 488 l 1,11,-1
 140 488 l 1,12,13
 148 394 148 394 151.5 301.5 c 128,-1,14
 155 209 155 209 155 115 c 2,15,-1
 155 75 l 1,16,-1
 158 73 l 1,17,-1
 160 75 l 1,18,19
 203 178 203 178 240.5 280.5 c 128,-1,20
 278 383 278 383 313 488 c 1,21,-1
 428 488 l 1,22,23
 443 385 443 385 451.5 282.5 c 128,-1,24
 460 180 460 180 465 75 c 1,25,-1
 467 73 l 1,0,-1
EndSplineSet
EndChar

StartChar: x
Encoding: 120 120 110
Width: 461
Flags: W
LayerCount: 2
Fore
SplineSet
221 191 m 1,0,-1
 218 189 l 1,1,2
 183 137 183 137 149.5 88.5 c 128,-1,3
 116 40 116 40 87 0 c 1,4,-1
 -15 0 l 1,5,-1
 171 252 l 1,6,-1
 63 488 l 1,7,-1
 157 488 l 1,8,9
 177 444 177 444 194.5 402 c 128,-1,10
 212 360 212 360 230 315 c 1,11,-1
 232 313 l 1,12,-1
 235 315 l 1,13,14
 266 358 266 358 294.5 400.5 c 128,-1,15
 323 443 323 443 352 488 c 1,16,-1
 453 488 l 1,17,-1
 279 252 l 1,18,-1
 396 0 l 1,19,-1
 304 0 l 1,20,21
 284 53 284 53 265 97 c 128,-1,22
 246 141 246 141 223 189 c 1,23,-1
 221 191 l 1,0,-1
EndSplineSet
EndChar

StartChar: y
Encoding: 121 121 111
Width: 502
Flags: W
LayerCount: 2
Fore
SplineSet
354 192 m 1,0,-1
 351 191 l 1,1,2
 315 83 315 83 268 35.5 c 128,-1,3
 221 -12 221 -12 167 -12 c 0,4,5
 116 -12 116 -12 86.5 21 c 128,-1,6
 57 54 57 54 57 119 c 0,7,8
 57 130 57 130 58 141 c 128,-1,9
 59 152 59 152 61 165 c 2,10,-1
 108 488 l 1,11,-1
 193 488 l 1,12,-1
 147 175 l 2,13,14
 145 161 145 161 144 149.5 c 128,-1,15
 143 138 143 138 143 128 c 0,16,17
 143 92 143 92 155.5 78 c 128,-1,18
 168 64 168 64 191 64 c 0,19,20
 221 64 221 64 246 85 c 128,-1,21
 271 106 271 106 290.5 143 c 128,-1,22
 310 180 310 180 324.5 229.5 c 128,-1,23
 339 279 339 279 347 335 c 2,24,-1
 369 488 l 1,25,-1
 455 488 l 1,26,-1
 381 -36 l 2,27,28
 369 -122 369 -122 326 -159.5 c 128,-1,29
 283 -197 283 -197 196 -197 c 0,30,31
 165 -197 165 -197 125.5 -191 c 128,-1,32
 86 -185 86 -185 53 -175 c 1,33,-1
 63 -100 l 1,34,35
 96 -111 96 -111 133 -117.5 c 128,-1,36
 170 -124 170 -124 199 -124 c 0,37,38
 247 -124 247 -124 268 -104 c 128,-1,39
 289 -84 289 -84 295 -43 c 2,40,-1
 306 28 l 1,41,-1
 356 190 l 1,42,-1
 354 192 l 1,0,-1
EndSplineSet
EndChar

StartChar: z
Encoding: 122 122 112
Width: 426
Flags: W
LayerCount: 2
Fore
SplineSet
331 0 m 1,0,-1
 5 0 l 1,1,-1
 14 65 l 1,2,-1
 278 413 l 1,3,-1
 68 413 l 1,4,-1
 78 488 l 1,5,-1
 399 488 l 1,6,-1
 390 423 l 1,7,8
 314 338 314 338 244.5 247.5 c 128,-1,9
 175 157 175 157 120 75 c 1,10,-1
 341 75 l 1,11,-1
 331 0 l 1,0,-1
EndSplineSet
EndChar

StartChar: braceleft
Encoding: 123 123 113
Width: 520
Flags: W
LayerCount: 2
Fore
SplineSet
198 219 m 2,0,1
 201 235 201 235 201 249 c 0,2,3
 201 277 201 277 187.5 288 c 128,-1,4
 174 299 174 299 145 299 c 2,5,-1
 120 299 l 1,6,-1
 129 369 l 1,7,-1
 154 369 l 2,8,9
 190 369 190 369 207 385.5 c 128,-1,10
 224 402 224 402 231 449 c 2,11,-1
 254 616 l 2,12,13
 261 664 261 664 270 696.5 c 128,-1,14
 279 729 279 729 293.5 749 c 128,-1,15
 308 769 308 769 330.5 777.5 c 128,-1,16
 353 786 353 786 387 786 c 0,17,18
 401 786 401 786 416 784.5 c 128,-1,19
 431 783 431 783 449 781 c 1,20,-1
 439 709 l 1,21,22
 425 711 425 711 414.5 712 c 128,-1,23
 404 713 404 713 396 713 c 0,24,25
 383 713 383 713 374 709.5 c 128,-1,26
 365 706 365 706 359 697 c 128,-1,27
 353 688 353 688 349 673 c 128,-1,28
 345 658 345 658 342 635 c 2,29,-1
 316 449 l 2,30,31
 308 398 308 398 290.5 371 c 128,-1,32
 273 344 273 344 241 334 c 1,33,34
 264 326 264 326 275 308 c 128,-1,35
 286 290 286 290 286 258 c 0,36,37
 286 241 286 241 283 219 c 2,38,-1
 258 40 l 2,39,40
 255 17 255 17 255 1 c 0,41,42
 255 -30 255 -30 271.5 -39.5 c 128,-1,43
 288 -49 288 -49 332 -49 c 1,44,-1
 322 -119 l 1,45,46
 279 -119 279 -119 250 -114.5 c 128,-1,47
 221 -110 221 -110 203 -98 c 128,-1,48
 185 -86 185 -86 177 -66 c 128,-1,49
 169 -46 169 -46 169 -14 c 0,50,51
 169 2 169 2 171 20.5 c 128,-1,52
 173 39 173 39 176 61 c 2,53,-1
 198 219 l 2,0,1
EndSplineSet
EndChar

StartChar: bar
Encoding: 124 124 114
Width: 520
Flags: W
LayerCount: 2
Fore
SplineSet
161 -112 m 1,0,-1
 289 798 l 1,1,-1
 374 798 l 1,2,-1
 246 -112 l 1,3,-1
 161 -112 l 1,0,-1
EndSplineSet
EndChar

StartChar: braceright
Encoding: 125 125 115
Width: 520
Flags: W
LayerCount: 2
Fore
SplineSet
334 448 m 2,0,1
 331 431 331 431 331 418 c 0,2,3
 331 390 331 390 344.5 379 c 128,-1,4
 358 368 358 368 387 368 c 2,5,-1
 412 368 l 1,6,-1
 403 298 l 1,7,-1
 378 298 l 2,8,9
 342 298 342 298 325 281.5 c 128,-1,10
 308 265 308 265 301 218 c 2,11,-1
 278 51 l 2,12,13
 271 3 271 3 262 -29.5 c 128,-1,14
 253 -62 253 -62 238.5 -82 c 128,-1,15
 224 -102 224 -102 201.5 -110.5 c 128,-1,16
 179 -119 179 -119 145 -119 c 0,17,18
 131 -119 131 -119 116 -117.5 c 128,-1,19
 101 -116 101 -116 83 -114 c 1,20,-1
 93 -42 l 1,21,22
 107 -44 107 -44 117.5 -45 c 128,-1,23
 128 -46 128 -46 136 -46 c 0,24,25
 149 -46 149 -46 158 -42.5 c 128,-1,26
 167 -39 167 -39 173 -30 c 128,-1,27
 179 -21 179 -21 183 -6 c 128,-1,28
 187 9 187 9 190 32 c 2,29,-1
 216 218 l 2,30,31
 224 269 224 269 241.5 296 c 128,-1,32
 259 323 259 323 291 333 c 1,33,34
 268 341 268 341 257 359 c 128,-1,35
 246 377 246 377 246 409 c 0,36,37
 246 425 246 425 249 448 c 2,38,-1
 274 627 l 2,39,40
 277 649 277 649 277 666 c 0,41,42
 277 697 277 697 260.5 706.5 c 128,-1,43
 244 716 244 716 200 716 c 1,44,-1
 210 786 l 1,45,46
 253 786 253 786 282 781.5 c 128,-1,47
 311 777 311 777 329 765 c 128,-1,48
 347 753 347 753 355 732.5 c 128,-1,49
 363 712 363 712 363 681 c 0,50,51
 363 665 363 665 361 646.5 c 128,-1,52
 359 628 359 628 356 606 c 2,53,-1
 334 448 l 2,0,1
EndSplineSet
EndChar

StartChar: asciitilde
Encoding: 126 126 116
Width: 520
Flags: W
LayerCount: 2
Fore
SplineSet
436 279 m 1,0,1
 423 271 423 271 406 265 c 0,2,3
 392 260 392 260 373 255.5 c 128,-1,4
 354 251 354 251 332 251 c 0,5,6
 305 251 305 251 287.5 255.5 c 128,-1,7
 270 260 270 260 254.5 265 c 128,-1,8
 239 270 239 270 222 274.5 c 128,-1,9
 205 279 205 279 180 279 c 0,10,11
 166 279 166 279 148.5 275 c 128,-1,12
 131 271 131 271 115 266 c 0,13,14
 97 261 97 261 78 254 c 1,15,-1
 88 324 l 1,16,17
 101 332 101 332 118 338 c 0,18,19
 132 343 132 343 151 347.5 c 128,-1,20
 170 352 170 352 192 352 c 0,21,22
 219 352 219 352 236.5 347.5 c 128,-1,23
 254 343 254 343 270 338 c 128,-1,24
 286 333 286 333 302.5 328.5 c 128,-1,25
 319 324 319 324 344 324 c 0,26,27
 358 324 358 324 375.5 327.5 c 128,-1,28
 393 331 393 331 409 336 c 0,29,30
 427 341 427 341 446 349 c 1,31,-1
 436 279 l 1,0,1
EndSplineSet
EndChar

StartChar: cent
Encoding: 162 162 119
Width: 399
Flags: W
LayerCount: 2
Fore
SplineSet
146 -88 m 1,0,-1
 157 -8 l 1,1,2
 105 1 105 1 77.5 36 c 128,-1,3
 50 71 50 71 50 131 c 0,4,5
 50 150 50 150 53 173 c 2,6,-1
 74 321 l 2,7,8
 86 405 86 405 125 447.5 c 128,-1,9
 164 490 164 490 228 498 c 1,10,-1
 239 576 l 1,11,-1
 314 576 l 1,12,-1
 303 497 l 1,13,14
 319 495 319 495 335.5 491 c 128,-1,15
 352 487 352 487 372 482 c 1,16,-1
 360 406 l 1,17,18
 301 428 301 428 257 428 c 0,19,20
 218 428 218 428 193 403.5 c 128,-1,21
 168 379 168 379 160 328 c 1,22,-1
 139 174 l 2,23,24
 137 165 137 165 137 157 c 2,25,-1
 137 142 l 2,26,27
 137 98 137 98 156 80.5 c 128,-1,28
 175 63 175 63 208 63 c 0,29,30
 236 63 236 63 266.5 71 c 128,-1,31
 297 79 297 79 326 96 c 1,32,-1
 317 19 l 1,33,34
 274 -2 274 -2 232 -8 c 1,35,-1
 221 -88 l 1,36,-1
 146 -88 l 1,0,-1
EndSplineSet
EndChar

StartChar: sterling
Encoding: 163 163 120
Width: 520
Flags: W
LayerCount: 2
Fore
SplineSet
238 375 m 1,0,-1
 333 375 l 1,1,-1
 323 305 l 1,2,-1
 228 305 l 1,3,-1
 214 204 l 2,4,5
 210 176 210 176 205.5 156 c 128,-1,6
 201 136 201 136 194 121 c 128,-1,7
 187 106 187 106 177.5 95 c 128,-1,8
 168 84 168 84 155 74 c 1,9,-1
 418 74 l 1,10,-1
 408 0 l 1,11,-1
 61 0 l 1,12,-1
 69 60 l 1,13,14
 94 86 94 86 107 114 c 128,-1,15
 120 142 120 142 125 176 c 2,16,-1
 143 305 l 1,17,-1
 73 305 l 1,18,-1
 83 375 l 1,19,-1
 153 375 l 1,20,-1
 165 460 l 2,21,22
 176 540 176 540 216 576.5 c 128,-1,23
 256 613 256 613 333 613 c 0,24,25
 345 613 345 613 360 611.5 c 128,-1,26
 375 610 375 610 391 607.5 c 128,-1,27
 407 605 407 605 421.5 602 c 128,-1,28
 436 599 436 599 447 595 c 1,29,-1
 437 523 l 1,30,31
 416 531 416 531 388.5 537 c 128,-1,32
 361 543 361 543 336 543 c 0,33,34
 296 543 296 543 276 525.5 c 128,-1,35
 256 508 256 508 250 465 c 2,36,-1
 238 375 l 1,0,-1
EndSplineSet
EndChar

StartChar: currency
Encoding: 164 164 121
Width: 520
Flags: W
LayerCount: 2
Fore
SplineSet
392 93 m 1,0,-1
 338 156 l 1,1,2
 294 132 294 132 236 132 c 0,3,4
 179 132 179 132 142 154 c 1,5,-1
 74 93 l 1,6,-1
 25 149 l 1,7,-1
 96 210 l 1,8,9
 84 238 84 238 84 273 c 0,10,11
 84 280 84 280 84.5 287.5 c 128,-1,12
 85 295 85 295 86 303 c 2,13,-1
 89 323 l 2,14,15
 93 349 93 349 100 369.5 c 128,-1,16
 107 390 107 390 120 410 c 1,17,-1
 70 467 l 1,18,-1
 134 523 l 1,19,-1
 180 468 l 1,20,21
 227 494 227 494 287 494 c 0,22,23
 349 494 349 494 388 466 c 1,24,-1
 452 523 l 1,25,-1
 500 467 l 1,26,-1
 431 407 l 1,27,28
 435 395 435 395 437 383 c 128,-1,29
 439 371 439 371 439 357 c 0,30,31
 439 341 439 341 436 323 c 2,32,-1
 433 303 l 2,33,34
 429 275 429 275 421 254 c 128,-1,35
 413 233 413 233 399 213 c 1,36,-1
 455 149 l 1,37,-1
 392 93 l 1,0,-1
354 323 m 2,38,39
 355 329 355 329 355.5 335 c 128,-1,40
 356 341 356 341 356 346 c 0,41,42
 356 379 356 379 338 400 c 128,-1,43
 320 421 320 421 277 421 c 0,44,45
 227 421 227 421 202 393 c 128,-1,46
 177 365 177 365 171 323 c 2,47,-1
 168 303 l 2,48,49
 167 297 167 297 166.5 291 c 128,-1,50
 166 285 166 285 166 280 c 0,51,52
 166 247 166 247 184 225.5 c 128,-1,53
 202 204 202 204 246 204 c 0,54,55
 296 204 296 204 320.5 232.5 c 128,-1,56
 345 261 345 261 351 303 c 2,57,-1
 354 323 l 2,38,39
EndSplineSet
EndChar

StartChar: yen
Encoding: 165 165 122
Width: 520
Flags: W
LayerCount: 2
Fore
SplineSet
272 78 m 1,0,-1
 262 0 l 1,1,-1
 177 0 l 1,2,-1
 187 78 l 1,3,-1
 92 78 l 1,4,-1
 102 148 l 1,5,-1
 196 148 l 1,6,-1
 202 189 l 1,7,-1
 108 189 l 1,8,-1
 118 259 l 1,9,-1
 183 259 l 1,10,-1
 71 601 l 1,11,-1
 162 601 l 1,12,13
 189 520 189 520 211 440.5 c 128,-1,14
 233 361 233 361 253 280 c 1,15,16
 302 361 302 361 348 440.5 c 128,-1,17
 394 520 394 520 436 601 c 1,18,-1
 536 601 l 1,19,-1
 324 259 l 1,20,-1
 391 259 l 1,21,-1
 382 189 l 1,22,-1
 286 189 l 1,23,-1
 281 148 l 1,24,-1
 376 148 l 1,25,-1
 366 78 l 1,26,-1
 272 78 l 1,0,-1
EndSplineSet
EndChar

StartChar: brokenbar
Encoding: 166 166 123
Width: 520
Flags: W
LayerCount: 2
Fore
SplineSet
231 388 m 1,0,-1
 289 798 l 1,1,-1
 374 798 l 1,2,-1
 316 388 l 1,3,-1
 231 388 l 1,0,-1
161 -112 m 1,4,-1
 218 298 l 1,5,-1
 303 298 l 1,6,-1
 246 -112 l 1,7,-1
 161 -112 l 1,4,-1
EndSplineSet
EndChar

StartChar: section
Encoding: 167 167 124
Width: 403
Flags: W
LayerCount: 2
Fore
SplineSet
386 274 m 0,0,1
 381 228 381 228 347.5 197 c 128,-1,2
 314 166 314 166 261 155 c 1,3,4
 293 134 293 134 306.5 104.5 c 128,-1,5
 320 75 320 75 320 41 c 2,6,-1
 320 30 l 2,7,8
 320 24 320 24 319 19 c 2,9,-1
 317 2 l 2,10,11
 311 -50 311 -50 272.5 -84 c 128,-1,12
 234 -118 234 -118 150 -118 c 0,13,14
 126 -118 126 -118 93 -112.5 c 128,-1,15
 60 -107 60 -107 28 -98 c 1,16,-1
 40 -21 l 1,17,18
 60 -29 60 -29 82 -36 c 128,-1,19
 104 -43 104 -43 121 -47 c 0,20,21
 129 -48 129 -48 139.5 -48.5 c 128,-1,22
 150 -49 150 -49 157 -49 c 0,23,24
 197 -49 197 -49 216 -32 c 128,-1,25
 235 -15 235 -15 238 12 c 2,26,-1
 239 21 l 2,27,28
 239 25 239 25 239.5 28 c 128,-1,29
 240 31 240 31 240 34 c 0,30,31
 240 79 240 79 200 97 c 2,32,-1
 102 141 l 2,33,34
 58 161 58 161 36 193 c 128,-1,35
 14 225 14 225 14 267 c 0,36,37
 14 272 14 272 14.5 279 c 128,-1,38
 15 286 15 286 17 303 c 0,39,40
 24 348 24 348 57 379.5 c 128,-1,41
 90 411 90 411 141 422 c 1,42,43
 110 442 110 442 96 470.5 c 128,-1,44
 82 499 82 499 82 532 c 0,45,46
 82 542 82 542 83 552.5 c 128,-1,47
 84 563 84 563 86 575 c 0,48,49
 89 601 89 601 99.5 623 c 128,-1,50
 110 645 110 645 129 661 c 128,-1,51
 148 677 148 677 176.5 686 c 128,-1,52
 205 695 205 695 244 695 c 0,53,54
 268 695 268 695 301 689.5 c 128,-1,55
 334 684 334 684 366 675 c 1,56,-1
 354 598 l 1,57,58
 334 606 334 606 312 613 c 128,-1,59
 290 620 290 620 273 624 c 0,60,61
 265 625 265 625 254.5 625.5 c 128,-1,62
 244 626 244 626 237 626 c 0,63,64
 203 626 203 626 185.5 609 c 128,-1,65
 168 592 168 592 165 565 c 2,66,-1
 164 556 l 2,67,68
 164 552 164 552 163.5 549 c 128,-1,69
 163 546 163 546 163 543 c 0,70,71
 163 498 163 498 203 480 c 2,72,-1
 301 436 l 2,73,74
 389 396 389 396 389 311 c 0,75,76
 389 306 389 306 388.5 298.5 c 128,-1,77
 388 291 388 291 386 274 c 0,0,1
99 295 m 0,78,79
 97 287 97 287 97 283 c 2,80,-1
 97 277 l 2,81,82
 97 231 97 231 145 209 c 2,83,-1
 173 196 l 1,84,-1
 179 196 l 2,85,86
 225 196 225 196 260.5 217 c 128,-1,87
 296 238 296 238 304 282 c 0,88,89
 306 290 306 290 306 293 c 2,90,-1
 306 300 l 2,91,92
 306 322 306 322 294 339.5 c 128,-1,93
 282 357 282 357 258 368 c 2,94,-1
 230 380 l 1,95,-1
 221 380 l 2,96,97
 176 380 176 380 141 359 c 128,-1,98
 106 338 106 338 99 295 c 0,78,79
EndSplineSet
EndChar

StartChar: dieresis
Encoding: 168 168 125
Width: 431
Flags: W
LayerCount: 2
Fore
SplineSet
231 619 m 2,0,1
 228 598 228 598 215 587.5 c 128,-1,2
 202 577 202 577 175 577 c 0,3,4
 149 577 149 577 134 590 c 128,-1,5
 119 603 119 603 122 624 c 2,6,-1
 126 652 l 2,7,8
 132 695 132 695 183 695 c 0,9,10
 210 695 210 695 224 683 c 128,-1,11
 238 671 238 671 235 648 c 2,12,-1
 231 619 l 2,0,1
403 619 m 2,13,14
 397 577 397 577 347 577 c 0,15,16
 321 577 321 577 306 590 c 128,-1,17
 291 603 291 603 294 624 c 2,18,-1
 298 652 l 2,19,20
 304 695 304 695 355 695 c 0,21,22
 381 695 381 695 395.5 683 c 128,-1,23
 410 671 410 671 407 648 c 2,24,-1
 403 619 l 2,13,14
EndSplineSet
EndChar

StartChar: copyright
Encoding: 169 169 126
Width: 646
Flags: W
LayerCount: 2
Fore
SplineSet
564 193 m 2,0,1
 550 90 550 90 485.5 37.5 c 128,-1,2
 421 -15 421 -15 294 -15 c 0,3,4
 233 -15 233 -15 188 -1 c 128,-1,5
 143 13 143 13 113.5 38 c 128,-1,6
 84 63 84 63 69.5 98 c 128,-1,7
 55 133 55 133 55 174 c 0,8,9
 55 191 55 191 58 211 c 2,10,-1
 85 408 l 2,11,12
 99 514 99 514 165 565 c 128,-1,13
 231 616 231 616 356 616 c 0,14,15
 475 616 475 616 534 563 c 128,-1,16
 593 510 593 510 593 425 c 2,17,-1
 593 408 l 2,18,19
 593 399 593 399 591 390 c 2,20,-1
 564 193 l 2,0,1
521 397 m 2,21,22
 522 404 522 404 522.5 410 c 128,-1,23
 523 416 523 416 523 422 c 0,24,25
 523 482 523 482 480 516 c 128,-1,26
 437 550 437 550 354 550 c 0,27,28
 266 550 266 550 216.5 515.5 c 128,-1,29
 167 481 167 481 158 416 c 2,30,-1
 129 204 l 2,31,32
 128 198 128 198 127.5 192 c 128,-1,33
 127 186 127 186 127 180 c 0,34,35
 127 120 127 120 170.5 85.5 c 128,-1,36
 214 51 214 51 297 51 c 0,37,38
 385 51 385 51 434 86 c 128,-1,39
 483 121 483 121 492 185 c 2,40,-1
 521 397 l 2,21,22
313 129 m 0,41,42
 256 129 256 129 225.5 159.5 c 128,-1,43
 195 190 195 190 195 249 c 0,44,45
 195 267 195 267 198 287 c 2,46,-1
 206 343 l 2,47,48
 217 417 217 417 252.5 448.5 c 128,-1,49
 288 480 288 480 355 480 c 0,50,51
 374 480 374 480 395 476.5 c 128,-1,52
 416 473 416 473 433 468 c 1,53,-1
 422 400 l 1,54,55
 383 414 383 414 354 414 c 0,56,57
 326 414 326 414 308.5 397 c 128,-1,58
 291 380 291 380 286 338 c 2,59,-1
 279 283 l 2,60,61
 278 276 278 276 277.5 270 c 128,-1,62
 277 264 277 264 277 258 c 0,63,64
 277 226 277 226 289.5 211.5 c 128,-1,65
 302 197 302 197 322 197 c 0,66,67
 344 197 344 197 362.5 200.5 c 128,-1,68
 381 204 381 204 401 212 c 1,69,-1
 394 146 l 1,70,71
 368 136 368 136 350 132.5 c 128,-1,72
 332 129 332 129 313 129 c 0,41,42
EndSplineSet
EndChar

StartChar: ordfeminine
Encoding: 170 170 127
Width: 520
Flags: W
LayerCount: 2
Fore
SplineSet
113 498 m 2,0,1
 127 583 127 583 168.5 625 c 128,-1,2
 210 667 210 667 274 667 c 0,3,4
 311 667 311 667 342.5 648 c 128,-1,5
 374 629 374 629 394 608 c 1,6,-1
 401 655 l 1,7,-1
 481 655 l 1,8,-1
 422 226 l 1,9,-1
 341 226 l 1,10,-1
 349 284 l 1,11,-1
 390 409 l 1,12,-1
 388 411 l 1,13,-1
 385 410 l 1,14,15
 349 304 349 304 302.5 259 c 128,-1,16
 256 214 256 214 202 214 c 0,17,18
 151 214 151 214 121 249.5 c 128,-1,19
 91 285 91 285 91 348 c 0,20,21
 91 359 91 359 92 370 c 128,-1,22
 93 381 93 381 95 393 c 2,23,-1
 113 498 l 2,0,1
226 290 m 0,24,25
 256 290 256 290 281.5 311.5 c 128,-1,26
 307 333 307 333 326.5 366 c 128,-1,27
 346 399 346 399 359 438 c 128,-1,28
 372 477 372 477 377 512 c 2,29,-1
 381 540 l 1,30,31
 363 563 363 563 337.5 577 c 128,-1,32
 312 591 312 591 288 591 c 0,33,34
 252 591 252 591 229.5 570 c 128,-1,35
 207 549 207 549 197 490 c 2,36,-1
 182 404 l 2,37,38
 180 390 180 390 178.5 378 c 128,-1,39
 177 366 177 366 177 355 c 0,40,41
 177 319 177 319 190 304.5 c 128,-1,42
 203 290 203 290 226 290 c 0,24,25
50 0 m 1,43,-1
 60 73 l 1,44,-1
 399 73 l 1,45,-1
 389 0 l 1,46,-1
 50 0 l 1,43,-1
EndSplineSet
EndChar

StartChar: guillemotleft
Encoding: 171 171 128
Width: 488
Flags: W
LayerCount: 2
Fore
SplineSet
281 488 m 1,0,-1
 164 318 l 1,1,-1
 233 148 l 1,2,-1
 149 148 l 1,3,-1
 69 318 l 1,4,-1
 192 488 l 1,5,-1
 281 488 l 1,0,-1
451 488 m 1,6,-1
 334 318 l 1,7,-1
 403 148 l 1,8,-1
 318 148 l 1,9,-1
 239 318 l 1,10,-1
 361 488 l 1,11,-1
 451 488 l 1,6,-1
EndSplineSet
EndChar

StartChar: logicalnot
Encoding: 172 172 129
Width: 520
Flags: W
LayerCount: 2
Fore
SplineSet
339 113 m 1,0,-1
 361 265 l 1,1,-1
 76 265 l 1,2,-1
 86 335 l 1,3,-1
 447 335 l 1,4,-1
 415 113 l 1,5,-1
 339 113 l 1,0,-1
EndSplineSet
EndChar

StartChar: registered
Encoding: 174 174 131
Width: 536
Flags: W
LayerCount: 2
Fore
SplineSet
487 468 m 2,0,1
 481 426 481 426 467.5 394.5 c 128,-1,2
 454 363 454 363 429 341.5 c 128,-1,3
 404 320 404 320 367 309.5 c 128,-1,4
 330 299 330 299 278 299 c 0,5,6
 186 299 186 299 143 342 c 128,-1,7
 100 385 100 385 100 454 c 0,8,9
 100 472 100 472 103 492 c 2,10,-1
 108 526 l 2,11,12
 114 568 114 568 126.5 599.5 c 128,-1,13
 139 631 139 631 162 652.5 c 128,-1,14
 185 674 185 674 221 684.5 c 128,-1,15
 257 695 257 695 310 695 c 0,16,17
 405 695 405 695 449 654.5 c 128,-1,18
 493 614 493 614 493 539 c 2,19,-1
 493 520 l 2,20,21
 493 511 493 511 491 501 c 2,22,-1
 487 468 l 2,0,1
445 514 m 2,23,24
 446 521 446 521 446.5 527 c 128,-1,25
 447 533 447 533 447 539 c 0,26,27
 447 591 447 591 412.5 621 c 128,-1,28
 378 651 378 651 309 651 c 0,29,30
 232 651 232 651 198.5 623 c 128,-1,31
 165 595 165 595 157 533 c 2,32,-1
 150 481 l 2,33,34
 149 474 149 474 148.5 467.5 c 128,-1,35
 148 461 148 461 148 454 c 0,36,37
 148 403 148 403 180 373 c 128,-1,38
 212 343 212 343 281 343 c 0,39,40
 358 343 358 343 393.5 371 c 128,-1,41
 429 399 429 399 438 461 c 2,42,-1
 445 514 l 2,23,24
207 382 m 1,43,-1
 240 612 l 1,44,45
 260 614 260 614 279 615.5 c 128,-1,46
 298 617 298 617 311 617 c 0,47,48
 354 617 354 617 374.5 598 c 128,-1,49
 395 579 395 579 395 550 c 0,50,51
 395 542 395 542 394 537 c 2,52,-1
 393 531 l 2,53,54
 385 488 385 488 339 472 c 1,55,-1
 383 382 l 1,56,-1
 334 382 l 1,57,58
 325 407 325 407 315.5 428 c 128,-1,59
 306 449 306 449 296 466 c 1,60,61
 278 466 278 466 262 469 c 1,62,-1
 250 382 l 1,63,-1
 207 382 l 1,43,-1
308 579 m 0,64,65
 303 579 303 579 293 578.5 c 128,-1,66
 283 578 283 578 277 577 c 1,67,-1
 268 505 l 1,68,69
 276 504 276 504 286 503.5 c 128,-1,70
 296 503 296 503 302 503 c 0,71,72
 325 503 325 503 335.5 512 c 128,-1,73
 346 521 346 521 349 535 c 2,74,-1
 350 540 l 2,75,76
 350 542 350 542 350.5 544 c 128,-1,77
 351 546 351 546 351 548 c 0,78,79
 351 562 351 562 341 570.5 c 128,-1,80
 331 579 331 579 308 579 c 0,64,65
EndSplineSet
EndChar

StartChar: macron
Encoding: 175 175 132
Width: 385
Flags: W
LayerCount: 2
Fore
SplineSet
130 606 m 1,0,-1
 140 681 l 1,1,-1
 355 681 l 1,2,-1
 345 606 l 1,3,-1
 130 606 l 1,0,-1
EndSplineSet
EndChar

StartChar: degree
Encoding: 176 176 133
Width: 600
Flags: W
LayerCount: 2
Fore
SplineSet
438 492 m 2,0,1
 426 407 426 407 382.5 367 c 128,-1,2
 339 327 339 327 256 327 c 0,3,4
 183 327 183 327 143.5 365 c 128,-1,5
 104 403 104 403 104 471 c 0,6,7
 104 488 104 488 107 508 c 2,8,-1
 110 530 l 2,9,10
 122 615 122 615 165.5 655 c 128,-1,11
 209 695 209 695 292 695 c 0,12,13
 365 695 365 695 404.5 657 c 128,-1,14
 444 619 444 619 444 551 c 0,15,16
 444 533 444 533 441 514 c 2,17,-1
 438 492 l 2,0,1
360 517 m 2,18,19
 361 524 361 524 361.5 530.5 c 128,-1,20
 362 537 362 537 362 543 c 0,21,22
 362 583 362 583 342 603.5 c 128,-1,23
 322 624 322 624 287 624 c 0,24,25
 245 624 245 624 221.5 601 c 128,-1,26
 198 578 198 578 191 527 c 2,27,-1
 188 505 l 2,28,29
 187 498 187 498 186.5 492 c 128,-1,30
 186 486 186 486 186 480 c 0,31,32
 186 445 186 445 203 421.5 c 128,-1,33
 220 398 220 398 261 398 c 0,34,35
 308 398 308 398 329.5 425 c 128,-1,36
 351 452 351 452 357 495 c 2,37,-1
 360 517 l 2,18,19
EndSplineSet
EndChar

StartChar: plusminus
Encoding: 177 177 134
Width: 520
Flags: W
LayerCount: 2
Fore
SplineSet
41 0 m 1,0,-1
 50 70 l 1,1,-1
 406 70 l 1,2,-1
 397 0 l 1,3,-1
 41 0 l 1,0,-1
295 265 m 1,4,-1
 273 113 l 1,5,-1
 197 113 l 1,6,-1
 219 265 l 1,7,-1
 79 265 l 1,8,-1
 89 336 l 1,9,-1
 229 336 l 1,10,-1
 250 488 l 1,11,-1
 326 488 l 1,12,-1
 305 336 l 1,13,-1
 445 336 l 1,14,-1
 435 265 l 1,15,-1
 295 265 l 1,4,-1
EndSplineSet
EndChar

StartChar: twosuperior
Encoding: 178 178 135
Width: 390
Flags: W
LayerCount: 2
Fore
SplineSet
210 546 m 0,0,1
 187 546 187 546 159 540 c 128,-1,2
 131 534 131 534 110 525 c 1,3,-1
 119 591 l 1,4,5
 145 599 145 599 174.5 604.5 c 128,-1,6
 204 610 204 610 224 610 c 0,7,8
 301 610 301 610 330 578.5 c 128,-1,9
 359 547 359 547 352 495 c 2,10,-1
 351 487 l 2,11,12
 346 452 346 452 327 421 c 128,-1,13
 308 390 308 390 266 351 c 2,14,-1
 152 245 l 1,15,-1
 317 245 l 1,16,-1
 308 181 l 1,17,-1
 52 181 l 1,18,-1
 60 237 l 1,19,-1
 232 411 l 2,20,21
 248 427 248 427 260 443 c 128,-1,22
 272 459 272 459 275 485 c 2,23,-1
 276 494 l 2,24,25
 279 519 279 519 264 532.5 c 128,-1,26
 249 546 249 546 210 546 c 0,0,1
EndSplineSet
EndChar

StartChar: threesuperior
Encoding: 179 179 136
Width: 390
Flags: W
LayerCount: 2
Fore
SplineSet
200 552 m 0,0,1
 178 552 178 552 154 548 c 128,-1,2
 130 544 130 544 109 539 c 1,3,-1
 118 598 l 1,4,5
 144 603 144 603 169 606.5 c 128,-1,6
 194 610 194 610 214 610 c 0,7,8
 282 610 282 610 310.5 578 c 128,-1,9
 339 546 339 546 332 496 c 2,10,-1
 331 489 l 2,11,12
 327 459 327 459 309 435.5 c 128,-1,13
 291 412 291 412 257 399 c 1,14,15
 286 387 286 387 302.5 363.5 c 128,-1,16
 319 340 319 340 319 311 c 0,17,18
 319 302 319 302 318 297 c 2,19,-1
 317 290 l 2,20,21
 309 236 309 236 272 204.5 c 128,-1,22
 235 173 235 173 162 173 c 0,23,24
 143 173 143 173 113 178 c 128,-1,25
 83 183 83 183 59 191 c 1,26,-1
 67 251 l 1,27,28
 87 244 87 244 115 238.5 c 128,-1,29
 143 233 143 233 165 233 c 0,30,31
 230 233 230 233 238 292 c 2,32,-1
 239 300 l 2,33,34
 240 304 240 304 240 307 c 2,35,-1
 240 314 l 2,36,37
 240 340 240 340 225 354.5 c 128,-1,38
 210 369 210 369 172 369 c 2,39,-1
 114 369 l 1,40,-1
 123 427 l 1,41,-1
 181 427 l 2,42,43
 218 427 218 427 235.5 440.5 c 128,-1,44
 253 454 253 454 258 487 c 2,45,-1
 259 494 l 2,46,47
 260 498 260 498 260 506 c 0,48,49
 260 529 260 529 246 540.5 c 128,-1,50
 232 552 232 552 200 552 c 0,0,1
EndSplineSet
EndChar

StartChar: acute
Encoding: 180 180 137
Width: 311
Flags: W
LayerCount: 2
Fore
SplineSet
182 546 m 1,0,-1
 111 546 l 1,1,-1
 201 685 l 1,2,-1
 291 685 l 1,3,-1
 182 546 l 1,0,-1
EndSplineSet
EndChar

StartChar: mu
Encoding: 181 181 138
Width: 498
Flags: W
LayerCount: 2
Fore
SplineSet
189 488 m 1,0,-1
 143 175 l 2,1,2
 141 161 141 161 140 149.5 c 128,-1,3
 139 138 139 138 139 128 c 0,4,5
 139 92 139 92 151.5 78 c 128,-1,6
 164 64 164 64 187 64 c 0,7,8
 215 64 215 64 240 84 c 128,-1,9
 265 104 265 104 285 139.5 c 128,-1,10
 305 175 305 175 319.5 224.5 c 128,-1,11
 334 274 334 274 343 334 c 2,12,-1
 365 488 l 1,13,-1
 451 488 l 1,14,-1
 382 0 l 1,15,-1
 302 0 l 1,16,-1
 306 28 l 1,17,-1
 352 190 l 1,18,-1
 350 192 l 1,19,-1
 347 191 l 1,20,21
 311 83 311 83 264 35.5 c 128,-1,22
 217 -12 217 -12 163 -12 c 0,23,24
 137 -12 137 -12 119 7 c 1,25,26
 114 -17 114 -17 109 -43.5 c 128,-1,27
 104 -70 104 -70 98.5 -95.5 c 128,-1,28
 93 -121 93 -121 87.5 -144 c 128,-1,29
 82 -167 82 -167 77 -185 c 1,30,-1
 -7 -185 l 1,31,32
 7 -129 7 -129 21.5 -55 c 128,-1,33
 36 19 36 19 47 97 c 2,34,-1
 63 207 l 1,35,-1
 104 488 l 1,36,-1
 189 488 l 1,0,-1
EndSplineSet
EndChar

StartChar: paragraph
Encoding: 182 182 139
Width: 546
Flags: W
LayerCount: 2
Fore
SplineSet
127 -185 m 1,0,-1
 197 312 l 1,1,-1
 155 312 l 2,2,3
 101 312 101 312 70 341.5 c 128,-1,4
 39 371 39 371 39 423 c 0,5,6
 39 429 39 429 39.5 435.5 c 128,-1,7
 40 442 40 442 41 449 c 2,8,-1
 58 570 l 2,9,10
 66 627 66 627 100 655 c 128,-1,11
 134 683 134 683 197 683 c 2,12,-1
 335 683 l 1,13,-1
 213 -185 l 1,14,-1
 127 -185 l 1,0,-1
526 683 m 1,15,-1
 404 -185 l 1,16,-1
 318 -185 l 1,17,-1
 440 683 l 1,18,-1
 526 683 l 1,15,-1
126 462 m 2,19,20
 125 456 125 456 124.5 450 c 128,-1,21
 124 444 124 444 124 439 c 0,22,23
 124 411 124 411 135.5 399.5 c 128,-1,24
 147 388 147 388 170 388 c 2,25,-1
 207 388 l 1,26,-1
 238 610 l 1,27,-1
 197 610 l 2,28,29
 169 610 169 610 155.5 596.5 c 128,-1,30
 142 583 142 583 137 544 c 2,31,-1
 126 462 l 2,19,20
EndSplineSet
EndChar

StartChar: cedilla
Encoding: 184 184 141
Width: 299
Flags: W
LayerCount: 2
Fore
SplineSet
76 -41 m 1,0,-1
 78 -41 l 2,1,2
 106 -41 106 -41 122 -60.5 c 128,-1,3
 138 -80 138 -80 134 -112 c 2,4,-1
 133 -121 l 2,5,6
 128 -157 128 -157 105.5 -177 c 128,-1,7
 83 -197 83 -197 38 -197 c 0,8,9
 26 -197 26 -197 9 -194.5 c 128,-1,10
 -8 -192 -8 -192 -21 -188 c 1,11,-1
 -14 -133 l 1,12,13
 9 -143 9 -143 31 -143 c 0,14,15
 48 -143 48 -143 56 -136.5 c 128,-1,16
 64 -130 64 -130 66 -120 c 2,17,-1
 67 -113 l 1,18,-1
 67 -107 l 2,19,20
 67 -80 67 -80 33 -80 c 2,21,-1
 7 -80 l 1,22,-1
 10 -60 l 1,23,-1
 51 28 l 1,24,-1
 106 28 l 1,25,-1
 76 -41 l 1,0,-1
EndSplineSet
EndChar

StartChar: onesuperior
Encoding: 185 185 142
Width: 390
Flags: W
LayerCount: 2
Fore
SplineSet
64 181 m 1,0,-1
 73 245 l 1,1,-1
 165 245 l 1,2,-1
 206 529 l 1,3,-1
 101 487 l 1,4,-1
 95 554 l 1,5,-1
 230 602 l 1,6,-1
 296 602 l 1,7,-1
 246 245 l 1,8,-1
 325 245 l 1,9,-1
 316 181 l 1,10,-1
 64 181 l 1,0,-1
EndSplineSet
EndChar

StartChar: ordmasculine
Encoding: 186 186 143
Width: 520
Flags: W
LayerCount: 2
Fore
SplineSet
49 0 m 1,0,-1
 59 73 l 1,1,-1
 401 73 l 1,2,-1
 391 0 l 1,3,-1
 49 0 l 1,0,-1
381 491 m 2,4,5
 382 497 382 497 382.5 503 c 128,-1,6
 383 509 383 509 383 514 c 0,7,8
 383 554 383 554 361 575 c 128,-1,9
 339 596 339 596 301 596 c 0,10,11
 214 596 214 596 199 494 c 2,12,-1
 183 392 l 2,13,14
 182 386 182 386 181.5 379.5 c 128,-1,15
 181 373 181 373 181 368 c 0,16,17
 181 328 181 328 203.5 307 c 128,-1,18
 226 286 226 286 264 286 c 0,19,20
 307 286 307 286 333 311.5 c 128,-1,21
 359 337 359 337 365 388 c 1,22,-1
 381 491 l 2,4,5
451 394 m 2,23,24
 438 308 438 308 395 261.5 c 128,-1,25
 352 215 352 215 261 215 c 0,26,27
 179 215 179 215 137.5 254.5 c 128,-1,28
 96 294 96 294 96 362 c 0,29,30
 96 380 96 380 99 400 c 2,31,-1
 113 489 l 1,32,33
 125 573 125 573 169 620 c 128,-1,34
 213 667 213 667 305 667 c 0,35,36
 387 667 387 667 427 627.5 c 128,-1,37
 467 588 467 588 467 520 c 0,38,39
 467 501 467 501 464 482 c 2,40,-1
 451 394 l 2,23,24
EndSplineSet
EndChar

StartChar: guillemotright
Encoding: 187 187 144
Width: 488
Flags: W
LayerCount: 2
Fore
SplineSet
45 148 m 1,0,-1
 162 318 l 1,1,-1
 93 488 l 1,2,-1
 176 488 l 1,3,-1
 257 318 l 1,4,-1
 136 148 l 1,5,-1
 45 148 l 1,0,-1
215 148 m 1,6,-1
 332 318 l 1,7,-1
 263 488 l 1,8,-1
 345 488 l 1,9,-1
 427 318 l 1,10,-1
 305 148 l 1,11,-1
 215 148 l 1,6,-1
EndSplineSet
EndChar

StartChar: onequarter
Encoding: 188 188 145
Width: 1019
Flags: W
LayerCount: 2
Fore
SplineSet
271 0 m 1,0,-1
 660 601 l 1,1,-1
 743 601 l 1,2,-1
 354 0 l 1,3,-1
 271 0 l 1,0,-1
860 421 m 1,4,-1
 729 152 l 1,5,-1
 834 152 l 1,6,-1
 853 286 l 1,7,-1
 929 286 l 1,8,-1
 910 152 l 1,9,-1
 966 152 l 1,10,-1
 958 90 l 1,11,-1
 902 90 l 1,12,-1
 889 0 l 1,13,-1
 812 0 l 1,14,-1
 825 90 l 1,15,-1
 654 90 l 1,16,-1
 639 132 l 1,17,-1
 784 421 l 1,18,-1
 860 421 l 1,4,-1
64 181 m 1,19,-1
 73 245 l 1,20,-1
 165 245 l 1,21,-1
 206 529 l 1,22,-1
 101 487 l 1,23,-1
 95 554 l 1,24,-1
 230 602 l 1,25,-1
 296 602 l 1,26,-1
 246 245 l 1,27,-1
 325 245 l 1,28,-1
 316 181 l 1,29,-1
 64 181 l 1,19,-1
EndSplineSet
EndChar

StartChar: onehalf
Encoding: 189 189 146
Width: 1011
Flags: W
LayerCount: 2
Fore
SplineSet
271 0 m 1,0,-1
 660 601 l 1,1,-1
 743 601 l 1,2,-1
 354 0 l 1,3,-1
 271 0 l 1,0,-1
806 365 m 0,4,5
 783 365 783 365 755 359 c 128,-1,6
 727 353 727 353 706 344 c 1,7,-1
 715 410 l 1,8,9
 741 418 741 418 770.5 423.5 c 128,-1,10
 800 429 800 429 820 429 c 0,11,12
 897 429 897 429 926 397.5 c 128,-1,13
 955 366 955 366 948 314 c 2,14,-1
 947 306 l 2,15,16
 942 271 942 271 923 240 c 128,-1,17
 904 209 904 209 862 170 c 2,18,-1
 748 64 l 1,19,-1
 913 64 l 1,20,-1
 904 0 l 1,21,-1
 648 0 l 1,22,-1
 656 56 l 1,23,-1
 828 230 l 2,24,25
 844 246 844 246 856 262 c 128,-1,26
 868 278 868 278 871 304 c 2,27,-1
 872 313 l 2,28,29
 875 338 875 338 860 351.5 c 128,-1,30
 845 365 845 365 806 365 c 0,4,5
64 181 m 1,31,-1
 73 245 l 1,32,-1
 165 245 l 1,33,-1
 206 529 l 1,34,-1
 101 487 l 1,35,-1
 95 554 l 1,36,-1
 230 602 l 1,37,-1
 296 602 l 1,38,-1
 246 245 l 1,39,-1
 325 245 l 1,40,-1
 316 181 l 1,41,-1
 64 181 l 1,31,-1
EndSplineSet
EndChar

StartChar: threequarters
Encoding: 190 190 147
Width: 1000
Flags: W
LayerCount: 2
Fore
SplineSet
252 0 m 1,0,-1
 641 601 l 1,1,-1
 724 601 l 1,2,-1
 335 0 l 1,3,-1
 252 0 l 1,0,-1
842 421 m 1,4,-1
 711 152 l 1,5,-1
 816 152 l 1,6,-1
 835 286 l 1,7,-1
 911 286 l 1,8,-1
 892 152 l 1,9,-1
 948 152 l 1,10,-1
 940 90 l 1,11,-1
 884 90 l 1,12,-1
 871 0 l 1,13,-1
 794 0 l 1,14,-1
 807 90 l 1,15,-1
 636 90 l 1,16,-1
 621 132 l 1,17,-1
 766 421 l 1,18,-1
 842 421 l 1,4,-1
200 552 m 0,19,20
 178 552 178 552 154 548 c 128,-1,21
 130 544 130 544 109 539 c 1,22,-1
 118 598 l 1,23,24
 144 603 144 603 169 606.5 c 128,-1,25
 194 610 194 610 214 610 c 0,26,27
 282 610 282 610 310.5 578 c 128,-1,28
 339 546 339 546 332 496 c 2,29,-1
 331 489 l 2,30,31
 327 459 327 459 309 435.5 c 128,-1,32
 291 412 291 412 257 399 c 1,33,34
 286 387 286 387 302.5 363.5 c 128,-1,35
 319 340 319 340 319 311 c 0,36,37
 319 302 319 302 318 297 c 2,38,-1
 317 290 l 2,39,40
 309 236 309 236 272 204.5 c 128,-1,41
 235 173 235 173 162 173 c 0,42,43
 143 173 143 173 113 178 c 128,-1,44
 83 183 83 183 59 191 c 1,45,-1
 67 251 l 1,46,47
 87 244 87 244 115 238.5 c 128,-1,48
 143 233 143 233 165 233 c 0,49,50
 230 233 230 233 238 292 c 2,51,-1
 239 300 l 2,52,53
 240 304 240 304 240 307 c 2,54,-1
 240 314 l 2,55,56
 240 340 240 340 225 354.5 c 128,-1,57
 210 369 210 369 172 369 c 2,58,-1
 114 369 l 1,59,-1
 123 427 l 1,60,-1
 181 427 l 2,61,62
 218 427 218 427 235.5 440.5 c 128,-1,63
 253 454 253 454 258 487 c 2,64,-1
 259 494 l 2,65,66
 260 498 260 498 260 506 c 0,67,68
 260 529 260 529 246 540.5 c 128,-1,69
 232 552 232 552 200 552 c 0,19,20
EndSplineSet
EndChar

StartChar: Aring
Encoding: 197 197 154
Width: 536
Flags: W
LayerCount: 2
Fore
SplineSet
394 0 m 1,0,-1
 372 152 l 1,1,-1
 133 152 l 1,2,3
 117 114 117 114 101.5 76 c 128,-1,4
 86 38 86 38 69 0 c 1,5,-1
 -21 0 l 1,6,-1
 242 615 l 1,7,8
 223 626 223 626 212 644 c 128,-1,9
 201 662 201 662 201 688 c 0,10,11
 200 746 200 746 234.5 773 c 128,-1,12
 269 800 269 800 326 800 c 0,13,14
 374 800 374 800 403 778.5 c 128,-1,15
 432 757 432 757 433 715 c 1,16,17
 433 636 433 636 372 611 c 1,18,-1
 485 0 l 1,19,-1
 394 0 l 1,0,-1
301 576 m 1,20,21
 268 488 268 488 234 401.5 c 128,-1,22
 200 315 200 315 165 228 c 1,23,-1
 360 228 l 1,24,25
 346 316 346 316 331.5 402.5 c 128,-1,26
 317 489 317 489 301 576 c 1,20,21
322 745 m 0,27,28
 267 745 267 745 267 695 c 0,29,30
 267 678 267 678 277.5 666.5 c 128,-1,31
 288 655 288 655 313 655 c 0,32,33
 344 655 344 655 356.5 670 c 128,-1,34
 369 685 369 685 368 708 c 0,35,36
 368 724 368 724 357 734.5 c 128,-1,37
 346 745 346 745 322 745 c 0,27,28
EndSplineSet
EndChar

StartChar: AE
Encoding: 198 198 155
Width: 774
Flags: W
LayerCount: 2
Fore
SplineSet
328 0 m 1,0,-1
 346 152 l 1,1,-1
 159 152 l 1,2,-1
 67 0 l 1,3,-1
 -25 0 l 1,4,-1
 363 655 l 1,5,-1
 753 655 l 1,6,-1
 743 578 l 1,7,-1
 483 578 l 1,8,-1
 458 371 l 1,9,-1
 698 371 l 1,10,-1
 688 295 l 1,11,-1
 448 295 l 1,12,-1
 421 77 l 1,13,-1
 681 77 l 1,14,-1
 673 0 l 1,15,-1
 328 0 l 1,0,-1
398 573 m 1,16,17
 356 495 356 495 308 409 c 128,-1,18
 260 323 260 323 204 228 c 1,19,-1
 356 228 l 1,20,-1
 398 573 l 1,16,17
EndSplineSet
EndChar

StartChar: Ccedilla
Encoding: 199 199 156
Width: 462
Flags: W
LayerCount: 2
Fore
SplineSet
301 667 m 0,0,1
 334 667 334 667 374.5 660.5 c 128,-1,2
 415 654 415 654 450 643 c 1,3,-1
 439 563 l 1,4,5
 404 577 404 577 366.5 585 c 128,-1,6
 329 593 329 593 299 593 c 0,7,8
 245 593 245 593 213.5 563.5 c 128,-1,9
 182 534 182 534 174 469 c 2,10,-1
 141 194 l 2,11,12
 140 185 140 185 139.5 176.5 c 128,-1,13
 139 168 139 168 139 160 c 0,14,15
 139 108 139 108 163.5 87 c 128,-1,16
 188 66 188 66 239 66 c 0,17,18
 274 66 274 66 310.5 75.5 c 128,-1,19
 347 85 347 85 389 104 c 1,20,-1
 381 24 l 1,21,22
 353 10 353 10 316 1 c 128,-1,23
 279 -8 279 -8 247 -11 c 1,24,-1
 234 -41 l 1,25,-1
 236 -41 l 2,26,27
 264 -41 264 -41 280 -60.5 c 128,-1,28
 296 -80 296 -80 292 -112 c 2,29,-1
 291 -121 l 2,30,31
 286 -157 286 -157 263.5 -177 c 128,-1,32
 241 -197 241 -197 196 -197 c 0,33,34
 184 -197 184 -197 167 -194.5 c 128,-1,35
 150 -192 150 -192 137 -188 c 1,36,-1
 144 -133 l 1,37,38
 167 -143 167 -143 189 -143 c 0,39,40
 206 -143 206 -143 214 -136.5 c 128,-1,41
 222 -130 222 -130 224 -120 c 2,42,-1
 225 -113 l 1,43,-1
 225 -107 l 2,44,45
 225 -80 225 -80 191 -80 c 2,46,-1
 165 -80 l 1,47,-1
 168 -60 l 1,48,-1
 191 -10 l 1,49,50
 54 5 54 5 54 156 c 0,51,52
 54 180 54 180 57 207 c 2,53,-1
 88 463 l 2,54,55
 101 569 101 569 154.5 618 c 128,-1,56
 208 667 208 667 301 667 c 0,0,1
EndSplineSet
EndChar

StartChar: Eth
Encoding: 208 208 165
Width: 571
Flags: W
LayerCount: 2
Fore
SplineSet
76 303 m 1,0,-1
 5 303 l 1,1,-1
 15 373 l 1,2,-1
 84 373 l 1,3,-1
 120 662 l 1,4,5
 152 664 152 664 196.5 665.5 c 128,-1,6
 241 667 241 667 290 667 c 0,7,8
 403 667 403 667 461.5 608 c 128,-1,9
 520 549 520 549 520 445 c 0,10,11
 520 420 520 420 517 395 c 2,12,-1
 496 229 l 2,13,14
 481 112 481 112 413.5 50 c 128,-1,15
 346 -12 346 -12 215 -12 c 0,16,17
 165 -12 165 -12 124.5 -10 c 128,-1,18
 84 -8 84 -8 38 -3 c 1,19,-1
 76 303 l 1,0,-1
168 373 m 1,20,-1
 305 373 l 1,21,-1
 295 303 l 1,22,-1
 160 303 l 1,23,-1
 131 68 l 1,24,25
 160 64 160 64 182 62.5 c 128,-1,26
 204 61 204 61 223 61 c 0,27,28
 300 61 300 61 350.5 104 c 128,-1,29
 401 147 401 147 411 227 c 2,30,-1
 433 402 l 2,31,32
 436 423 436 423 436 442 c 0,33,34
 436 519 436 519 396 557 c 128,-1,35
 356 595 356 595 284 595 c 0,36,37
 269 595 269 595 242.5 594.5 c 128,-1,38
 216 594 216 594 196 593 c 1,39,-1
 168 373 l 1,20,-1
EndSplineSet
EndChar

StartChar: multiply
Encoding: 215 215 172
Width: 520
Flags: W
LayerCount: 2
Fore
SplineSet
313 302 m 1,0,-1
 406 194 l 1,1,-1
 344 141 l 1,2,-1
 251 248 l 1,3,-1
 132 143 l 1,4,-1
 89 193 l 1,5,-1
 208 298 l 1,6,-1
 117 406 l 1,7,-1
 177 460 l 1,8,-1
 270 352 l 1,9,-1
 391 458 l 1,10,-1
 434 408 l 1,11,-1
 313 302 l 1,0,-1
EndSplineSet
EndChar

StartChar: Oslash
Encoding: 216 216 173
Width: 576
Flags: W
LayerCount: 2
Fore
SplineSet
89 457 m 2,0,1
 103 565 103 565 159 616 c 128,-1,2
 215 667 215 667 327 667 c 0,3,4
 406 667 406 667 457 633 c 1,5,-1
 508 705 l 1,6,-1
 597 705 l 1,7,-1
 506 579 l 1,8,9
 527 540 527 540 527 484 c 0,10,11
 527 475 527 475 526.5 466 c 128,-1,12
 526 457 526 457 525 447 c 2,13,-1
 494 198 l 2,14,15
 481 94 481 94 423 41 c 128,-1,16
 365 -12 365 -12 256 -12 c 0,17,18
 172 -12 172 -12 123 22 c 1,19,-1
 69 -50 l 1,20,-1
 -20 -50 l 1,21,-1
 73 79 l 1,22,23
 55 116 55 116 55 167 c 0,24,25
 55 187 55 187 58 208 c 2,26,-1
 89 457 l 2,0,1
441 458 m 2,27,28
 442 465 442 465 442 471 c 2,29,-1
 442 494 l 1,30,-1
 167 95 l 1,31,32
 197 63 197 63 261 63 c 0,33,34
 392 63 392 63 408 191 c 2,35,-1
 441 458 l 2,27,28
142 197 m 1,36,37
 140 189 140 189 140 181 c 2,38,-1
 140 166 l 1,39,-1
 414 562 l 1,40,41
 384 592 384 592 321 592 c 0,42,43
 189 592 189 592 174 465 c 2,44,-1
 142 197 l 1,36,37
EndSplineSet
EndChar

StartChar: Thorn
Encoding: 222 222 179
Width: 560
Flags: W
LayerCount: 2
Fore
SplineSet
35 0 m 1,0,-1
 127 655 l 1,1,-1
 212 655 l 1,2,-1
 195 535 l 1,3,4
 217 536 217 536 238 536.5 c 128,-1,5
 259 537 259 537 276 537 c 0,6,7
 383 537 383 537 436 493 c 128,-1,8
 489 449 489 449 489 371 c 0,9,10
 489 353 489 353 486 335 c 2,11,-1
 484 320 l 1,12,13
 469 232 469 232 411 184.5 c 128,-1,14
 353 137 353 137 242 137 c 0,15,16
 226 137 226 137 200 139.5 c 128,-1,17
 174 142 174 142 141 148 c 1,18,-1
 120 0 l 1,19,-1
 35 0 l 1,0,-1
150 217 m 1,20,21
 182 212 182 212 202.5 210 c 128,-1,22
 223 208 223 208 241 208 c 0,23,24
 314 208 314 208 351.5 239 c 128,-1,25
 389 270 389 270 400 332 c 2,26,-1
 402 344 l 2,27,28
 403 350 403 350 403.5 356 c 128,-1,29
 404 362 404 362 404 368 c 0,30,31
 404 414 404 414 371 440 c 128,-1,32
 338 466 338 466 268 466 c 0,33,34
 239 466 239 466 220 465.5 c 128,-1,35
 201 465 201 465 185 464 c 1,36,-1
 150 217 l 1,20,21
EndSplineSet
EndChar

StartChar: germandbls
Encoding: 223 223 180
Width: 485
Flags: W
LayerCount: 2
Fore
SplineSet
35 0 m 1,0,-1
 93 418 l 1,1,-1
 20 418 l 1,2,-1
 27 468 l 1,3,-1
 102 482 l 1,4,-1
 107 513 l 2,5,6
 115 561 115 561 128.5 595.5 c 128,-1,7
 142 630 142 630 162.5 652 c 128,-1,8
 183 674 183 674 211.5 684.5 c 128,-1,9
 240 695 240 695 279 695 c 0,10,11
 316 695 316 695 345 684.5 c 128,-1,12
 374 674 374 674 393.5 656 c 128,-1,13
 413 638 413 638 422 612.5 c 128,-1,14
 431 587 431 587 428 557 c 2,15,-1
 427 548 l 1,16,17
 421 507 421 507 404.5 484.5 c 128,-1,18
 388 462 388 462 369.5 446 c 128,-1,19
 351 430 351 430 335.5 416 c 128,-1,20
 320 402 320 402 317 380 c 2,21,-1
 316 373 l 2,22,23
 316 369 316 369 315.5 366 c 128,-1,24
 315 363 315 363 315 360 c 0,25,26
 315 345 315 345 320.5 335 c 128,-1,27
 326 325 326 325 338 317 c 2,28,-1
 382 287 l 2,29,30
 414 264 414 264 429 232.5 c 128,-1,31
 444 201 444 201 444 163 c 2,32,-1
 444 152 l 2,33,34
 444 147 444 147 443 142 c 2,35,-1
 442 133 l 2,36,37
 434 65 434 65 399 26.5 c 128,-1,38
 364 -12 364 -12 298 -12 c 0,39,40
 271 -12 271 -12 242.5 -6.5 c 128,-1,41
 214 -1 214 -1 189 10 c 1,42,-1
 200 82 l 1,43,44
 220 74 220 74 237.5 68.5 c 128,-1,45
 255 63 255 63 272 59 c 0,46,47
 277 58 277 58 282 58 c 2,48,-1
 292 58 l 2,49,50
 315 58 315 58 332.5 76 c 128,-1,51
 350 94 350 94 355 129 c 2,52,-1
 358 151 l 2,53,54
 359 155 359 155 359 163 c 0,55,56
 359 203 359 203 327 224 c 2,57,-1
 282 254 l 2,58,59
 256 271 256 271 244 294 c 128,-1,60
 232 317 232 317 232 350 c 0,61,62
 232 354 232 354 232.5 358 c 128,-1,63
 233 362 233 362 233 367 c 2,64,-1
 234 376 l 2,65,66
 238 410 238 410 254 430.5 c 128,-1,67
 270 451 270 451 288 467 c 128,-1,68
 306 483 306 483 322 499 c 128,-1,69
 338 515 338 515 342 541 c 2,70,-1
 344 557 l 2,71,72
 348 585 348 585 330 605 c 128,-1,73
 312 625 312 625 274 625 c 0,74,75
 237 625 237 625 219.5 606.5 c 128,-1,76
 202 588 202 588 196 544 c 2,77,-1
 120 0 l 1,78,-1
 35 0 l 1,0,-1
EndSplineSet
EndChar

StartChar: ae
Encoding: 230 230 187
Width: 725
Flags: W
LayerCount: 2
Fore
SplineSet
61 331 m 2,0,1
 75 416 75 416 116 458 c 128,-1,2
 157 500 157 500 219 500 c 0,3,4
 240 500 240 500 262 492.5 c 128,-1,5
 284 485 284 485 303.5 472.5 c 128,-1,6
 323 460 323 460 339.5 443.5 c 128,-1,7
 356 427 356 427 366 408 c 1,8,9
 393 451 393 451 432 475.5 c 128,-1,10
 471 500 471 500 525 500 c 0,11,12
 592 500 592 500 627 466.5 c 128,-1,13
 662 433 662 433 662 382 c 0,14,15
 662 344 662 344 647 310 c 128,-1,16
 632 276 632 276 599 249 c 128,-1,17
 566 222 566 222 512.5 203 c 128,-1,18
 459 184 459 184 382 175 c 1,19,-1
 379 159 l 2,20,21
 377 152 377 152 377 146 c 2,22,-1
 377 134 l 2,23,24
 377 96 377 96 401.5 79.5 c 128,-1,25
 426 63 426 63 467 63 c 0,26,27
 483 63 483 63 503 66.5 c 128,-1,28
 523 70 523 70 543 75.5 c 128,-1,29
 563 81 563 81 581.5 88 c 128,-1,30
 600 95 600 95 614 101 c 1,31,-1
 599 24 l 1,32,33
 565 8 565 8 524.5 -2 c 128,-1,34
 484 -12 484 -12 455 -12 c 0,35,36
 413 -12 413 -12 384.5 -1 c 128,-1,37
 356 10 356 10 338 30 c 128,-1,38
 320 50 320 50 312 77 c 128,-1,39
 304 104 304 104 305 137 c 1,40,41
 271 59 271 59 230 23.5 c 128,-1,42
 189 -12 189 -12 141 -12 c 0,43,44
 90 -12 90 -12 60 22 c 128,-1,45
 30 56 30 56 30 119 c 0,46,47
 30 130 30 130 31 141 c 128,-1,48
 32 152 32 152 34 164 c 2,49,-1
 61 331 l 2,0,1
314 259 m 1,50,51
 324 315 324 315 341 359 c 1,52,53
 325 387 325 387 295.5 405.5 c 128,-1,54
 266 424 266 424 239 424 c 0,55,56
 201 424 201 424 177.5 401.5 c 128,-1,57
 154 379 154 379 145 323 c 2,58,-1
 121 175 l 2,59,60
 119 161 119 161 117.5 149 c 128,-1,61
 116 137 116 137 116 127 c 0,62,63
 116 92 116 92 129 78 c 128,-1,64
 142 64 142 64 165 64 c 0,65,66
 195 64 195 64 220 86 c 128,-1,67
 245 108 245 108 264.5 139 c 128,-1,68
 284 170 284 170 296.5 203.5 c 128,-1,69
 309 237 309 237 314 259 c 1,50,51
391 235 m 1,70,71
 477 249 477 249 527 286.5 c 128,-1,72
 577 324 577 324 577 370 c 0,73,74
 577 396 577 396 560 412.5 c 128,-1,75
 543 429 543 429 508 429 c 0,76,77
 470 429 470 429 439 390 c 128,-1,78
 408 351 408 351 397 276 c 2,79,-1
 391 235 l 1,70,71
EndSplineSet
EndChar

StartChar: ccedilla
Encoding: 231 231 188
Width: 399
Flags: W
LayerCount: 2
Fore
SplineSet
317 19 m 1,0,1
 287 5 287 5 257.5 -2.5 c 128,-1,2
 228 -10 228 -10 202 -12 c 1,3,-1
 190 -41 l 1,4,-1
 192 -41 l 2,5,6
 220 -41 220 -41 236 -60.5 c 128,-1,7
 252 -80 252 -80 248 -112 c 2,8,-1
 247 -121 l 2,9,10
 242 -157 242 -157 219.5 -177 c 128,-1,11
 197 -197 197 -197 152 -197 c 0,12,13
 140 -197 140 -197 123 -194.5 c 128,-1,14
 106 -192 106 -192 93 -188 c 1,15,-1
 100 -133 l 1,16,17
 123 -143 123 -143 145 -143 c 0,18,19
 162 -143 162 -143 170 -136.5 c 128,-1,20
 178 -130 178 -130 180 -120 c 2,21,-1
 181 -113 l 1,22,-1
 181 -107 l 2,23,24
 181 -80 181 -80 147 -80 c 2,25,-1
 121 -80 l 1,26,-1
 124 -60 l 1,27,-1
 148 -7 l 1,28,29
 100 4 100 4 75 39.5 c 128,-1,30
 50 75 50 75 50 132 c 0,31,32
 50 152 50 152 53 173 c 2,33,-1
 74 321 l 2,34,35
 88 415 88 415 134 457.5 c 128,-1,36
 180 500 180 500 258 500 c 0,37,38
 284 500 284 500 311 496 c 128,-1,39
 338 492 338 492 372 482 c 1,40,-1
 360 406 l 1,41,42
 301 428 301 428 257 428 c 0,43,44
 218 428 218 428 193 403.5 c 128,-1,45
 168 379 168 379 160 328 c 1,46,-1
 139 174 l 2,47,48
 137 165 137 165 137 157 c 2,49,-1
 137 142 l 2,50,51
 137 98 137 98 156 80.5 c 128,-1,52
 175 63 175 63 208 63 c 0,53,54
 236 63 236 63 266.5 71 c 128,-1,55
 297 79 297 79 326 96 c 1,56,-1
 317 19 l 1,0,1
EndSplineSet
EndChar

StartChar: eth
Encoding: 240 240 197
Width: 497
Flags: W
LayerCount: 2
Fore
SplineSet
172 695 m 1,0,1
 311 695 311 695 377 615 c 1,2,-1
 482 645 l 1,3,-1
 473 579 l 1,4,-1
 410 561 l 1,5,6
 435 502 435 502 435 424 c 0,7,8
 435 403 435 403 433 381 c 128,-1,9
 431 359 431 359 428 335 c 2,10,-1
 404 165 l 2,11,12
 392 77 392 77 348 32.5 c 128,-1,13
 304 -12 304 -12 218 -12 c 0,14,15
 137 -12 137 -12 96.5 23.5 c 128,-1,16
 56 59 56 59 56 128 c 0,17,18
 56 146 56 146 59 167 c 2,19,-1
 75 282 l 2,20,21
 86 366 86 366 123 402.5 c 128,-1,22
 160 439 160 439 222 439 c 0,23,24
 256 439 256 439 289.5 420.5 c 128,-1,25
 323 402 323 402 346 361 c 1,26,-1
 350 386 l 2,27,28
 352 400 352 400 353 412.5 c 128,-1,29
 354 425 354 425 354 437 c 0,30,31
 354 495 354 495 332 539 c 1,32,-1
 207 505 l 1,33,-1
 217 571 l 1,34,-1
 290 591 l 1,35,36
 241 631 241 631 163 631 c 1,37,-1
 172 695 l 1,0,1
233 363 m 0,38,39
 203 363 203 363 183.5 340.5 c 128,-1,40
 164 318 164 318 156 264 c 2,41,-1
 140 152 l 2,42,43
 139 147 139 147 139 143 c 2,44,-1
 139 134 l 2,45,46
 139 97 139 97 161 78 c 128,-1,47
 183 59 183 59 221 59 c 0,48,49
 266 59 266 59 288 81.5 c 128,-1,50
 310 104 310 104 316 148 c 2,51,-1
 335 281 l 1,52,53
 316 323 316 323 288 343 c 128,-1,54
 260 363 260 363 233 363 c 0,38,39
EndSplineSet
EndChar

StartChar: divide
Encoding: 247 247 204
Width: 520
Flags: W
LayerCount: 2
Fore
SplineSet
80 265 m 1,0,-1
 90 335 l 1,1,-1
 444 335 l 1,2,-1
 434 265 l 1,3,-1
 80 265 l 1,0,-1
328 421 m 1,4,5
 324 385 324 385 277 385 c 0,6,7
 254 385 254 385 241.5 396 c 128,-1,8
 229 407 229 407 232 427 c 2,9,-1
 235 452 l 1,10,11
 241 489 241 489 286 489 c 0,12,13
 310 489 310 489 322 478 c 128,-1,14
 334 467 334 467 332 447 c 1,15,-1
 328 421 l 1,4,5
289 147 m 1,16,17
 285 111 285 111 238 111 c 0,18,19
 215 111 215 111 202.5 122 c 128,-1,20
 190 133 190 133 193 153 c 2,21,-1
 196 178 l 1,22,23
 202 215 202 215 247 215 c 0,24,25
 271 215 271 215 283 204 c 128,-1,26
 295 193 295 193 293 173 c 1,27,-1
 289 147 l 1,16,17
EndSplineSet
EndChar

StartChar: oslash
Encoding: 248 248 205
Width: 492
Flags: W
LayerCount: 2
Fore
SplineSet
-41 -51 m 1,0,-1
 60 74 l 1,1,2
 50 100 50 100 50 134 c 0,3,4
 50 152 50 152 53 172 c 2,5,-1
 73 316 l 2,6,7
 85 405 85 405 135 452.5 c 128,-1,8
 185 500 185 500 266 500 c 0,9,10
 336 500 336 500 378 469 c 1,11,-1
 433 538 l 1,12,-1
 521 538 l 1,13,-1
 420 411 l 1,14,15
 429 385 429 385 429 353 c 0,16,17
 429 334 429 334 426 315 c 2,18,-1
 407 176 l 2,19,20
 395 87 395 87 346 37.5 c 128,-1,21
 297 -12 297 -12 215 -12 c 0,22,23
 178 -12 178 -12 150 -4 c 128,-1,24
 122 4 122 4 102 18 c 1,25,-1
 46 -51 l 1,26,-1
 -41 -51 l 1,0,-1
137 165 m 2,27,28
 136 162 136 162 136 157 c 1,29,-1
 329 397 l 1,30,31
 308 429 308 429 262 429 c 0,32,33
 220 429 220 429 194 405 c 128,-1,34
 168 381 168 381 160 327 c 2,35,-1
 137 165 l 2,27,28
342 322 m 1,36,-1
 342 327 l 1,37,-1
 151 89 l 1,38,39
 172 59 172 59 218 59 c 0,40,41
 262 59 262 59 286.5 83.5 c 128,-1,42
 311 108 311 108 319 161 c 2,43,-1
 342 322 l 1,36,-1
EndSplineSet
EndChar

StartChar: thorn
Encoding: 254 254 211
Width: 489
Flags: W
LayerCount: 2
Fore
SplineSet
8 -185 m 1,0,-1
 130 683 l 1,1,-1
 215 683 l 1,2,-1
 181 436 l 1,3,-1
 129 254 l 1,4,-1
 131 252 l 1,5,-1
 134 254 l 1,6,7
 169 374 169 374 214 437 c 128,-1,8
 259 500 259 500 321 500 c 0,9,10
 372 500 372 500 403 466 c 128,-1,11
 434 432 434 432 434 363 c 0,12,13
 434 348 434 348 432 331.5 c 128,-1,14
 430 315 430 315 427 297 c 2,15,-1
 399 148 l 2,16,17
 369 -12 369 -12 242 -12 c 0,18,19
 212 -12 212 -12 180 1.5 c 128,-1,20
 148 15 148 15 124 37 c 1,21,-1
 93 -185 l 1,22,-1
 8 -185 l 1,0,-1
301 424 m 0,23,24
 275 424 275 424 249 398 c 128,-1,25
 223 372 223 372 201 331.5 c 128,-1,26
 179 291 179 291 162.5 241 c 128,-1,27
 146 191 146 191 139 143 c 2,28,-1
 133 99 l 1,29,30
 153 82 153 82 177 72.5 c 128,-1,31
 201 63 201 63 221 63 c 0,32,33
 258 63 258 63 281.5 85.5 c 128,-1,34
 305 108 305 108 316 160 c 2,35,-1
 342 292 l 2,36,37
 348 325 348 325 348 349 c 0,38,39
 348 389 348 389 334.5 406.5 c 128,-1,40
 321 424 321 424 301 424 c 0,23,24
EndSplineSet
EndChar

StartChar: hbar
Encoding: 295 295 213
Width: 495
Flags: W
LayerCount: 2
Fore
SplineSet
99 458 m 2,0,1
 103 484 103 484 105.5 507.5 c 128,-1,2
 108 531 108 531 110 553 c 1,3,-1
 42 553 l 1,4,-1
 52 623 l 1,5,-1
 116 623 l 1,6,7
 118 638 118 638 118 653 c 128,-1,8
 118 668 118 668 119 683 c 1,9,-1
 204 683 l 1,10,-1
 202 623 l 1,11,-1
 327 623 l 1,12,-1
 317 553 l 1,13,-1
 196 553 l 1,14,-1
 188 485 l 1,15,-1
 127 240 l 1,16,-1
 130 238 l 1,17,-1
 133 240 l 1,18,19
 168 370 168 370 220 435 c 128,-1,20
 272 500 272 500 332 500 c 0,21,22
 381 500 381 500 407.5 472.5 c 128,-1,23
 434 445 434 445 434 379 c 0,24,25
 434 365 434 365 433 349.5 c 128,-1,26
 432 334 432 334 429 316 c 2,27,-1
 381 0 l 1,28,-1
 296 0 l 1,29,-1
 346 318 l 2,30,31
 348 332 348 332 349 343 c 128,-1,32
 350 354 350 354 350 364 c 0,33,34
 350 396 350 396 339 408.5 c 128,-1,35
 328 421 328 421 309 421 c 0,36,37
 283 421 283 421 255 393.5 c 128,-1,38
 227 366 227 366 202 315.5 c 128,-1,39
 177 265 177 265 156.5 192.5 c 128,-1,40
 136 120 136 120 124 30 c 2,41,-1
 120 0 l 1,42,-1
 35 0 l 1,43,-1
 99 458 l 2,0,1
EndSplineSet
EndChar

StartChar: Itilde
Encoding: 296 296 214
Width: 235
Flags: W
LayerCount: 2
Fore
SplineSet
310 740 m 1,0,1
 298 731 298 731 285 725 c 0,2,3
 274 719 274 719 258.5 714.5 c 128,-1,4
 243 710 243 710 226 710 c 256,5,6
 209 710 209 710 194.5 714 c 128,-1,7
 180 718 180 718 165.5 722.5 c 128,-1,8
 151 727 151 727 136.5 731 c 128,-1,9
 122 735 122 735 107 735 c 0,10,11
 94 735 94 735 80 731 c 128,-1,12
 66 727 66 727 54 722 c 0,13,14
 40 717 40 717 26 710 c 1,15,-1
 34 780 l 1,16,17
 46 788 46 788 59 795 c 0,18,19
 70 800 70 800 85.5 805 c 128,-1,20
 101 810 101 810 118 810 c 0,21,22
 138 810 138 810 154 806 c 128,-1,23
 170 802 170 802 183.5 797.5 c 128,-1,24
 197 793 197 793 210 789 c 128,-1,25
 223 785 223 785 237 785 c 0,26,27
 249 785 249 785 263.5 788.5 c 128,-1,28
 278 792 278 792 290 797 c 0,29,30
 304 802 304 802 318 810 c 1,31,-1
 310 740 l 1,0,1
39 0 m 1,32,-1
 119 655 l 1,33,-1
 204 655 l 1,34,-1
 124 0 l 1,35,-1
 39 0 l 1,32,-1
EndSplineSet
EndChar

StartChar: dotlessi
Encoding: 305 305 216
Width: 245
Flags: W
LayerCount: 2
Fore
SplineSet
40 0 m 1,0,-1
 109 488 l 1,1,-1
 194 488 l 1,2,-1
 125 0 l 1,3,-1
 40 0 l 1,0,-1
EndSplineSet
EndChar

StartChar: jcircumflex
Encoding: 309 309 220
Width: 235
Flags: W
LayerCount: 2
Fore
SplineSet
112 -51 m 2,0,1
 101 -128 101 -128 66 -162.5 c 128,-1,2
 31 -197 31 -197 -38 -197 c 0,3,4
 -58 -197 -58 -197 -81.5 -193.5 c 128,-1,5
 -105 -190 -105 -190 -119 -185 c 1,6,-1
 -109 -112 l 1,7,8
 -97 -117 -97 -117 -76.5 -120.5 c 128,-1,9
 -56 -124 -56 -124 -37 -124 c 0,10,11
 -9 -124 -9 -124 6 -111 c 128,-1,12
 21 -98 21 -98 26 -59 c 2,13,-1
 103 488 l 1,14,-1
 188 488 l 1,15,-1
 112 -51 l 2,0,1
17 546 m 1,16,-1
 27 618 l 1,17,-1
 167 690 l 1,18,-1
 287 614 l 1,19,-1
 277 546 l 1,20,-1
 156 611 l 1,21,-1
 17 546 l 1,16,-1
EndSplineSet
EndChar

StartChar: kcommaaccent
Encoding: 311 311 221
Width: 439
Flags: W
LayerCount: 2
Fore
SplineSet
224 -122 m 2,0,1
 222 -135 222 -135 218.5 -144.5 c 128,-1,2
 215 -154 215 -154 209 -167 c 2,3,-1
 181 -226 l 1,4,-1
 129 -226 l 1,5,-1
 155 -155 l 1,6,7
 130 -146 130 -146 130 -122 c 0,8,9
 130 -120 130 -120 130.5 -117.5 c 128,-1,10
 131 -115 131 -115 131 -113 c 2,11,-1
 134 -93 l 2,12,13
 137 -74 137 -74 147 -65 c 128,-1,14
 157 -56 157 -56 180 -56 c 0,15,16
 228 -56 228 -56 228 -92 c 0,17,18
 228 -99 228 -99 227 -102 c 2,19,-1
 224 -122 l 2,0,1
127 240 m 1,20,-1
 130 238 l 1,21,-1
 132 239 l 1,22,23
 145 289 145 289 163.5 336 c 128,-1,24
 182 383 182 383 205.5 419.5 c 128,-1,25
 229 456 229 456 258.5 478 c 128,-1,26
 288 500 288 500 324 500 c 0,27,28
 367 500 367 500 395.5 470.5 c 128,-1,29
 424 441 424 441 423 392 c 0,30,31
 422 334 422 334 385.5 285.5 c 128,-1,32
 349 237 349 237 273 209 c 1,33,-1
 383 0 l 1,34,-1
 289 0 l 1,35,36
 260 65 260 65 234 118.5 c 128,-1,37
 208 172 208 172 179 229 c 1,38,39
 222 236 222 236 252.5 252 c 128,-1,40
 283 268 283 268 302.5 289 c 128,-1,41
 322 310 322 310 330.5 334 c 128,-1,42
 339 358 339 358 339 381 c 256,43,44
 339 404 339 404 328 416.5 c 128,-1,45
 317 429 317 429 299 429 c 0,46,47
 272 429 272 429 245.5 397 c 128,-1,48
 219 365 219 365 196.5 315.5 c 128,-1,49
 174 266 174 266 157 207 c 128,-1,50
 140 148 140 148 133 94 c 2,51,-1
 120 0 l 1,52,-1
 35 0 l 1,53,-1
 99 458 l 2,54,55
 109 528 109 528 113 580.5 c 128,-1,56
 117 633 117 633 119 683 c 1,57,-1
 204 683 l 1,58,59
 203 645 203 645 200.5 601 c 128,-1,60
 198 557 198 557 192 514 c 2,61,-1
 188 485 l 1,62,-1
 127 240 l 1,20,-1
EndSplineSet
EndChar

StartChar: kgreenlandic
Encoding: 312 312 222
Width: 452
Flags: W
LayerCount: 2
Fore
SplineSet
36 0 m 1,0,-1
 105 488 l 1,1,-1
 190 488 l 1,2,-1
 157 257 l 1,3,4
 214 321 214 321 261.5 379 c 128,-1,5
 309 437 309 437 349 488 c 1,6,-1
 445 488 l 1,7,-1
 246 255 l 1,8,-1
 388 0 l 1,9,-1
 286 0 l 1,10,11
 264 46 264 46 250 75.5 c 128,-1,12
 236 105 236 105 223 129 c 128,-1,13
 210 153 210 153 195 179 c 128,-1,14
 180 205 180 205 155 244 c 1,15,-1
 121 0 l 1,16,-1
 36 0 l 1,0,-1
EndSplineSet
EndChar

StartChar: Ldotaccent
Encoding: 319 319 223
Width: 445
Flags: W
LayerCount: 2
Fore
SplineSet
337 445 m 1,0,1
 333 403 333 403 280 403 c 0,2,3
 254 403 254 403 239 416 c 128,-1,4
 224 429 224 429 226 451 c 1,5,-1
 230 480 l 1,6,7
 234 523 234 523 287 523 c 0,8,9
 314 523 314 523 329 510 c 128,-1,10
 344 497 344 497 341 474 c 2,11,-1
 337 445 l 1,0,1
39 0 m 1,12,-1
 119 655 l 1,13,-1
 204 655 l 1,14,-1
 132 75 l 1,15,-1
 392 75 l 1,16,-1
 384 0 l 1,17,-1
 39 0 l 1,12,-1
EndSplineSet
EndChar

StartChar: Lslash
Encoding: 321 321 225
Width: 445
Flags: W
LayerCount: 2
Fore
SplineSet
13 344 m 1,0,-1
 83 363 l 1,1,-1
 119 655 l 1,2,-1
 204 655 l 1,3,-1
 171 386 l 1,4,-1
 309 424 l 1,5,-1
 298 348 l 1,6,-1
 161 311 l 1,7,-1
 132 75 l 1,8,-1
 392 75 l 1,9,-1
 384 0 l 1,10,-1
 39 0 l 1,11,-1
 74 287 l 1,12,-1
 2 268 l 1,13,-1
 13 344 l 1,0,-1
EndSplineSet
EndChar

StartChar: lslash
Encoding: 322 322 226
Width: 235
Flags: W
LayerCount: 2
Fore
SplineSet
84 355 m 1,0,-1
 -9 328 l 1,1,-1
 0 398 l 1,2,-1
 94 425 l 1,3,-1
 99 458 l 2,4,5
 109 528 109 528 113 580.5 c 128,-1,6
 117 633 117 633 119 683 c 1,7,-1
 204 683 l 1,8,9
 203 645 203 645 199.5 592 c 128,-1,10
 196 539 196 539 185 464 c 2,11,-1
 183 451 l 1,12,-1
 277 478 l 1,13,-1
 267 408 l 1,14,-1
 173 381 l 1,15,-1
 120 0 l 1,16,-1
 35 0 l 1,17,-1
 84 355 l 1,0,-1
EndSplineSet
EndChar

StartChar: OE
Encoding: 338 338 229
Width: 771
Flags: W
LayerCount: 2
Fore
SplineSet
325 0 m 1,0,1
 287 -12 287 -12 243 -12 c 0,2,3
 146 -12 146 -12 100 36 c 128,-1,4
 54 84 54 84 54 164 c 0,5,6
 54 175 54 175 55 187 c 128,-1,7
 56 199 56 199 58 211 c 2,8,-1
 93 460 l 2,9,10
 107 560 107 560 162 613.5 c 128,-1,11
 217 667 217 667 319 667 c 0,12,13
 344 667 344 667 367 663.5 c 128,-1,14
 390 660 390 660 411 655 c 1,15,-1
 750 655 l 1,16,-1
 740 578 l 1,17,-1
 480 578 l 1,18,-1
 455 371 l 1,19,-1
 695 371 l 1,20,-1
 685 295 l 1,21,-1
 445 295 l 1,22,-1
 418 77 l 1,23,-1
 678 77 l 1,24,-1
 670 0 l 1,25,-1
 325 0 l 1,0,1
255 64 m 0,26,27
 280 64 280 64 298.5 67.5 c 128,-1,28
 317 71 317 71 334 79 c 1,29,-1
 395 579 l 1,30,31
 378 585 378 585 358.5 589 c 128,-1,32
 339 593 339 593 319 593 c 0,33,34
 259 593 259 593 223.5 563 c 128,-1,35
 188 533 188 533 179 470 c 2,36,-1
 142 202 l 2,37,38
 141 194 141 194 140.5 187.5 c 128,-1,39
 140 181 140 181 140 174 c 0,40,41
 140 123 140 123 169.5 93.5 c 128,-1,42
 199 64 199 64 255 64 c 0,26,27
EndSplineSet
EndChar

StartChar: oe
Encoding: 339 339 230
Width: 743
Flags: W
LayerCount: 2
Fore
SplineSet
263 500 m 0,0,1
 316 500 316 500 349.5 477 c 128,-1,2
 383 454 383 454 401 422 c 1,3,4
 428 455 428 455 465 477.5 c 128,-1,5
 502 500 502 500 551 500 c 0,6,7
 615 500 615 500 650.5 467 c 128,-1,8
 686 434 686 434 685 380 c 0,9,10
 685 342 685 342 670 309 c 128,-1,11
 655 276 655 276 622 249 c 128,-1,12
 589 222 589 222 536 203 c 128,-1,13
 483 184 483 184 406 175 c 1,14,-1
 403 155 l 2,15,16
 402 149 402 149 401.5 143.5 c 128,-1,17
 401 138 401 138 401 133 c 0,18,19
 401 63 401 63 490 63 c 0,20,21
 506 63 506 63 526 66.5 c 128,-1,22
 546 70 546 70 566 75.5 c 128,-1,23
 586 81 586 81 604.5 88 c 128,-1,24
 623 95 623 95 637 101 c 1,25,-1
 622 24 l 1,26,27
 588 8 588 8 547.5 -2 c 128,-1,28
 507 -12 507 -12 478 -12 c 0,29,30
 431 -12 431 -12 400.5 6.5 c 128,-1,31
 370 25 370 25 351 53 c 1,32,33
 328 25 328 25 294 6.5 c 128,-1,34
 260 -12 260 -12 214 -12 c 0,35,36
 132 -12 132 -12 91.5 28 c 128,-1,37
 51 68 51 68 51 137 c 2,38,-1
 51 154 l 2,39,40
 51 164 51 164 53 173 c 2,41,-1
 74 322 l 2,42,43
 86 406 86 406 130 453 c 128,-1,44
 174 500 174 500 263 500 c 0,0,1
342 322 m 2,45,46
 343 328 343 328 343.5 334 c 128,-1,47
 344 340 344 340 344 345 c 0,48,49
 344 386 344 386 322 407.5 c 128,-1,50
 300 429 300 429 262 429 c 0,51,52
 220 429 220 429 194 405 c 128,-1,53
 168 381 168 381 160 327 c 2,54,-1
 137 165 l 2,55,56
 136 159 136 159 135.5 153.5 c 128,-1,57
 135 148 135 148 135 143 c 0,58,59
 135 102 135 102 157.5 80.5 c 128,-1,60
 180 59 180 59 218 59 c 0,61,62
 262 59 262 59 286.5 83.5 c 128,-1,63
 311 108 311 108 319 161 c 2,64,-1
 342 322 l 2,45,46
415 235 m 1,65,66
 501 249 501 249 550.5 286.5 c 128,-1,67
 600 324 600 324 600 370 c 0,68,69
 600 396 600 396 583 412.5 c 128,-1,70
 566 429 566 429 536 429 c 0,71,72
 494 429 494 429 463 390 c 128,-1,73
 432 351 432 351 421 276 c 2,74,-1
 415 235 l 1,65,66
EndSplineSet
EndChar

StartChar: Rcommaaccent
Encoding: 342 342 232
Width: 546
Flags: W
LayerCount: 2
Fore
SplineSet
262 -122 m 2,0,1
 260 -135 260 -135 256.5 -144.5 c 128,-1,2
 253 -154 253 -154 247 -167 c 2,3,-1
 219 -226 l 1,4,-1
 167 -226 l 1,5,-1
 193 -155 l 1,6,7
 168 -146 168 -146 168 -122 c 0,8,9
 168 -120 168 -120 168.5 -117.5 c 128,-1,10
 169 -115 169 -115 169 -113 c 2,11,-1
 172 -93 l 2,12,13
 175 -74 175 -74 185 -65 c 128,-1,14
 195 -56 195 -56 218 -56 c 0,15,16
 266 -56 266 -56 266 -92 c 0,17,18
 266 -99 266 -99 265 -102 c 2,19,-1
 262 -122 l 2,0,1
289 667 m 0,20,21
 345 667 345 667 387 652.5 c 128,-1,22
 429 638 429 638 456 612.5 c 128,-1,23
 483 587 483 587 494 552 c 128,-1,24
 505 517 505 517 499 477 c 2,25,-1
 496 457 l 2,26,27
 488 400 488 400 450 357.5 c 128,-1,28
 412 315 412 315 352 296 c 1,29,-1
 489 0 l 1,30,-1
 392 0 l 1,31,32
 369 57 369 57 352 98.5 c 128,-1,33
 335 140 335 140 320.5 172.5 c 128,-1,34
 306 205 306 205 293 231.5 c 128,-1,35
 280 258 280 258 265 285 c 1,36,-1
 251 285 l 2,37,38
 234 285 234 285 212 286.5 c 128,-1,39
 190 288 190 288 159 293 c 1,40,-1
 124 0 l 1,41,-1
 39 0 l 1,42,-1
 120 662 l 1,43,44
 162 664 162 664 206.5 665.5 c 128,-1,45
 251 667 251 667 289 667 c 0,20,21
282 596 m 0,46,47
 267 596 267 596 241.5 595.5 c 128,-1,48
 216 595 216 595 196 594 c 1,49,-1
 167 358 l 1,50,51
 200 354 200 354 219 353 c 128,-1,52
 238 352 238 352 255 352 c 0,53,54
 327 352 327 352 365 381.5 c 128,-1,55
 403 411 403 411 412 465 c 2,56,-1
 413 471 l 2,57,58
 414 478 414 478 414.5 484.5 c 128,-1,59
 415 491 415 491 415 497 c 0,60,61
 415 545 415 545 382 570.5 c 128,-1,62
 349 596 349 596 282 596 c 0,46,47
EndSplineSet
EndChar

StartChar: rcommaaccent
Encoding: 343 343 233
Width: 345
Flags: W
LayerCount: 2
Fore
SplineSet
109 -122 m 2,0,1
 107 -135 107 -135 103.5 -144.5 c 128,-1,2
 100 -154 100 -154 94 -167 c 2,3,-1
 66 -226 l 1,4,-1
 14 -226 l 1,5,-1
 40 -155 l 1,6,7
 15 -146 15 -146 15 -122 c 0,8,9
 15 -120 15 -120 15.5 -117.5 c 128,-1,10
 16 -115 16 -115 16 -113 c 2,11,-1
 19 -93 l 2,12,13
 22 -74 22 -74 32 -65 c 128,-1,14
 42 -56 42 -56 65 -56 c 0,15,16
 113 -56 113 -56 113 -92 c 0,17,18
 113 -99 113 -99 112 -102 c 2,19,-1
 109 -122 l 2,0,1
35 0 m 1,20,-1
 103 488 l 1,21,-1
 183 488 l 1,22,-1
 172 409 l 1,23,-1
 127 240 l 1,24,-1
 130 238 l 1,25,-1
 133 240 l 1,26,27
 168 370 168 370 218 435 c 128,-1,28
 268 500 268 500 323 500 c 0,29,30
 331 500 331 500 339 498 c 1,31,-1
 323 391 l 1,32,33
 311 394 311 394 297 394 c 0,34,35
 267 394 267 394 240 368 c 128,-1,36
 213 342 213 342 191 294.5 c 128,-1,37
 169 247 169 247 152 179.5 c 128,-1,38
 135 112 135 112 124 30 c 2,39,-1
 120 0 l 1,40,-1
 35 0 l 1,20,-1
EndSplineSet
EndChar

StartChar: dotlessj
Encoding: 567 567 236
Width: 235
Flags: W
LayerCount: 2
Fore
SplineSet
112 -51 m 2,0,1
 101 -128 101 -128 66 -162.5 c 128,-1,2
 31 -197 31 -197 -38 -197 c 0,3,4
 -58 -197 -58 -197 -81.5 -193.5 c 128,-1,5
 -105 -190 -105 -190 -119 -185 c 1,6,-1
 -109 -112 l 1,7,8
 -97 -117 -97 -117 -76.5 -120.5 c 128,-1,9
 -56 -124 -56 -124 -37 -124 c 0,10,11
 -11 -124 -11 -124 3.5 -113 c 128,-1,12
 18 -102 18 -102 24 -73 c 1,13,-1
 26 -59 l 1,14,-1
 103 488 l 1,15,-1
 188 488 l 1,16,-1
 112 -51 l 2,0,1
EndSplineSet
EndChar

StartChar: circumflex
Encoding: 710 710 237
Width: 460
Flags: W
LayerCount: 2
Fore
SplineSet
136 546 m 1,0,-1
 146 618 l 1,1,-1
 286 690 l 1,2,-1
 406 614 l 1,3,-1
 396 546 l 1,4,-1
 275 611 l 1,5,-1
 136 546 l 1,0,-1
EndSplineSet
EndChar

StartChar: caron
Encoding: 711 711 238
Width: 460
Flags: W
LayerCount: 2
Fore
SplineSet
277 625 m 1,0,-1
 416 690 l 1,1,-1
 407 618 l 1,2,-1
 266 546 l 1,3,-1
 147 622 l 1,4,-1
 156 690 l 1,5,-1
 277 625 l 1,0,-1
EndSplineSet
EndChar

StartChar: ring
Encoding: 730 730 239
Width: 380
Flags: W
LayerCount: 2
Fore
SplineSet
243 723 m 0,0,1
 290 723 290 723 320 699 c 128,-1,2
 350 675 350 675 350 634 c 0,3,4
 350 589 350 589 320 559 c 128,-1,5
 290 529 290 529 231 529 c 0,6,7
 186 529 186 529 155 553 c 128,-1,8
 124 577 124 577 124 619 c 0,9,10
 124 667 124 667 155 695 c 128,-1,11
 186 723 186 723 243 723 c 0,0,1
241 672 m 0,12,13
 211 672 211 672 198.5 660.5 c 128,-1,14
 186 649 186 649 186 623 c 0,15,16
 186 604 186 604 198.5 592 c 128,-1,17
 211 580 211 580 235 580 c 0,18,19
 265 580 265 580 277 592.5 c 128,-1,20
 289 605 289 605 289 632 c 0,21,22
 289 651 289 651 276.5 661.5 c 128,-1,23
 264 672 264 672 241 672 c 0,12,13
EndSplineSet
EndChar

StartChar: tilde
Encoding: 732 732 240
Width: 460
Flags: W
LayerCount: 2
Fore
SplineSet
406 613 m 1,0,1
 394 605 394 605 381 599 c 0,2,3
 370 594 370 594 354.5 589.5 c 128,-1,4
 339 585 339 585 322 585 c 0,5,6
 307 585 307 585 295 589 c 128,-1,7
 283 593 283 593 271.5 597.5 c 128,-1,8
 260 602 260 602 248.5 606 c 128,-1,9
 237 610 237 610 223 610 c 0,10,11
 210 610 210 610 196 606 c 128,-1,12
 182 602 182 602 170 597 c 0,13,14
 156 592 156 592 142 585 c 1,15,-1
 152 653 l 1,16,17
 164 662 164 662 177 669 c 0,18,19
 188 675 188 675 203.5 680 c 128,-1,20
 219 685 219 685 236 685 c 0,21,22
 255 685 255 685 267.5 681 c 128,-1,23
 280 677 280 677 290.5 672.5 c 128,-1,24
 301 668 301 668 311 664 c 128,-1,25
 321 660 321 660 334 660 c 0,26,27
 346 660 346 660 360.5 663.5 c 128,-1,28
 375 667 375 667 387 672 c 0,29,30
 401 677 401 677 416 685 c 1,31,-1
 406 613 l 1,0,1
EndSplineSet
EndChar

StartChar: dotaccentcmb
Encoding: 775 775 241
Width: 251
Flags: W
LayerCount: 2
Fore
SplineSet
236 751 m 1,0,1
 232 709 232 709 179 709 c 0,2,3
 153 709 153 709 138 722 c 128,-1,4
 123 735 123 735 125 757 c 1,5,-1
 129 786 l 1,6,7
 133 829 133 829 186 829 c 0,8,9
 213 829 213 829 227.5 816 c 128,-1,10
 242 803 242 803 240 780 c 1,11,-1
 236 751 l 1,0,1
EndSplineSet
EndChar

StartChar: endash
Encoding: 8211 8211 242
Width: 610
Flags: W
LayerCount: 2
Fore
SplineSet
61 263 m 1,0,-1
 71 328 l 1,1,-1
 551 328 l 1,2,-1
 541 263 l 1,3,-1
 61 263 l 1,0,-1
EndSplineSet
EndChar

StartChar: emdash
Encoding: 8212 8212 243
Width: 710
Flags: W
LayerCount: 2
Fore
SplineSet
61 263 m 1,0,-1
 71 328 l 1,1,-1
 651 328 l 1,2,-1
 641 263 l 1,3,-1
 61 263 l 1,0,-1
EndSplineSet
EndChar

StartChar: quotesinglbase
Encoding: 8218 8218 246
Width: 217
Flags: W
LayerCount: 2
Fore
SplineSet
126 27 m 2,0,1
 124 12 124 12 121 2 c 128,-1,2
 118 -8 118 -8 112 -20 c 2,3,-1
 69 -108 l 1,4,-1
 10 -108 l 1,5,-1
 47 -9 l 1,6,7
 33 -6 33 -6 25.5 4.5 c 128,-1,8
 18 15 18 15 18 29 c 0,9,10
 18 31 18 31 18.5 33 c 128,-1,11
 19 35 19 35 19 37 c 2,12,-1
 23 64 l 2,13,14
 29 105 29 105 80 105 c 0,15,16
 106 105 106 105 119.5 92 c 128,-1,17
 133 79 133 79 130 57 c 2,18,-1
 126 27 l 2,0,1
EndSplineSet
EndChar

StartChar: bullet
Encoding: 8226 8226 250
Width: 235
Flags: W
LayerCount: 2
Fore
SplineSet
174 249 m 2,0,1
 169 222 169 222 155 211 c 128,-1,2
 141 200 141 200 109 200 c 0,3,4
 80 200 80 200 62 215 c 128,-1,5
 44 230 44 230 49 256 c 2,6,-1
 54 285 l 2,7,8
 58 311 58 311 73 323 c 128,-1,9
 88 335 88 335 118 335 c 0,10,11
 150 335 150 335 166.5 319.5 c 128,-1,12
 183 304 183 304 179 279 c 2,13,-1
 174 249 l 2,0,1
EndSplineSet
EndChar

StartChar: guilsinglleft
Encoding: 8249 8249 251
Width: 318
Flags: W
LayerCount: 2
Fore
SplineSet
281 488 m 1,0,-1
 164 318 l 1,1,-1
 233 148 l 1,2,-1
 147 148 l 1,3,-1
 69 318 l 1,4,-1
 191 488 l 1,5,-1
 281 488 l 1,0,-1
EndSplineSet
EndChar

StartChar: guilsinglright
Encoding: 8250 8250 252
Width: 318
Flags: W
LayerCount: 2
Fore
SplineSet
46 148 m 1,0,-1
 163 318 l 1,1,-1
 94 488 l 1,2,-1
 176 488 l 1,3,-1
 258 318 l 1,4,-1
 137 148 l 1,5,-1
 46 148 l 1,0,-1
EndSplineSet
EndChar

StartChar: Euro
Encoding: 8364 8364 253
Width: 520
Flags: W
LayerCount: 2
Fore
SplineSet
219 326 m 1,0,-1
 210 264 l 1,1,-1
 399 264 l 1,2,-1
 369 194 l 1,3,-1
 200 194 l 1,4,-1
 200 191 l 1,5,6
 197 173 197 173 197 157 c 0,7,8
 197 63 197 63 297 63 c 0,9,10
 334 63 334 63 370.5 71.5 c 128,-1,11
 407 80 407 80 436 89 c 1,12,-1
 427 12 l 1,13,14
 391 1 391 1 356 -5.5 c 128,-1,15
 321 -12 321 -12 287 -12 c 0,16,17
 240 -12 240 -12 207 -1 c 128,-1,18
 174 10 174 10 153 31 c 128,-1,19
 132 52 132 52 122.5 81.5 c 128,-1,20
 113 111 113 111 113 149 c 0,21,22
 113 170 113 170 116 194 c 1,23,-1
 40 194 l 1,24,-1
 70 264 l 1,25,-1
 125 264 l 1,26,-1
 134 326 l 1,27,-1
 58 326 l 1,28,-1
 88 396 l 1,29,-1
 144 396 l 1,30,-1
 148 424 l 2,31,32
 162 523 162 523 210.5 568 c 128,-1,33
 259 613 259 613 357 613 c 0,34,35
 392 613 392 613 428.5 607.5 c 128,-1,36
 465 602 465 602 498 593 c 1,37,-1
 486 519 l 1,38,39
 454 529 454 529 421.5 534.5 c 128,-1,40
 389 540 389 540 353 540 c 0,41,42
 299 540 299 540 270.5 515 c 128,-1,43
 242 490 242 490 233 427 c 1,44,-1
 228 396 l 1,45,-1
 417 396 l 1,46,-1
 387 326 l 1,47,-1
 219 326 l 1,0,-1
EndSplineSet
EndChar

StartChar: commaaccent
Encoding: 63171 63171 254
Width: 300
Flags: W
LayerCount: 2
Fore
SplineSet
202 21 m 2,0,1
 200 8 200 8 196.5 -1.5 c 128,-1,2
 193 -11 193 -11 187 -24 c 2,3,-1
 159 -83 l 1,4,-1
 107 -83 l 1,5,-1
 133 -12 l 1,6,7
 108 -3 108 -3 108 21 c 0,8,9
 108 23 108 23 108.5 25.5 c 128,-1,10
 109 28 109 28 109 30 c 2,11,-1
 112 50 l 2,12,13
 115 69 115 69 125 78 c 128,-1,14
 135 87 135 87 158 87 c 0,15,16
 206 87 206 87 206 51 c 0,17,18
 206 44 206 44 205 41 c 2,19,-1
 202 21 l 2,0,1
EndSplineSet
EndChar

StartChar: grave.cap
Encoding: 65539 -1 255
Width: 385
Flags: W
LayerCount: 2
Fore
SplineSet
179 829 m 1,0,-1
 268 829 l 1,1,-1
 320 710 l 1,2,-1
 250 710 l 1,3,-1
 179 829 l 1,0,-1
EndSplineSet
EndChar

StartChar: dieresis.cap
Encoding: 65540 -1 256
Width: 431
Flags: W
LayerCount: 2
Fore
SplineSet
239 752 m 2,0,1
 237 731 237 731 224 720.5 c 128,-1,2
 211 710 211 710 184 710 c 0,3,4
 158 710 158 710 143 723 c 128,-1,5
 128 736 128 736 130 757 c 2,6,-1
 134 785 l 1,7,8
 138 828 138 828 190 828 c 0,9,10
 217 828 217 828 231 816 c 128,-1,11
 245 804 245 804 243 781 c 1,12,-1
 239 752 l 2,0,1
411 752 m 2,13,14
 406 710 406 710 356 710 c 0,15,16
 330 710 330 710 315 723 c 128,-1,17
 300 736 300 736 302 757 c 2,18,-1
 306 785 l 1,19,20
 310 828 310 828 362 828 c 0,21,22
 388 828 388 828 402.5 816 c 128,-1,23
 417 804 417 804 415 781 c 1,24,-1
 411 752 l 2,13,14
EndSplineSet
EndChar

StartChar: acute.cap
Encoding: 65541 -1 257
Width: 385
Flags: W
LayerCount: 2
Fore
SplineSet
235 710 m 1,0,-1
 165 710 l 1,1,-1
 245 829 l 1,2,-1
 334 829 l 1,3,-1
 235 710 l 1,0,-1
EndSplineSet
EndChar

StartChar: circumflex.cap
Encoding: 65542 -1 258
Width: 460
Flags: W
LayerCount: 2
Fore
SplineSet
140 711 m 1,0,-1
 148 779 l 1,1,-1
 296 840 l 1,2,-1
 428 779 l 1,3,-1
 420 711 l 1,4,-1
 286 760 l 1,5,-1
 140 711 l 1,0,-1
EndSplineSet
EndChar

StartChar: caron.cap
Encoding: 65543 -1 259
Width: 460
Flags: W
LayerCount: 2
Fore
SplineSet
290 792 m 1,0,-1
 436 841 l 1,1,-1
 427 773 l 1,2,-1
 280 712 l 1,3,-1
 147 773 l 1,4,-1
 156 841 l 1,5,-1
 290 792 l 1,0,-1
EndSplineSet
EndChar

StartChar: ring.cap
Encoding: 65544 -1 260
Width: 380
Flags: W
LayerCount: 2
Fore
SplineSet
248 800 m 0,0,1
 296 800 296 800 325 778.5 c 128,-1,2
 354 757 354 757 355 715 c 0,3,4
 356 657 356 657 322.5 628.5 c 128,-1,5
 289 600 289 600 231 600 c 0,6,7
 183 600 183 600 153.5 622.5 c 128,-1,8
 124 645 124 645 123 688 c 0,9,10
 122 746 122 746 156.5 773 c 128,-1,11
 191 800 191 800 248 800 c 0,0,1
244 745 m 0,12,13
 189 745 189 745 189 695 c 1,14,15
 190 678 190 678 200 666.5 c 128,-1,16
 210 655 210 655 235 655 c 0,17,18
 266 655 266 655 278.5 670 c 128,-1,19
 291 685 291 685 290 708 c 0,20,21
 290 724 290 724 279 734.5 c 128,-1,22
 268 745 268 745 244 745 c 0,12,13
EndSplineSet
EndChar

StartChar: tilde.cap
Encoding: 65545 -1 261
Width: 460
Flags: W
LayerCount: 2
Fore
SplineSet
424 740 m 1,0,1
 412 731 412 731 399 725 c 0,2,3
 388 719 388 719 372.5 714.5 c 128,-1,4
 357 710 357 710 340 710 c 256,5,6
 323 710 323 710 308.5 714 c 128,-1,7
 294 718 294 718 279.5 722.5 c 128,-1,8
 265 727 265 727 250.5 731 c 128,-1,9
 236 735 236 735 221 735 c 0,10,11
 208 735 208 735 194 731 c 128,-1,12
 180 727 180 727 168 722 c 0,13,14
 154 717 154 717 140 710 c 1,15,-1
 148 780 l 1,16,17
 160 788 160 788 173 795 c 0,18,19
 184 800 184 800 199.5 805 c 128,-1,20
 215 810 215 810 232 810 c 0,21,22
 252 810 252 810 268 806 c 128,-1,23
 284 802 284 802 297.5 797.5 c 128,-1,24
 311 793 311 793 324 789 c 128,-1,25
 337 785 337 785 351 785 c 0,26,27
 363 785 363 785 377.5 788.5 c 128,-1,28
 392 792 392 792 404 797 c 0,29,30
 418 802 418 802 432 810 c 1,31,-1
 424 740 l 1,0,1
EndSplineSet
EndChar

StartChar: dotaccentcmb.cap
Encoding: 65546 -1 262
Width: 251
Flags: W
LayerCount: 2
Fore
SplineSet
236 751 m 1,0,1
 232 709 232 709 179 709 c 0,2,3
 153 709 153 709 138 722 c 128,-1,4
 123 735 123 735 125 757 c 1,5,-1
 129 786 l 1,6,7
 133 829 133 829 186 829 c 0,8,9
 213 829 213 829 227.5 816 c 128,-1,10
 242 803 242 803 240 780 c 1,11,-1
 236 751 l 1,0,1
EndSplineSet
EndChar

StartChar: foundryicon
Encoding: 65547 -1 263
Width: 864
Flags: W
LayerCount: 2
Fore
SplineSet
144 0 m 1,0,-1
 144 576 l 1,1,-1
 432 576 l 1,2,-1
 432 288 l 1,3,-1
 720 288 l 1,4,-1
 720 0 l 1,5,-1
 144 0 l 1,0,-1
576 432 m 1,6,-1
 576 576 l 1,7,-1
 720 576 l 1,8,-1
 720 432 l 1,9,-1
 576 432 l 1,6,-1
EndSplineSet
EndChar
